SplineFontDB: 3.0
FontName: BenchTwelve-Black
FullName: BenchTwelve Black
FamilyName: BenchTwelve
Weight: Black
Copyright: vernon adams (c) 2012
Version: 1
ItalicAngle: 0
UnderlinePosition: 0
UnderlineWidth: 0
Ascent: 1638
Descent: 410
sfntRevision: 0x00010000
LayerCount: 2
Layer: 0 1 "Back"  1
Layer: 1 1 "Fore"  0
XUID: [1021 332 1330122705 12906060]
FSType: 0
OS2Version: 4
OS2_WeightWidthSlopeOnly: 1
OS2_UseTypoMetrics: 1
CreationTime: 1342436392
ModificationTime: 1343128424
PfmFamily: 17
TTFWeight: 900
TTFWidth: 6
LineGap: 0
VLineGap: 0
Panose: 2 0 10 3 0 0 0 0 0 0
OS2TypoAscent: 3715
OS2TypoAOffset: 0
OS2TypoDescent: -1160
OS2TypoDOffset: 0
OS2TypoLinegap: 0
OS2WinAscent: 2077
OS2WinAOffset: 0
OS2WinDescent: 750
OS2WinDOffset: 0
HheadAscent: 4240
HheadAOffset: 0
HheadDescent: -1482
HheadDOffset: 0
OS2SubXSize: 1331
OS2SubYSize: 1433
OS2SubXOff: 0
OS2SubYOff: 286
OS2SupXSize: 1331
OS2SupYSize: 1433
OS2SupXOff: 0
OS2SupYOff: 983
OS2StrikeYSize: 102
OS2StrikeYPos: 530
OS2Vendor: 'newt'
OS2CodePages: 00000093.00000000
OS2UnicodeRanges: a00000ef.4000004a.00000000.00000000
Lookup: 4 0 1 "'liga' Standard Ligatures lookup 0"  {"'liga' Standard Ligatures lookup 0 subtable"  } ['liga' ('DFLT' <'dflt' > 'grek' <'dflt' > 'latn' <'dflt' > ) ]
Lookup: 258 0 0 "'kern' Horizontal Kerning in Latin lookup 0"  {"'kern' Horizontal Kerning in Latin lookup 0 per glyph data 0"  "'kern' Horizontal Kerning in Latin lookup 0 kerning class 1"  } ['kern' ('DFLT' <'dflt' > 'latn' <'dflt' > ) ]
MarkAttachClasses: 1
DEI: 91125
KernClass2: 33 27 "'kern' Horizontal Kerning in Latin lookup 0 kerning class 1" 
 89 A Agrave Aacute Acircumflex Atilde Adieresis Aring Amacron Abreve Aogonek uni0200 uni0202
 1 B
 1 C
 111 D O Q Eth Ograve Oacute Ocircumflex Otilde Odieresis Oslash Dcaron Omacron Obreve Ohungarumlaut uni020C uni020E
 1 F
 1 G
 1 J
 1 K
 1 L
 1 P
 44 R Racute Rcommaaccent Rcaron uni0210 uni0212
 16 T Tcaron uni021A

StartChar: .notdef
Encoding: 65536 -1 0
Width: 748
Flags: W
LayerCount: 2
Fore
SplineSet
136 68 m 1,0,-1
 544 68 l 1,1,-1
 544 1297 l 1,2,-1
 136 1297 l 1,3,-1
 136 68 l 1,0,-1
68 0 m 1,4,-1
 68 1365 l 1,5,-1
 612 1365 l 1,6,-1
 612 0 l 1,7,-1
 68 0 l 1,4,-1
EndSplineSet
EndChar

StartChar: exclam
Encoding: 33 33 4
Width: 853
GlyphClass: 2
Flags: W
LayerCount: 2
Fore
SplineSet
225 0 m 2,0,-1
 626 0 l 2,1,2
 658 0 658 0 680 22 c 128,-1,3
 702 44 702 44 702 76 c 2,4,-1
 702 287 l 2,5,6
 702 319 702 319 680 341 c 128,-1,7
 658 363 658 363 626 363 c 2,8,-1
 225 363 l 2,9,10
 193 363 193 363 171 341 c 128,-1,11
 149 319 149 319 149 287 c 2,12,-1
 149 76 l 2,13,14
 149 44 149 44 171 22 c 128,-1,15
 193 0 193 0 225 0 c 2,0,-1
357 515 m 2,16,-1
 504 515 l 2,17,18
 564.823529412 515 564.823529412 515 576 591 c 2,19,-1
 704 1442 l 1,20,21
 705 1474 705 1474 683 1497.5 c 128,-1,22
 661 1521 661 1521 629 1521 c 2,23,-1
 231 1521 l 2,24,25
 199 1521 199 1521 177 1499.5 c 128,-1,26
 155 1478 155 1478 155 1446 c 1,27,-1
 284 591 l 1,28,29
 297 515 297 515 357 515 c 2,16,-1
EndSplineSet
EndChar

StartChar: quotedbl
Encoding: 34 34 5
Width: 1323
GlyphClass: 2
Flags: W
LayerCount: 2
Fore
SplineSet
317 689 m 2,0,-1
 396 689 l 2,1,2
 456.970588235 689 456.970588235 689 468 764 c 1,3,-1
 596 1443 l 1,4,5
 597 1475 597 1475 575 1498 c 128,-1,6
 553 1521 553 1521 521 1521 c 2,7,-1
 191 1521 l 2,8,9
 159 1521 159 1521 136.5 1498 c 128,-1,10
 114 1475 114 1475 115 1443 c 1,11,-1
 244 764 l 2,12,13
 257.235294118 689 257.235294118 689 317 689 c 2,0,-1
923 689 m 2,14,-1
 1002 689 l 2,15,16
 1062 689 1062 689 1074 764 c 1,17,-1
 1202 1443 l 1,18,19
 1203 1475 1203 1475 1181 1498 c 128,-1,20
 1159 1521 1159 1521 1127 1521 c 2,21,-1
 796 1521 l 2,22,23
 764 1521 764 1521 742 1498 c 128,-1,24
 720 1475 720 1475 721 1443 c 1,25,-1
 850 764 l 2,26,27
 863.235294118 689 863.235294118 689 923 689 c 2,14,-1
EndSplineSet
EndChar

StartChar: numbersign
Encoding: 35 35 6
Width: 1824
GlyphClass: 2
Flags: W
LayerCount: 2
Fore
SplineSet
138 426 m 2,0,1
 138 369 138 369 205 369 c 2,2,-1
 362 369 l 1,3,-1
 236 -170 l 1,4,5
 231 -183 231 -183 239 -194 c 128,-1,6
 247 -205 247 -205 260 -205 c 2,7,-1
 467 -205 l 2,8,9
 504 -205 504 -205 517 -170 c 1,10,-1
 643 369 l 1,11,-1
 1017 369 l 1,12,-1
 891 -170 l 1,13,14
 886 -183 886 -183 894 -194 c 128,-1,15
 902 -205 902 -205 915 -205 c 2,16,-1
 1122 -205 l 2,17,18
 1159 -205 1159 -205 1172 -170 c 1,19,-1
 1298 369 l 1,20,-1
 1542 369 l 2,21,22
 1609 369 1609 369 1609 426 c 2,23,-1
 1609 523 l 2,24,25
 1609 580 1609 580 1542 580 c 2,26,-1
 1347 580 l 1,27,-1
 1397 793 l 1,28,-1
 1617 793 l 2,29,30
 1684 793 1684 793 1684 850 c 2,31,-1
 1684 949 l 2,32,33
 1684 1006 1684 1006 1617 1006 c 2,34,-1
 1447 1006 l 1,35,-1
 1589 1612 l 1,36,37
 1594 1625 1594 1625 1586 1636 c 128,-1,38
 1578 1647 1578 1647 1565 1647 c 2,39,-1
 1358 1647 l 2,40,41
 1321 1647 1321 1647 1308 1612 c 1,42,-1
 1166 1006 l 1,43,-1
 792 1006 l 1,44,-1
 934 1612 l 1,45,46
 939 1625 939 1625 931 1636 c 128,-1,47
 923 1647 923 1647 910 1647 c 2,48,-1
 703 1647 l 2,49,50
 666 1647 666 1647 653 1612 c 1,51,-1
 511 1006 l 1,52,-1
 280 1006 l 2,53,54
 213 1006 213 1006 213 949 c 2,55,-1
 213 850 l 2,56,57
 213 793 213 793 280 793 c 2,58,-1
 461 793 l 1,59,-1
 411 580 l 1,60,-1
 205 580 l 2,61,62
 138 580 138 580 138 523 c 2,63,-1
 138 426 l 2,0,1
692 580 m 1,64,-1
 742 793 l 1,65,-1
 1116 793 l 1,66,-1
 1066 580 l 1,67,-1
 692 580 l 1,64,-1
EndSplineSet
EndChar

StartChar: dollar
Encoding: 36 36 7
Width: 2529
GlyphClass: 2
Flags: W
LayerCount: 2
Fore
SplineSet
250 397 m 0,0,1
 157 197 157 197 154.5 189 c 128,-1,2
 152 181 152 181 152 169 c 128,-1,3
 152 157 152 157 157.5 143.5 c 0,4,5
 169.13003096 114.953560372 169.13003096 114.953560372 197 105 c 0,6,7
 594.541436464 -38.9064023399 594.541436464 -38.9064023399 1164 -41 c 1,8,-1
 1164 -117 l 2,9,10
 1164 -151 1164 -151 1174 -174 c 128,-1,11
 1184 -197 1184 -197 1198 -197 c 2,12,-1
 1262 -197 l 2,13,14
 1276 -197 1276 -197 1286 -174 c 128,-1,15
 1296 -151 1296 -151 1296 -117 c 2,16,-1
 1296 -40 l 1,17,18
 1663 -33 1663 -33 1881 20.5 c 128,-1,19
 2099 74 2099 74 2196 179 c 128,-1,20
 2293 284 2293 284 2293 456 c 0,21,22
 2293 644 2293 644 2144.5 746 c 0,23,24
 2046.87708649 813.054122408 2046.87708649 813.054122408 1945.43854325 840.527061204 c 128,-1,25
 1844 868 1844 868 1776 880 c 128,-1,26
 1708 892 1708 892 1621.5 901 c 0,27,28
 1491.92946058 914.481327801 1491.92946058 914.481327801 1296 923 c 1,29,-1
 1296 1122 l 1,30,31
 1656 1109 1656 1109 1949 1016 c 0,32,33
 1958 1013 1958 1013 1964 1013 c 2,34,-1
 1973 1013 l 2,35,36
 2025.27272727 1013 2025.27272727 1013 2052 1062 c 0,37,38
 2052 1063 2052 1063 2096 1151 c 2,39,-1
 2139 1239 l 2,40,41
 2144 1251 2144 1251 2144 1265 c 128,-1,42
 2144 1279 2144 1279 2139 1292 c 0,43,44
 2127.99305556 1320.61805556 2127.99305556 1320.61805556 2101 1331 c 0,45,46
 1776 1457 1776 1457 1296 1472 c 1,47,-1
 1296 1563 l 2,48,49
 1296 1598 1296 1598 1286 1620.5 c 128,-1,50
 1276 1643 1276 1643 1262 1643 c 2,51,-1
 1198 1643 l 2,52,53
 1184 1643 1184 1643 1174 1620.5 c 128,-1,54
 1164 1598 1164 1598 1164 1563 c 2,55,-1
 1164 1475 l 1,56,57
 746.666666667 1475 746.666666667 1475 543.5 1422 c 0,58,59
 352.191588785 1372.09345794 352.191588785 1372.09345794 259 1277 c 0,60,61
 151 1166.79591837 151 1166.79591837 151 989 c 0,62,63
 151 748.613496933 151 748.613496933 387.5 648.5 c 0,64,65
 541.600827487 583.267134377 541.600827487 583.267134377 697.300413743 563.133567188 c 0,66,67
 900.360946746 536.875739645 900.360946746 536.875739645 1164 523 c 1,68,-1
 1164 317 l 1,69,70
 750.540378863 327.692921236 750.540378863 327.692921236 350 443 c 0,71,72
 338 446 338 446 324.5 446 c 128,-1,73
 311 446 311 446 296 440 c 0,74,75
 264.114754098 427.245901639 264.114754098 427.245901639 250 397 c 0,0,1
1296 315 m 1,76,-1
 1296 516 l 1,77,78
 1437 514 1437 514 1496.5 490 c 128,-1,79
 1556 466 1556 466 1556 413 c 128,-1,80
 1556 360 1556 360 1494.5 338 c 128,-1,81
 1433 316 1433 316 1313 315 c 1,82,-1
 1296 315 l 1,76,-1
1164 931 m 1,83,84
 983 944 983 944 920.5 965.5 c 128,-1,85
 858 987 858 987 858 1036.5 c 128,-1,86
 858 1086 858 1086 938 1105 c 128,-1,87
 1018 1124 1018 1124 1164 1124 c 1,88,-1
 1164 931 l 1,83,84
EndSplineSet
EndChar

StartChar: percent
Encoding: 37 37 8
Width: 2655
GlyphClass: 2
Flags: W
LayerCount: 2
Fore
SplineSet
887 -82 m 2,0,-1
 1033 -82 l 2,1,2
 1067 -82 1067 -82 1097 -63 c 128,-1,3
 1127 -44 1127 -44 1141 -12 c 2,4,-1
 1795 1466 l 2,5,6
 1800 1476 1800 1476 1800 1491.5 c 128,-1,7
 1800 1507 1800 1507 1785.5 1521.5 c 128,-1,8
 1771 1536 1771 1536 1749 1536 c 2,9,-1
 1604 1536 l 2,10,11
 1569 1536 1569 1536 1539 1516.5 c 128,-1,12
 1509 1497 1509 1497 1496 1466 c 2,13,-1
 841 -12 l 2,14,15
 837 -22 837 -22 836.5 -37.5 c 128,-1,16
 836 -53 836 -53 850.5 -67.5 c 128,-1,17
 865 -82 865 -82 887 -82 c 2,0,-1
578 734 m 128,-1,19
 488 734 488 734 441.5 809.5 c 128,-1,20
 395 885 395 885 395 1025.5 c 128,-1,21
 395 1166 395 1166 442 1244.5 c 128,-1,22
 489 1323 489 1323 578 1323 c 128,-1,23
 667 1323 667 1323 714 1244.5 c 128,-1,24
 761 1166 761 1166 761 1025 c 128,-1,25
 761 884 761 884 714.5 809 c 128,-1,18
 668 734 668 734 578 734 c 128,-1,19
578 560 m 128,-1,27
 686 560 686 560 773 600 c 128,-1,28
 860 640 860 640 914 706.5 c 0,29,30
 1026 844.425925926 1026 844.425925926 1026 1031 c 0,31,32
 1026 1215.68224299 1026 1215.68224299 915.5 1352 c 0,33,34
 862 1418 862 1418 774.5 1457.5 c 128,-1,35
 687 1497 687 1497 578 1497 c 128,-1,36
 469 1497 469 1497 381.5 1457.5 c 128,-1,37
 294 1418 294 1418 240 1352 c 0,38,39
 129 1216.33333333 129 1216.33333333 129 1031 c 0,40,41
 129 843.770642202 129 843.770642202 241.5 706.5 c 0,42,43
 296 640 296 640 383 600 c 128,-1,26
 470 560 470 560 578 560 c 128,-1,27
2074 134 m 128,-1,45
 1984 134 1984 134 1937.5 209.5 c 128,-1,46
 1891 285 1891 285 1891 426 c 128,-1,47
 1891 567 1891 567 1938.5 645 c 128,-1,48
 1986 723 1986 723 2074.5 723 c 128,-1,49
 2163 723 2163 723 2210 645 c 128,-1,50
 2257 567 2257 567 2257 426 c 128,-1,51
 2257 285 2257 285 2210.5 209.5 c 128,-1,44
 2164 134 2164 134 2074 134 c 128,-1,45
2074 -40 m 128,-1,53
 2181 -40 2181 -40 2268.5 0 c 128,-1,54
 2356 40 2356 40 2410.5 107 c 0,55,56
 2523 245.302752294 2523 245.302752294 2523 431 c 0,57,58
 2523 616.333333333 2523 616.333333333 2412 752 c 0,59,60
 2358 818 2358 818 2270.5 857.5 c 128,-1,61
 2183 897 2183 897 2074 897 c 128,-1,62
 1965 897 1965 897 1877.5 857.5 c 128,-1,63
 1790 818 1790 818 1736 752 c 0,64,65
 1625 616.333333333 1625 616.333333333 1625 431 c 0,66,67
 1625 245.302752294 1625 245.302752294 1737.5 107 c 0,68,69
 1792 40 1792 40 1879.5 0 c 128,-1,52
 1967 -40 1967 -40 2074 -40 c 128,-1,53
EndSplineSet
EndChar

StartChar: ampersand
Encoding: 38 38 9
Width: 3157
GlyphClass: 2
Flags: W
LayerCount: 2
Fore
SplineSet
2601 -41 m 0,0,1
 2782 -41 2782 -41 2950 -2 c 0,2,3
 2981 6 2981 6 3001 31.5 c 128,-1,4
 3021 57 3021 57 3020 88 c 2,5,-1
 3019 232 l 2,6,7
 3018 258 3018 258 3002.5 274 c 128,-1,8
 2987 290 2987 290 2971 290 c 128,-1,9
 2955 290 2955 290 2945 287 c 0,10,11
 2818 254 2818 254 2707 254 c 0,12,13
 2459 254 2459 254 2459 433 c 2,14,-1
 2459 577 l 2,15,16
 2459 592 2459 592 2469 602 c 128,-1,17
 2479 612 2479 612 2494 612 c 2,18,-1
 2866 612 l 2,19,20
 2898 612 2898 612 2920 634 c 128,-1,21
 2942 656 2942 656 2942 688 c 2,22,-1
 2942 801 l 2,23,24
 2942 833 2942 833 2920 854.5 c 128,-1,25
 2898 876 2898 876 2866 876 c 2,26,-1
 2494 876 l 2,27,28
 2479 876 2479 876 2469 886.5 c 128,-1,29
 2459 897 2459 897 2459 912 c 2,30,-1
 2459 1348 l 2,31,32
 2459 1380 2459 1380 2437 1401.5 c 128,-1,33
 2415 1423 2415 1423 2383 1423 c 2,34,-1
 1989 1423 l 2,35,36
 1957 1423 1957 1423 1936 1402 c 128,-1,37
 1915 1381 1915 1381 1913 1348 c 2,38,-1
 1885 912 l 2,39,40
 1885 897 1885 897 1874.5 886.5 c 128,-1,41
 1864 876 1864 876 1849 876 c 2,42,-1
 1079 876 l 2,43,44
 952.25 876 952.25 876 907.125 895 c 128,-1,45
 862 914 862 914 845 933 c 0,46,47
 817 964.294117647 817 964.294117647 817 1019 c 0,48,49
 817 1022 817 1022 817 1025 c 0,50,51
 818.987149071 1114.42170819 818.987149071 1114.42170819 936.5 1142.5 c 0,52,53
 1030.66666667 1165 1030.66666667 1165 1121.33333333 1165 c 128,-1,54
 1212 1165 1212 1165 1268 1162.5 c 128,-1,55
 1324 1160 1324 1160 1370 1156 c 128,-1,56
 1416 1152 1416 1152 1463 1146.5 c 128,-1,57
 1510 1141 1510 1141 1540 1137.5 c 128,-1,58
 1570 1134 1570 1134 1596.5 1130 c 128,-1,59
 1623 1126 1623 1126 1630.5 1124.5 c 128,-1,60
 1638 1123 1638 1123 1648 1123 c 0,61,62
 1686 1123 1686 1123 1692 1167 c 2,63,-1
 1714 1352 l 2,64,65
 1715 1357 1715 1357 1715 1365 c 0,66,67
 1715 1408 1715 1408 1657 1422.5 c 128,-1,68
 1599 1437 1599 1437 1434 1456 c 128,-1,69
 1269 1475 1269 1475 1097 1475 c 128,-1,70
 925 1475 925 1475 745.5 1452.5 c 128,-1,71
 566 1430 566 1430 428.5 1380 c 0,72,73
 147 1277.63636364 147 1277.63636364 147 1036 c 0,74,75
 147 904 147 904 228.5 828.5 c 128,-1,76
 310 753 310 753 463 737 c 1,77,78
 309 718 309 718 230 638 c 128,-1,79
 151 558 151 558 151 439.5 c 128,-1,80
 151 321 151 321 199 242 c 128,-1,81
 247 163 247 163 332.5 110 c 128,-1,82
 418 57 418 57 546 23 c 0,83,84
 783.176470588 -40 783.176470588 -40 1163 -40 c 0,85,86
 1644 -40 1644 -40 2064 101 c 1,87,88
 2254 -41 2254 -41 2601 -41 c 0,0,1
1167 269 m 0,89,90
 1014.17391304 269 1014.17391304 269 964.086956522 287 c 128,-1,91
 914 305 914 305 884 323 c 0,92,93
 821 360.8 821 360.8 821 438 c 0,94,95
 821 444 821 444 821 461.5 c 128,-1,96
 821 479 821 479 826.5 501 c 128,-1,97
 832 523 832 523 848 544.5 c 128,-1,98
 864 566 864 566 892 580 c 0,99,100
 956 612 956 612 1043 612 c 0,101,102
 1446 612 1446 612 1849 612 c 0,103,104
 1864 612 1864 612 1874.5 602 c 128,-1,105
 1885 592 1885 592 1885 577 c 2,106,-1
 1885 475 l 2,107,108
 1885 417 1885 417 1896 360 c 1,109,110
 1571 269 1571 269 1167 269 c 0,89,90
EndSplineSet
EndChar

StartChar: quotesingle
Encoding: 39 39 10
Width: 750
GlyphClass: 2
Flags: W
LayerCount: 2
Fore
SplineSet
334 689 m 2,0,-1
 413 689 l 2,1,2
 472 689 472 689 485 764 c 1,3,-1
 613 1443 l 1,4,5
 614 1475 614 1475 592 1498 c 128,-1,6
 570 1521 570 1521 538 1521 c 2,7,-1
 207 1521 l 2,8,9
 175 1521 175 1521 153 1498 c 128,-1,10
 131 1475 131 1475 132 1443 c 1,11,-1
 261 764 l 1,12,13
 274 689 274 689 334 689 c 2,0,-1
EndSplineSet
EndChar

StartChar: parenleft
Encoding: 40 40 11
Width: 1003
GlyphClass: 2
Flags: W
LayerCount: 2
Fore
SplineSet
800 -143 m 0,0,1
 803 -143 803 -143 818.5 -143 c 128,-1,2
 834 -143 834 -143 855.5 -121.5 c 128,-1,3
 877 -100 877 -100 877 -73 c 2,4,-1
 877 15 l 2,5,6
 877 65 877 65 861.5 86.5 c 128,-1,7
 846 108 846 108 798 132 c 1,8,9
 697 185 697 185 643.5 338 c 128,-1,10
 590 491 590 491 590 697 c 128,-1,11
 590 903 590 903 645 1059.5 c 128,-1,12
 700 1216 700 1216 798 1266 c 0,13,14
 846 1291 846 1291 861.5 1312.5 c 128,-1,15
 877 1334 877 1334 877 1384 c 2,16,-1
 877 1470 l 2,17,18
 877 1497 877 1497 855.5 1518.5 c 128,-1,19
 834 1540 834 1540 818.5 1540 c 2,20,-1
 800 1540 l 1,21,22
 640 1522 640 1522 511.5 1444 c 128,-1,23
 383 1366 383 1366 303 1249.5 c 0,24,25
 139 1010.675 139 1010.675 139 698 c 0,26,27
 139 306.227272727 139 306.227272727 375 59.5 c 0,28,29
 540 -113 540 -113 800 -143 c 0,0,1
EndSplineSet
EndChar

StartChar: parenright
Encoding: 41 41 12
Width: 1006
GlyphClass: 2
Flags: W
LayerCount: 2
Fore
SplineSet
204 -143 m 1,0,1
 581.730092431 -105.515334339 581.730092431 -105.515334339 760.5 242 c 0,2,3
 865 445.140186916 865 445.140186916 865 698 c 128,-1,4
 865 950.859813084 865 950.859813084 760.5 1154 c 0,5,6
 647.737882298 1373.201126 647.737882298 1373.201126 444.5 1472.5 c 0,7,8
 335 1526 335 1526 204 1540 c 0,9,10
 201 1540 201 1540 193 1540 c 128,-1,11
 185 1540 185 1540 171.5 1534 c 128,-1,12
 158 1528 158 1528 148.5 1518.5 c 0,13,14
 127 1497 127 1497 127 1470 c 2,15,-1
 127 1384 l 2,16,17
 127 1334 127 1334 142.5 1312 c 128,-1,18
 158 1290 158 1290 206 1266 c 0,19,20
 304 1217 304 1217 359 1062.5 c 128,-1,21
 414 908 414 908 414 698 c 128,-1,22
 414 488 414 488 359 334.5 c 128,-1,23
 304 181 304 181 206 132 c 0,24,25
 158 109 158 109 142.5 87 c 128,-1,26
 127 65 127 65 127 15 c 2,27,-1
 127 -73 l 2,28,29
 127 -110.878787879 127 -110.878787879 163.5 -133 c 0,30,31
 180 -143 180 -143 190.5 -143 c 2,32,-1
 204 -143 l 1,0,1
EndSplineSet
EndChar

StartChar: asterisk
Encoding: 42 42 13
Width: 1320
GlyphClass: 2
Flags: W
LayerCount: 2
Fore
SplineSet
323.5 439 m 128,-1,1
 357 407 357 407 394.5 407 c 0,2,3
 466.407407407 407 466.407407407 407 497 466 c 1,4,-1
 657 788 l 1,5,-1
 816 466 l 1,6,7
 860.988528429 415.84058712 860.988528429 415.84058712 900.796296296 407 c 1,8,9
 955 407 955 407 989 439.5 c 128,-1,10
 1023 472 1023 472 1023 506 c 128,-1,11
 1023 540 1023 540 1004 575 c 128,-1,12
 985 610 985 610 946.5 654.5 c 128,-1,13
 908 699 908 699 881 729 c 128,-1,14
 854 759 854 759 807.5 805.5 c 128,-1,15
 761 852 761 852 756 858 c 1,16,-1
 1109 936 l 2,17,18
 1145 944 1145 944 1169.5 972.5 c 128,-1,19
 1194 1001 1194 1001 1194 1041.5 c 128,-1,20
 1194 1082 1194 1082 1163.5 1116.5 c 128,-1,21
 1133 1151 1133 1151 1101.5 1151 c 128,-1,22
 1070 1151 1070 1151 1035.5 1138 c 128,-1,23
 1001 1125 1001 1125 954 1101.5 c 128,-1,24
 907 1078 907 1078 869.5 1058 c 128,-1,25
 832 1038 832 1038 782 1010.5 c 128,-1,26
 732 983 732 983 717 975 c 1,27,28
 721 1004 721 1004 735 1089.5 c 0,29,30
 763 1260.5 763 1260.5 763 1348 c 0,31,32
 763 1392 763 1392 731.5 1421.5 c 128,-1,33
 700 1451 700 1451 657.5 1451 c 128,-1,34
 615 1451 615 1451 581.5 1424 c 128,-1,35
 548 1397 548 1397 548 1348 c 128,-1,36
 548 1299 548 1299 555 1238 c 0,37,38
 563.473684211 1164.15789474 563.473684211 1164.15789474 595 975 c 1,39,40
 585 980 585 980 530.5 1010.5 c 128,-1,41
 476 1041 476 1041 442 1059 c 128,-1,42
 408 1077 408 1077 359 1101.5 c 0,43,44
 260 1151 260 1151 220 1151 c 128,-1,45
 180 1151 180 1151 149.5 1116.5 c 128,-1,46
 119 1082 119 1082 119 1041.5 c 128,-1,47
 119 1001 119 1001 143.5 972.5 c 128,-1,48
 168 944 168 944 204 936 c 2,49,-1
 557 858 l 1,50,51
 549 849 549 849 520.5 820.5 c 128,-1,52
 492 792 492 792 472 771.5 c 128,-1,53
 452 751 452 751 422 719.5 c 128,-1,54
 392 688 392 688 371.5 662 c 128,-1,55
 351 636 351 636 331 608 c 0,56,57
 290 550.6 290 550.6 290 510.8 c 128,-1,0
 290 471 290 471 323.5 439 c 128,-1,1
EndSplineSet
EndChar

StartChar: plus
Encoding: 43 43 14
Width: 1284
GlyphClass: 2
Flags: W
LayerCount: 2
Fore
SplineSet
564 97 m 2,0,-1
 722 97 l 2,1,2
 754 97 754 97 775 118.5 c 128,-1,3
 796 140 796 140 796 172 c 2,4,-1
 796 444 l 2,5,6
 796 459 796 459 806 470 c 128,-1,7
 816 481 816 481 831 481 c 2,8,-1
 1080 481 l 2,9,10
 1112 481 1112 481 1133 502 c 128,-1,11
 1154 523 1154 523 1154 555 c 2,12,-1
 1154 696 l 2,13,14
 1154 728 1154 728 1133 749 c 128,-1,15
 1112 770 1112 770 1080 770 c 2,16,-1
 831 770 l 2,17,18
 816 770 816 770 806 781 c 128,-1,19
 796 792 796 792 796 807 c 2,20,-1
 796 1080 l 2,21,22
 796 1112 796 1112 775 1134 c 128,-1,23
 754 1156 754 1156 722 1156 c 2,24,-1
 564 1156 l 2,25,26
 532 1156 532 1156 511 1134 c 128,-1,27
 490 1112 490 1112 490 1080 c 2,28,-1
 490 807 l 2,29,30
 490 792 490 792 479.5 781 c 128,-1,31
 469 770 469 770 454 770 c 2,32,-1
 202 770 l 2,33,34
 170 770 170 770 149 749 c 128,-1,35
 128 728 128 728 128 696 c 2,36,-1
 128 555 l 2,37,38
 128 523 128 523 149 502 c 128,-1,39
 170 481 170 481 202 481 c 2,40,-1
 454 481 l 2,41,42
 469 481 469 481 479.5 470 c 128,-1,43
 490 459 490 459 490 444 c 2,44,-1
 490 172 l 2,45,46
 490 140 490 140 511 118.5 c 128,-1,47
 532 97 532 97 564 97 c 2,0,-1
EndSplineSet
EndChar

StartChar: comma
Encoding: 44 44 15
Width: 648
GlyphClass: 4
Flags: W
LayerCount: 2
Fore
SplineSet
131 -291 m 2,0,1
 131 -337 131 -337 203.403846154 -337 c 0,2,3
 240.807692308 -337 240.807692308 -337 303.403846154 -306 c 128,-1,4
 366 -275 366 -275 413 -231.5 c 0,5,6
 518 -134.319148936 518 -134.319148936 518 36 c 2,7,-1
 518 268 l 2,8,9
 518 300 518 300 495.5 322.5 c 128,-1,10
 473 345 473 345 441 345 c 2,11,-1
 191 345 l 2,12,13
 131 345 131 345 131 270 c 2,14,-1
 131 67 l 2,15,16
 131 38 131 38 147 19 c 128,-1,17
 163 0 163 0 191 0 c 2,18,-1
 269 0 l 2,19,20
 286 0 286 0 286 -27.5 c 128,-1,21
 286 -55 286 -55 266 -99 c 0,22,23
 241 -154 241 -154 173 -186 c 0,24,25
 143.409375 -199.925 143.409375 -199.925 137.2046875 -213.4625 c 128,-1,26
 131 -227 131 -227 131 -246 c 2,27,-1
 131 -291 l 2,0,1
EndSplineSet
EndChar

StartChar: hyphen
Encoding: 45 45 16
Width: 1059
GlyphClass: 2
Flags: W
LayerCount: 2
Fore
SplineSet
206 422 m 2,0,-1
 853 422 l 2,1,2
 885 422 885 422 906 443 c 128,-1,3
 927 464 927 464 927 496 c 2,4,-1
 927 674 l 2,5,6
 927 706 927 706 906 727 c 128,-1,7
 885 748 885 748 853 748 c 2,8,-1
 206 748 l 2,9,10
 174 748 174 748 152.5 727 c 128,-1,11
 131 706 131 706 131 674 c 2,12,-1
 131 496 l 2,13,14
 131 464 131 464 152.5 443 c 128,-1,15
 174 422 174 422 206 422 c 2,0,-1
EndSplineSet
EndChar

StartChar: period
Encoding: 46 46 17
Width: 625
GlyphClass: 2
Flags: W
LayerCount: 2
Fore
SplineSet
206 0 m 2,0,-1
 419 0 l 2,1,2
 451 0 451 0 473.5 22.5 c 128,-1,3
 496 45 496 45 496 77 c 2,4,-1
 496 265 l 2,5,6
 496 297 496 297 473.5 319.5 c 128,-1,7
 451 342 451 342 419 342 c 2,8,-1
 206 342 l 2,9,10
 174 342 174 342 151.5 319.5 c 128,-1,11
 129 297 129 297 129 265 c 2,12,-1
 129 77 l 2,13,14
 129 45 129 45 151.5 22.5 c 128,-1,15
 174 0 174 0 206 0 c 2,0,-1
EndSplineSet
EndChar

StartChar: slash
Encoding: 47 47 18
Width: 1400
GlyphClass: 2
Flags: W
LayerCount: 2
Fore
SplineSet
524.5 -219 m 128,-1,1
 535 -219 535 -219 562.5 -211.5 c 128,-1,2
 590 -204 590 -204 594 -194 c 1,3,4
 603 -194 603 -194 836.5 402 c 128,-1,5
 1070 998 1070 998 1083.5 1035.5 c 128,-1,6
 1097 1073 1097 1073 1111.5 1114 c 128,-1,7
 1126 1155 1126 1155 1146.5 1211.5 c 128,-1,8
 1167 1268 1167 1268 1191 1336.5 c 128,-1,9
 1215 1405 1215 1405 1235 1464 c 0,10,11
 1282 1602.65 1282 1602.65 1282 1610.825 c 128,-1,12
 1282 1619 1282 1619 1281 1619 c 1,13,14
 1286 1630 1286 1630 1118.5 1638.5 c 128,-1,15
 951 1647 951 1647 913.5 1647 c 128,-1,16
 876 1647 876 1647 844.5 1639.5 c 128,-1,17
 813 1632 813 1632 810 1627.5 c 128,-1,18
 807 1623 807 1623 684.5 1311 c 128,-1,19
 562 999 562 999 438.5 682.5 c 128,-1,20
 315 366 315 366 314 364 c 128,-1,21
 313 362 313 362 218.5 96.5 c 128,-1,22
 124 -169 124 -169 123 -198 c 1,23,-1
 124 -200 l 1,24,25
 119.039772727 -209.920454545 119.039772727 -209.920454545 316.519886364 -214.460227273 c 128,-1,0
 514 -219 514 -219 524.5 -219 c 128,-1,1
EndSplineSet
EndChar

StartChar: zero
Encoding: 48 48 19
Width: 2320
GlyphClass: 2
Flags: W
LayerCount: 2
Fore
SplineSet
1348 358.5 m 0,0,1
 1280 323 1280 323 1163.5 323 c 128,-1,2
 1047 323 1047 323 977 358.5 c 0,3,4
 833 431.528571429 833 431.528571429 833 723 c 0,5,6
 833 941 833 941 911 1029 c 128,-1,7
 989 1117 989 1117 1163 1117 c 128,-1,8
 1337 1117 1337 1117 1411.5 1029.5 c 128,-1,9
 1486 942 1486 942 1486 723 c 0,10,11
 1486 430.544117647 1486 430.544117647 1348 358.5 c 0,0,1
942.5 -32.5 m 128,-1,13
 1045 -41 1045 -41 1163.5 -41 c 128,-1,14
 1282 -41 1282 -41 1384 -32.5 c 128,-1,15
 1486 -24 1486 -24 1592 -1 c 128,-1,16
 1698 22 1698 22 1783 58.5 c 128,-1,17
 1868 95 1868 95 1944 154.5 c 128,-1,18
 2020 214 2020 214 2071.5 292 c 0,19,20
 2182 459.359223301 2182 459.359223301 2182 723 c 0,21,22
 2182 1078.25827815 2182 1078.25827815 1944.5 1267 c 0,23,24
 1682.76666667 1475 1682.76666667 1475 1164 1475 c 0,25,26
 319.028985507 1475 319.028985507 1475 167 950.5 c 0,27,28
 137 847 137 847 137 718 c 128,-1,29
 137 589 137 589 167 479.5 c 128,-1,30
 197 370 197 370 249 292 c 128,-1,31
 301 214 301 214 378 154.5 c 128,-1,32
 455 95 455 95 541 58.5 c 128,-1,33
 627 22 627 22 733.5 -1 c 128,-1,12
 840 -24 840 -24 942.5 -32.5 c 128,-1,13
EndSplineSet
EndChar

StartChar: one
Encoding: 49 49 20
Width: 1307
GlyphClass: 2
Flags: W
LayerCount: 2
Fore
SplineSet
516 0 m 2,0,-1
 1071 0 l 2,1,2
 1103 0 1103 0 1125 22 c 128,-1,3
 1147 44 1147 44 1147 76 c 2,4,-1
 1147 1363 l 2,5,6
 1147 1395 1147 1395 1125 1416.5 c 128,-1,7
 1103 1438 1103 1438 1071 1438 c 1,8,-1
 192 1358 l 1,9,10
 160 1358 160 1358 138.5 1336.5 c 128,-1,11
 117 1315 117 1315 117 1283 c 2,12,-1
 117 1083 l 2,13,14
 117 1051 117 1051 138.5 1029.5 c 128,-1,15
 160 1008 160 1008 192 1008 c 1,16,-1
 404 1028 l 1,17,18
 419 1028 419 1028 430 1017 c 128,-1,19
 441 1006 441 1006 441 991 c 2,20,-1
 441 76 l 2,21,22
 441 44 441 44 462.5 22 c 128,-1,23
 484 0 484 0 516 0 c 2,0,-1
EndSplineSet
EndChar

StartChar: two
Encoding: 50 50 21
Width: 2202
GlyphClass: 2
Flags: W
LayerCount: 2
Fore
SplineSet
148 207 m 1,0,-1
 136 93 l 1,1,2
 136 51 136 51 163 26 c 128,-1,3
 190 1 190 1 238 1 c 2,4,-1
 1928 1 l 2,5,6
 1959 1 1959 1 1972 17 c 128,-1,7
 1985 33 1985 33 1985 69 c 2,8,-1
 1985 242 l 2,9,10
 1985 306 1985 306 1929 306 c 2,11,-1
 902 306 l 2,12,13
 846 306 846 306 846 350 c 0,14,15
 846 382.272727273 846 382.272727273 856 388.636363636 c 0,16,17
 967.391304348 459.52173913 967.391304348 459.52173913 1286.69565217 508.260869565 c 128,-1,18
 1606 557 1606 557 1714 591 c 0,19,20
 1931 661 1931 661 1997 809 c 0,21,22
 2030 883 2030 883 2030 966.5 c 128,-1,23
 2030 1050 2030 1050 2014 1110 c 128,-1,24
 1998 1170 1998 1170 1970 1217 c 128,-1,25
 1942 1264 1942 1264 1897.5 1301.5 c 128,-1,26
 1853 1339 1853 1339 1802 1365.5 c 128,-1,27
 1751 1392 1751 1392 1682 1412 c 128,-1,28
 1613 1432 1613 1432 1543 1444 c 128,-1,29
 1473 1456 1473 1456 1384.5 1463.5 c 0,30,31
 1242.67307692 1475.51923077 1242.67307692 1475.51923077 1051.84467456 1475.51923077 c 0,32,33
 1044.21153846 1475.51923077 1044.21153846 1475.51923077 1036.5 1475.5 c 0,34,35
 836 1475 836 1475 595.5 1431 c 128,-1,36
 355 1387 355 1387 241 1336 c 0,37,38
 203 1320 203 1320 203 1267 c 0,39,40
 203 1247.93939394 203 1247.93939394 228 1175.96969697 c 128,-1,41
 253 1104 253 1104 269 1074 c 1,42,43
 276 1044 276 1044 329 1044 c 0,44,45
 345 1044 345 1044 376 1053.5 c 128,-1,46
 407 1063 407 1063 511.5 1086.5 c 128,-1,47
 616 1110 616 1110 803.5 1137.5 c 128,-1,48
 991 1165 991 1165 1109 1165 c 128,-1,49
 1227 1165 1227 1165 1292 1158 c 128,-1,50
 1357 1151 1357 1151 1392 1140 c 128,-1,51
 1427 1129 1427 1129 1446 1110.5 c 0,52,53
 1474 1083.23684211 1474 1083.23684211 1474 1039.11842105 c 128,-1,54
 1474 995 1474 995 1432 969 c 128,-1,55
 1390 943 1390 943 1318 929 c 128,-1,56
 1246 915 1246 915 1152 904 c 128,-1,57
 1058 893 1058 893 953 876 c 128,-1,58
 848 859 848 859 741.5 834 c 128,-1,59
 635 809 635 809 535 759.5 c 128,-1,60
 435 710 435 710 355 641 c 128,-1,61
 275 572 275 572 219.5 460.5 c 128,-1,62
 164 349 164 349 148 207 c 1,0,-1
EndSplineSet
EndChar

StartChar: three
Encoding: 51 51 22
Width: 2208
GlyphClass: 2
Flags: W
LayerCount: 2
Fore
SplineSet
1392 438 m 0,0,1
 1392 269 1392 269 1041 269 c 0,2,3
 789.866666667 269 789.866666667 269 357 344.5 c 0,4,5
 314 352 314 352 276.5 359.5 c 128,-1,6
 239 367 239 367 232 368.5 c 128,-1,7
 225 370 225 370 215 370 c 0,8,9
 177 370 177 370 171 326 c 2,10,-1
 148 142 l 2,11,12
 147 137 147 137 147 129 c 0,13,14
 147 86 147 86 200 72 c 1,15,16
 302 42 302 42 582.5 1 c 128,-1,17
 863 -40 863 -40 1070.5 -40 c 128,-1,18
 1278 -40 1278 -40 1458 -16.5 c 128,-1,19
 1638 7 1638 7 1777 58.5 c 0,20,21
 2062 164.09352518 2062 164.09352518 2062 413 c 0,22,23
 2062 684.757961783 2062 684.757961783 1746 723 c 1,24,25
 1897 738 1897 738 1977.5 814 c 128,-1,26
 2058 890 2058 890 2058 1006 c 128,-1,27
 2058 1122 2058 1122 2010.5 1199 c 128,-1,28
 1963 1276 1963 1276 1877 1327.5 c 128,-1,29
 1791 1379 1791 1379 1663.5 1412 c 0,30,31
 1423.95454545 1474 1423.95454545 1474 1047 1474 c 0,32,33
 873 1474 873 1474 586.5 1433 c 128,-1,34
 300 1392 300 1392 200 1362 c 1,35,36
 147 1348 147 1348 147 1305 c 0,37,38
 147 1297 147 1297 148 1292 c 2,39,-1
 171 1108 l 2,40,41
 177 1064 177 1064 216 1064 c 0,42,43
 226 1064 226 1064 233 1065.5 c 128,-1,44
 240 1067 240 1067 277 1074.5 c 128,-1,45
 314 1082 314 1082 357 1089.5 c 128,-1,46
 400 1097 400 1097 464.5 1108 c 128,-1,47
 529 1119 529 1119 598.5 1128.5 c 128,-1,48
 668 1138 668 1138 742.5 1146.5 c 0,49,50
 904.647058824 1165 904.647058824 1165 993.323529412 1165 c 128,-1,51
 1082 1165 1082 1165 1107 1164.5 c 128,-1,52
 1132 1164 1132 1164 1171.5 1160.5 c 128,-1,53
 1211 1157 1211 1157 1237.5 1151 c 128,-1,54
 1264 1145 1264 1145 1295 1133.5 c 128,-1,55
 1326 1122 1326 1122 1344.5 1105.5 c 0,56,57
 1388 1066.7027027 1388 1066.7027027 1388 1005 c 0,58,59
 1388 912.789473684 1388 912.789473684 1313.5 877.5 c 0,60,61
 1251.22222222 848 1251.22222222 848 1124 848 c 2,62,-1
 888 848 l 2,63,64
 856 848 856 848 856 805 c 2,65,-1
 856 640 l 2,66,67
 856 597 856 597 888 597 c 2,68,-1
 1124 597 l 2,69,70
 1251.03703704 597 1251.03703704 597 1298.01851852 575.5 c 128,-1,71
 1345 554 1345 554 1362.5 533 c 0,72,73
 1392 497.6 1392 497.6 1392 438 c 0,0,1
EndSplineSet
EndChar

StartChar: four
Encoding: 52 52 23
Width: 2076
GlyphClass: 2
Flags: W
LayerCount: 2
Fore
SplineSet
1311 -151 m 2,0,-1
 1629 -151 l 2,1,2
 1661 -151 1661 -151 1683 -129 c 128,-1,3
 1705 -107 1705 -107 1705 -75 c 2,4,-1
 1705 172 l 1,5,-1
 1868 172 l 2,6,7
 1900 172 1900 172 1921.5 193.5 c 128,-1,8
 1943 215 1943 215 1943 247 c 2,9,-1
 1943 456 l 2,10,11
 1943 488 1943 488 1921.5 509.5 c 128,-1,12
 1900 531 1900 531 1868 531 c 2,13,-1
 1705 531 l 1,14,-1
 1705 1363 l 2,15,16
 1705 1395 1705 1395 1683 1416.5 c 128,-1,17
 1661 1438 1661 1438 1629 1438 c 2,18,-1
 1311 1438 l 2,19,20
 1279 1438 1279 1438 1257.5 1416.5 c 128,-1,21
 1236 1395 1236 1395 1236 1363 c 2,22,-1
 1236 531 l 1,23,-1
 909 531 l 2,24,25
 895 531 895 531 884 540.5 c 128,-1,26
 873 550 873 550 873 558.5 c 0,27,28
 873 567 873 567 874 568 c 2,29,-1
 1051 1363 l 2,30,31
 1052 1366 1052 1366 1052 1383 c 0,32,33
 1052 1400 1052 1400 1029 1419 c 128,-1,34
 1006 1438 1006 1438 975 1438 c 2,35,-1
 525 1438 l 2,36,37
 469 1438 469 1438 449 1363 c 1,38,-1
 126 247 l 2,39,40
 124 239 124 239 124 224 c 0,41,42
 124 209 124 209 147.5 190.5 c 128,-1,43
 171 172 171 172 201 172 c 2,44,-1
 1236 172 l 1,45,-1
 1236 -75 l 2,46,47
 1236 -107 1236 -107 1257.5 -129 c 128,-1,48
 1279 -151 1279 -151 1311 -151 c 2,0,-1
EndSplineSet
EndChar

StartChar: five
Encoding: 53 53 24
Width: 2238
GlyphClass: 2
Flags: W
LayerCount: 2
Fore
SplineSet
195 327 m 2,0,-1
 171 129 l 1,1,2
 171 86 171 86 224 72 c 1,3,4
 323 43 323 43 604 2 c 128,-1,5
 885 -39 885 -39 1050 -40 c 1,6,-1
 1053 -40 l 2,7,8
 1568.24324324 -40 1568.24324324 -40 1805.5 57 c 0,9,10
 2004.40715995 138.321159316 2004.40715995 138.321159316 2068 275.5 c 0,11,12
 2103 351 2103 351 2103 442.5 c 128,-1,13
 2103 534 2103 534 2076.5 605.5 c 128,-1,14
 2050 677 2050 677 1987.5 739.5 c 128,-1,15
 1925 802 1925 802 1827.5 844 c 0,16,17
 1618.57142857 934 1618.57142857 934 1241 934 c 0,18,19
 1026 934 1026 934 834 863 c 1,20,-1
 831 1057 l 2,21,22
 831 1101 831 1101 847.5 1115 c 128,-1,23
 864 1129 864 1129 901 1129 c 2,24,-1
 1878 1126 l 2,25,26
 1917 1126 1917 1126 1922 1170 c 2,27,-1
 1946 1380 l 1,28,29
 1946 1438 1946 1438 1893 1438 c 2,30,-1
 234 1438 l 2,31,32
 185 1438 185 1438 164.5 1408 c 128,-1,33
 144 1378 144 1378 144 1318 c 1,34,-1
 208 680 l 2,35,36
 210 655 210 655 215 639.5 c 128,-1,37
 220 624 220 624 238.5 611 c 128,-1,38
 257 598 257 598 288 598 c 2,39,-1
 743 598 l 2,40,41
 827.162162162 598 827.162162162 598 899.5 648.5 c 128,-1,42
 971.837837838 699 971.837837838 699 1128 699 c 0,43,44
 1433 699 1433 699 1433 487 c 0,45,46
 1433 270 1433 270 1051 270 c 0,47,48
 727.866666667 270 727.866666667 270 299.5 360.5 c 0,49,50
 249.8 371 249.8 371 239 371 c 0,51,52
 201 371 201 371 195 327 c 2,0,-1
EndSplineSet
EndChar

StartChar: six
Encoding: 54 54 25
Width: 2320
GlyphClass: 2
Flags: W
LayerCount: 2
Fore
SplineSet
1681.5 891.5 m 128,-1,1
 1502 928 1502 928 1323 928 c 128,-1,2
 1144 928 1144 928 858 884 c 1,3,-1
 858 907 l 2,4,5
 858 1040.55263158 858 1040.55263158 930 1095.5 c 0,6,7
 970.118644068 1126.11685995 970.118644068 1126.11685995 1008.55932203 1135.55842997 c 128,-1,8
 1047 1145 1047 1145 1075 1150 c 128,-1,9
 1103 1155 1103 1155 1140.5 1157.5 c 0,10,11
 1208 1162 1208 1162 1295 1162 c 0,12,13
 1587 1162 1587 1162 1944 1069 c 0,14,15
 1956 1066 1956 1066 1966 1066 c 0,16,17
 2002 1066 2002 1066 2009 1108 c 1,18,-1
 2036 1298 l 2,19,20
 2037 1303 2037 1303 2037 1311 c 0,21,22
 2037 1352 2037 1352 1987 1365 c 1,23,24
 1886 1397 1886 1397 1642.5 1436 c 128,-1,25
 1399 1475 1399 1475 1169.5 1475 c 128,-1,26
 940 1475 940 1475 730.5 1428 c 128,-1,27
 521 1381 521 1381 389 1280.5 c 128,-1,28
 257 1180 257 1180 197.5 1031 c 128,-1,29
 138 882 138 882 138 688.5 c 128,-1,30
 138 495 138 495 213.5 359 c 128,-1,31
 289 223 289 223 427.5 136 c 0,32,33
 707.683908046 -40 707.683908046 -40 1180 -40 c 1,34,35
 1885.94949495 -40 1885.94949495 -40 2089 178.5 c 0,36,37
 2186 282.880434783 2186 282.880434783 2186 444 c 0,38,39
 2186 658.801843318 2186 658.801843318 1969.5 789.5 c 0,40,0
 1861 855 1861 855 1681.5 891.5 c 128,-1,1
1195 249 m 0,41,42
 937.361904762 249 937.361904762 249 878.5 380.5 c 0,43,44
 855 433 855 433 855 512 c 2,45,-1
 855 641 l 1,46,47
 1070 683 1070 683 1231 683 c 128,-1,48
 1392 683 1392 683 1454 631.5 c 128,-1,49
 1516 580 1516 580 1516 460 c 128,-1,50
 1516 340 1516 340 1437.5 294.5 c 128,-1,51
 1359 249 1359 249 1195 249 c 0,41,42
EndSplineSet
EndChar

StartChar: seven
Encoding: 55 55 26
Width: 1523
GlyphClass: 2
Flags: W
LayerCount: 2
Fore
SplineSet
460 0 m 2,0,-1
 973 0 l 2,1,2
 1005 0 1005 0 1025.5 21.5 c 128,-1,3
 1046 43 1046 43 1048 76 c 1,4,-1
 1413 1363 l 1,5,6
 1413 1395 1413 1395 1391 1416.5 c 128,-1,7
 1369 1438 1369 1438 1337 1438 c 2,8,-1
 182 1438 l 2,9,10
 150 1438 150 1438 128.5 1416.5 c 128,-1,11
 107 1395 107 1395 107 1363 c 2,12,-1
 107 1163 l 2,13,14
 107 1131 107 1131 128.5 1109 c 128,-1,15
 150 1087 150 1087 182 1087 c 2,16,-1
 647 1087 l 2,17,18
 662 1087 662 1087 672.5 1076.5 c 128,-1,19
 683 1066 683 1066 682 1051 c 1,20,-1
 385 76 l 1,21,22
 384 44 384 44 406 22 c 128,-1,23
 428 0 428 0 460 0 c 2,0,-1
EndSplineSet
EndChar

StartChar: eight
Encoding: 56 56 27
Width: 2266
GlyphClass: 2
Flags: W
LayerCount: 2
Fore
SplineSet
1141 -41 m 1,0,1
 1257 -41 1257 -41 1369 -32 c 128,-1,2
 1481 -23 1481 -23 1597 -3.5 c 128,-1,3
 1713 16 1713 16 1806 52.5 c 128,-1,4
 1899 89 1899 89 1973.5 140 c 0,5,6
 2130 247.134228188 2130 247.134228188 2130 437 c 0,7,8
 2130 572.64 2130 572.64 2026 660 c 0,9,10
 1933.86486486 737.393513514 1933.86486486 737.393513514 1785 789 c 1,11,12
 1880 823 1880 823 1956.5 904 c 128,-1,13
 2033 985 2033 985 2033 1064 c 128,-1,14
 2033 1143 2033 1143 2004 1200 c 128,-1,15
 1975 1257 1975 1257 1926.5 1297.5 c 128,-1,16
 1878 1338 1878 1338 1807.5 1369.5 c 128,-1,17
 1737 1401 1737 1401 1659.5 1420.5 c 128,-1,18
 1582 1440 1582 1440 1490.5 1452.5 c 0,19,20
 1325.8 1475 1325.8 1475 1134 1475 c 0,21,22
 205 1475 205 1475 205 1099 c 0,23,24
 205 915 205 915 487 797 c 1,25,26
 355.032850491 760.455250905 355.032850491 760.455250905 251.5 672 c 0,27,28
 139 575.883495146 139 575.883495146 139 440 c 0,29,30
 139 189.114649682 139 189.114649682 385.5 74.5 c 0,31,32
 633.904109589 -41 633.904109589 -41 1141 -41 c 1,0,1
1413.5 255 m 128,-1,34
 1329 205 1329 205 1137 205 c 128,-1,35
 945 205 945 205 858 267.5 c 128,-1,36
 771 330 771 330 771 467.5 c 128,-1,37
 771 605 771 605 837 671 c 1,38,39
 936 651 936 651 1029 637.5 c 128,-1,40
 1122 624 1122 624 1156 618.5 c 128,-1,41
 1190 613 1190 613 1242.5 602 c 128,-1,42
 1295 591 1295 591 1325.5 581 c 128,-1,43
 1356 571 1356 571 1393 554.5 c 128,-1,44
 1430 538 1430 538 1450 520 c 0,45,46
 1498 476.8 1498 476.8 1498 422 c 0,47,33
 1498 305 1498 305 1413.5 255 c 128,-1,34
1400 861 m 1,48,49
 1203 882 1203 882 1075 902.5 c 0,50,51
 810 944.94140625 810 944.94140625 810 1088 c 0,52,53
 810 1277 810 1277 1134 1277 c 0,54,55
 1278 1277 1278 1277 1368.5 1224.5 c 128,-1,56
 1459 1172 1459 1172 1459 1067 c 0,57,58
 1459 1016 1459 1016 1439 954 c 128,-1,59
 1419 892 1419 892 1400 861 c 1,48,49
EndSplineSet
EndChar

StartChar: nine
Encoding: 57 57 28
Width: 2305
GlyphClass: 2
Flags: W
LayerCount: 2
Fore
SplineSet
662 -1 m 128,-1,1
 905 -40 905 -40 1104 -40 c 128,-1,2
 1303 -40 1303 -40 1484.5 -9.5 c 128,-1,3
 1666 21 1666 21 1796.5 82.5 c 128,-1,4
 1927 144 1927 144 2008.5 241.5 c 0,5,6
 2166 429.920245399 2166 429.920245399 2166 765 c 0,7,8
 2166 998 2166 998 2033 1159.5 c 0,9,10
 1773.17647059 1475 1773.17647059 1475 1123 1475 c 1,11,12
 545.207207207 1475 545.207207207 1475 311.5 1321.5 c 0,13,14
 131 1202.94674556 131 1202.94674556 131 979 c 0,15,16
 131 764.41314554 131 764.41314554 340.5 639.5 c 0,17,18
 562.724409449 507 562.724409449 507 1038 507 c 0,19,20
 1163.73684211 507 1163.73684211 507 1300.36842105 529 c 128,-1,21
 1437 551 1437 551 1445 552 c 1,22,-1
 1445 529 l 2,23,24
 1445 413.833333333 1445 413.833333333 1394 360 c 0,25,26
 1355.67669173 319.547619048 1355.67669173 319.547619048 1315.33834586 306.773809524 c 128,-1,27
 1275 294 1275 294 1245 288.5 c 128,-1,28
 1215 283 1215 283 1173.5 279.5 c 0,29,30
 1108.28571429 274 1108.28571429 274 1002 274 c 0,31,32
 712 274 712 274 359 366 c 0,33,34
 347 369 347 369 337 369 c 0,35,36
 301 369 301 369 295 328 c 2,37,-1
 268 138 l 2,38,39
 267 133 267 133 267 124 c 0,40,41
 267 84 267 84 316 70 c 1,42,0
 419 38 419 38 662 -1 c 128,-1,1
1448 794 m 1,43,44
 1233 752 1233 752 1072.5 752 c 128,-1,45
 912 752 912 752 849.5 803.5 c 128,-1,46
 787 855 787 855 787 975.5 c 128,-1,47
 787 1096 787 1096 865.5 1141.5 c 128,-1,48
 944 1187 944 1187 1108 1187 c 0,49,50
 1365.97169811 1187 1365.97169811 1187 1424.5 1055 c 0,51,52
 1448 1002 1448 1002 1448 924 c 2,53,-1
 1448 794 l 1,43,44
EndSplineSet
EndChar

StartChar: colon
Encoding: 58 58 29
Width: 670
GlyphClass: 2
Flags: W
LayerCount: 2
Fore
SplineSet
228 0 m 2,0,-1
 441 0 l 2,1,2
 473 0 473 0 495.5 22.5 c 128,-1,3
 518 45 518 45 518 77 c 2,4,-1
 518 265 l 2,5,6
 518 297 518 297 495.5 319.5 c 128,-1,7
 473 342 473 342 441 342 c 2,8,-1
 228 342 l 2,9,10
 196 342 196 342 173.5 319.5 c 128,-1,11
 151 297 151 297 151 265 c 2,12,-1
 151 77 l 2,13,14
 151 45 151 45 173.5 22.5 c 128,-1,15
 196 0 196 0 228 0 c 2,0,-1
228 671 m 2,16,-1
 441 671 l 2,17,18
 473 671 473 671 495.5 693.5 c 128,-1,19
 518 716 518 716 518 748 c 2,20,-1
 518 936 l 2,21,22
 518 968 518 968 495.5 990.5 c 128,-1,23
 473 1013 473 1013 441 1013 c 2,24,-1
 228 1013 l 2,25,26
 196 1013 196 1013 173.5 990.5 c 128,-1,27
 151 968 151 968 151 936 c 2,28,-1
 151 748 l 2,29,30
 151 716 151 716 173.5 693.5 c 128,-1,31
 196 671 196 671 228 671 c 2,16,-1
EndSplineSet
EndChar

StartChar: semicolon
Encoding: 59 59 30
Width: 688
GlyphClass: 2
Flags: W
LayerCount: 2
Fore
SplineSet
152 -291 m 2,0,1
 152 -337 152 -337 224.403846154 -337 c 0,2,3
 261.807692308 -337 261.807692308 -337 324.403846154 -306 c 128,-1,4
 387 -275 387 -275 434 -231.5 c 0,5,6
 539 -134.319148936 539 -134.319148936 539 36 c 2,7,-1
 539 268 l 2,8,9
 539 300 539 300 516.5 322.5 c 128,-1,10
 494 345 494 345 462 345 c 2,11,-1
 212 345 l 2,12,13
 152 345 152 345 152 270 c 2,14,-1
 152 67 l 2,15,16
 152 38 152 38 168 19 c 128,-1,17
 184 0 184 0 212 0 c 2,18,-1
 289 0 l 2,19,20
 306 0 306 0 306 -28 c 128,-1,21
 306 -56 306 -56 286.5 -99.5 c 0,22,23
 262.087403599 -153.958868895 262.087403599 -153.958868895 194 -186 c 0,24,25
 164.409375 -199.925 164.409375 -199.925 158.2046875 -213.4625 c 128,-1,26
 152 -227 152 -227 152 -246 c 2,27,-1
 152 -291 l 2,0,1
231 671 m 2,28,-1
 444 671 l 2,29,30
 476 671 476 671 498.5 693.5 c 128,-1,31
 521 716 521 716 521 748 c 2,32,-1
 521 936 l 2,33,34
 521 968 521 968 498.5 990.5 c 128,-1,35
 476 1013 476 1013 444 1013 c 2,36,-1
 231 1013 l 2,37,38
 199 1013 199 1013 176.5 990.5 c 128,-1,39
 154 968 154 968 154 936 c 2,40,-1
 154 748 l 2,41,42
 154 716 154 716 176.5 693.5 c 128,-1,43
 199 671 199 671 231 671 c 2,28,-1
EndSplineSet
EndChar

StartChar: less
Encoding: 60 60 31
Width: 1289
GlyphClass: 2
Flags: W
LayerCount: 2
Fore
SplineSet
1068 -81 m 1,0,1
 1086 -89 1086 -89 1098 -89 c 128,-1,2
 1110 -89 1110 -89 1122.5 -76.5 c 128,-1,3
 1135 -64 1135 -64 1135 -44 c 2,4,-1
 1135 292 l 2,5,6
 1135 365.5 1135 365.5 1066 400 c 1,7,-1
 531 654 l 2,8,9
 521 658 521 658 521 668.5 c 128,-1,10
 521 679 521 679 531 685 c 1,11,-1
 1066 943 l 2,12,13
 1135 975.34375 1135 975.34375 1135 1048 c 2,14,-1
 1135 1409 l 2,15,16
 1135 1429 1135 1429 1122.5 1442 c 128,-1,17
 1110 1455 1110 1455 1095 1455 c 128,-1,18
 1080 1455 1080 1455 1067 1449 c 2,19,-1
 206 986 l 2,20,21
 138 948.709677419 138 948.709677419 138 876 c 2,22,-1
 138 505 l 2,23,24
 138 470 138 470 156 439 c 128,-1,25
 174 408 174 408 205 392 c 2,26,-1
 1068 -81 l 1,0,1
EndSplineSet
EndChar

StartChar: equal
Encoding: 61 61 32
Width: 1148
GlyphClass: 2
Flags: W
LayerCount: 2
Fore
SplineSet
218 228 m 2,0,-1
 930 228 l 2,1,2
 962 228 962 228 983 249 c 128,-1,3
 1004 270 1004 270 1004 302 c 2,4,-1
 1004 394 l 2,5,6
 1004 426 1004 426 983 447 c 128,-1,7
 962 468 962 468 930 468 c 2,8,-1
 218 468 l 2,9,10
 186 468 186 468 165 447 c 128,-1,11
 144 426 144 426 144 394 c 2,12,-1
 144 302 l 2,13,14
 144 270 144 270 165 249 c 128,-1,15
 186 228 186 228 218 228 c 2,0,-1
218 621 m 2,16,-1
 930 621 l 2,17,18
 962 621 962 621 983 642 c 128,-1,19
 1004 663 1004 663 1004 695 c 2,20,-1
 1004 788 l 2,21,22
 1004 820 1004 820 983 841 c 128,-1,23
 962 862 962 862 930 862 c 2,24,-1
 218 862 l 2,25,26
 186 862 186 862 165 841 c 128,-1,27
 144 820 144 820 144 788 c 2,28,-1
 144 695 l 2,29,30
 144 663 144 663 165 642 c 128,-1,31
 186 621 186 621 218 621 c 2,16,-1
EndSplineSet
EndChar

StartChar: greater
Encoding: 62 62 33
Width: 1290
GlyphClass: 2
Flags: W
LayerCount: 2
Fore
SplineSet
167 -76 m 128,-1,1
 180 -89 180 -89 195.5 -89 c 128,-1,2
 211 -89 211 -89 222 -82 c 2,3,-1
 1083 380 l 2,4,5
 1151 417.290322581 1151 417.290322581 1151 491 c 2,6,-1
 1151 862 l 2,7,8
 1151 939.419354839 1151 939.419354839 1084 974 c 1,9,-1
 221 1447 l 2,10,11
 207 1455 207 1455 193 1455 c 128,-1,12
 179 1455 179 1455 166.5 1442 c 128,-1,13
 154 1429 154 1429 154 1410 c 2,14,-1
 154 1074 l 2,15,16
 154 1040 154 1040 173 1011 c 128,-1,17
 192 982 192 982 223 967 c 2,18,-1
 758 713 l 2,19,20
 768 709 768 709 768 698.5 c 128,-1,21
 768 688 768 688 758 682 c 1,22,-1
 223 423 l 1,23,24
 154 392.8125 154 392.8125 154 318 c 2,25,-1
 154 -43 l 2,26,0
 154 -63 154 -63 167 -76 c 128,-1,1
EndSplineSet
EndChar

StartChar: question
Encoding: 63 63 34
Width: 1879
GlyphClass: 2
Flags: W
LayerCount: 2
Fore
SplineSet
616 489 m 1,0,1
 639.454545455 446 639.454545455 446 671.133333333 446 c 0,2,3
 685.266666667 446 685.266666667 446 722.633333333 475.5 c 128,-1,4
 760 505 760 505 780.5 518 c 0,5,6
 837.984116479 554.453342158 837.984116479 554.453342158 964 564 c 0,7,8
 1227 583 1227 583 1313 596 c 0,9,10
 1567 636 1567 636 1666 752 c 0,11,12
 1746 846 1746 846 1746 999 c 0,13,14
 1746 1475 1746 1475 811 1475 c 0,15,16
 520 1475 520 1475 150 1342 c 0,17,18
 103 1324.0952381 103 1324.0952381 103 1277 c 0,19,20
 103 1263 103 1263 109 1250 c 2,21,-1
 184 1079 l 2,22,23
 206.222222222 1029 206.222222222 1029 259 1029 c 0,24,25
 272 1029 272 1029 286 1033 c 0,26,27
 629 1141 629 1141 940 1141 c 0,28,29
 1195.46153846 1141 1195.46153846 1141 1232.5 1034 c 0,30,31
 1241 1009.44444444 1241 1009.44444444 1241 978 c 0,32,33
 1241 844 1241 844 1006 828 c 0,34,35
 837 817 837 817 749.5 784.5 c 128,-1,36
 662 752 662 752 573 679 c 1,37,38
 539 656.333333333 539 656.333333333 539 632.166666667 c 128,-1,39
 539 608 539 608 550 585 c 1,40,41
 585 531 585 531 616 489 c 1,0,1
627 0 m 2,42,-1
 846 0 l 2,43,44
 878 0 878 0 899 21 c 128,-1,45
 920 42 920 42 920 74 c 2,46,-1
 920 260 l 2,47,48
 920 292 920 292 899 313 c 128,-1,49
 878 334 878 334 846 334 c 2,50,-1
 627 334 l 2,51,52
 595 334 595 334 574 313 c 128,-1,53
 553 292 553 292 553 260 c 2,54,-1
 553 74 l 2,55,56
 553 42 553 42 574 21 c 128,-1,57
 595 0 595 0 627 0 c 2,42,-1
EndSplineSet
EndChar

StartChar: at
Encoding: 64 64 35
Width: 2249
GlyphClass: 2
Flags: W
LayerCount: 2
Fore
SplineSet
664.5 -213 m 128,-1,1
 845 -285 845 -285 1059.5 -285 c 128,-1,2
 1274 -285 1274 -285 1442 -224 c 0,3,4
 1470.11390846 -213.457284328 1470.11390846 -213.457284328 1470.11390846 -184.97137621 c 0,5,6
 1470.11390846 -177.160269982 1470.11390846 -177.160269982 1468 -168 c 1,7,-1
 1446 -90 l 2,8,9
 1442 -74 1442 -74 1429.5 -65 c 128,-1,10
 1417 -56 1417 -56 1404 -59 c 1,11,12
 1263 -106 1263 -106 1107 -106 c 128,-1,13
 951 -106 951 -106 829 -67 c 128,-1,14
 707 -28 707 -28 625 38.5 c 128,-1,15
 543 105 543 105 486 194.5 c 0,16,17
 378 364.078947368 378 364.078947368 378 590 c 0,18,19
 378 885 378 885 573 1080 c 0,20,21
 668 1175 668 1175 816.5 1230 c 128,-1,22
 965 1285 965 1285 1149 1285 c 128,-1,23
 1333 1285 1333 1285 1479 1231 c 128,-1,24
 1625 1177 1625 1177 1718 1083 c 0,25,26
 1909 889.946236559 1909 889.946236559 1909 601 c 0,27,28
 1909 389.371428571 1909 389.371428571 1873.5 327.5 c 0,29,30
 1856 297 1856 297 1839.5 287 c 128,-1,31
 1823 277 1823 277 1790.5 277 c 128,-1,32
 1758 277 1758 277 1731 307.5 c 128,-1,33
 1704 338 1704 338 1704 403 c 2,34,-1
 1704 925 l 2,35,36
 1704 951 1704 951 1685 968.5 c 128,-1,37
 1666 986 1666 986 1638 986 c 2,38,-1
 1622 986 l 2,39,40
 1554 986 1554 986 1545 936 c 1,41,-1
 1526 811 l 1,42,43
 1523 798 1523 798 1519.5 798 c 128,-1,44
 1516 798 1516 798 1510 810 c 0,45,46
 1463 903 1463 903 1349.5 967 c 128,-1,47
 1236 1031 1236 1031 1090 1031 c 128,-1,48
 944 1031 944 1031 829.5 978.5 c 128,-1,49
 715 926 715 926 646.5 820.5 c 128,-1,50
 578 715 578 715 578 588 c 128,-1,51
 578 461 578 461 621.5 369.5 c 128,-1,52
 665 278 665 278 739.5 220.5 c 0,53,54
 894.330434783 101 894.330434783 101 1114 101 c 0,55,56
 1382 101 1382 101 1522 315 c 0,57,58
 1525.33333333 321.666666667 1525.33333333 321.666666667 1528.66666667 325.833333333 c 128,-1,59
 1532 330 1532 330 1534 333 c 0,60,61
 1538 339 1538 339 1543 339 c 0,62,63
 1555 339 1555 339 1560 301 c 1,64,65
 1564 230 1564 230 1634.5 178.5 c 128,-1,66
 1705 127 1705 127 1796 127 c 0,67,68
 1954.87735849 127 1954.87735849 127 2043.5 281 c 0,69,70
 2110.50367647 397.432618129 2110.50367647 397.432618129 2110.50367647 566.637900441 c 0,71,72
 2110.50367647 738.401915396 2110.50367647 738.401915396 2069.5 868.5 c 0,73,74
 2029 997 2029 997 1948 1107.5 c 128,-1,75
 1867 1218 1867 1218 1753 1300 c 0,76,77
 1509.70731707 1475 1509.70731707 1475 1146 1475 c 0,78,79
 918 1475 918 1475 727.5 1407 c 128,-1,80
 537 1339 537 1339 409 1220.5 c 128,-1,81
 281 1102 281 1102 210 941 c 128,-1,82
 139 780 139 780 139 599 c 128,-1,83
 139 418 139 418 198.5 261 c 128,-1,84
 258 104 258 104 371 -18.5 c 128,-1,0
 484 -141 484 -141 664.5 -213 c 128,-1,1
1122 283 m 0,85,86
 977 283 977 283 901.5 362 c 128,-1,87
 826 441 826 441 826 559 c 0,88,89
 826 674.52238806 826 674.52238806 890.5 752.5 c 0,90,91
 962.87654321 840 962.87654321 840 1121 840 c 1,92,93
 1253.5 840 1253.5 840 1354.5 778 c 0,94,95
 1465 710.168316832 1465 710.168316832 1465 564 c 0,96,97
 1465 349.620689655 1465 349.620689655 1247 297 c 0,98,99
 1189 283 1189 283 1122 283 c 0,85,86
EndSplineSet
EndChar

StartChar: A
Encoding: 65 65 36
Width: 2440
GlyphClass: 2
Flags: W
LayerCount: 2
Fore
SplineSet
152 0 m 2,0,-1
 629 0 l 2,1,2
 702 0 702 0 727 59 c 1,3,-1
 776 180 l 1,4,5
 786 201 786 201 792.5 205 c 128,-1,6
 799 209 799 209 814 209 c 2,7,-1
 1475 209 l 2,8,9
 1495 209 1495 209 1499.5 203 c 128,-1,10
 1504 197 1504 197 1505 196 c 0,11,12
 1512 189 1512 189 1512 181 c 1,13,-1
 1564 58 l 1,14,15
 1592 0 1592 0 1666 0 c 2,16,-1
 2284 0 l 2,17,18
 2305 0 2305 0 2319 13.5 c 128,-1,19
 2333 27 2333 27 2333 40 c 128,-1,20
 2333 53 2333 53 2327 69 c 1,21,-1
 1701 1369 l 2,22,23
 1686 1400 1686 1400 1656.5 1419 c 128,-1,24
 1627 1438 1627 1438 1593 1438 c 2,25,-1
 860 1438 l 2,26,27
 826 1438 826 1438 796.5 1419 c 128,-1,28
 767 1400 767 1400 751 1369 c 2,29,-1
 111 69 l 2,30,31
 105 59 105 59 105 43 c 128,-1,32
 105 27 105 27 118 13.5 c 128,-1,33
 131 0 131 0 152 0 c 2,0,-1
1373 555 m 0,34,35
 1373 534 1373 534 1351 534 c 2,36,-1
 956 534 l 2,37,38
 947 534 947 534 940.5 540.5 c 128,-1,39
 934 547 934 547 934 553 c 128,-1,40
 934 559 934 559 936 563 c 2,41,-1
 1147 1046 l 2,42,43
 1150 1054 1150 1054 1158.5 1054 c 128,-1,44
 1167 1054 1167 1054 1170 1045 c 2,45,-1
 1371 564 l 2,46,47
 1373 560 1373 560 1373 555 c 0,34,35
EndSplineSet
EndChar

StartChar: B
Encoding: 66 66 37
Width: 2391
GlyphClass: 2
Flags: W
LayerCount: 2
Fore
SplineSet
236 0 m 2,0,-1
 1361 0 l 2,1,2
 2255 0 2255 0 2255 424 c 0,3,4
 2255 649 2255 649 1991 757 c 0,5,6
 1982.2 761.4 1982.2 761.4 1981.1 764.7 c 128,-1,7
 1980 768 1980 768 1979.5 769.5 c 128,-1,8
 1979 771 1979 771 1979 776.5 c 128,-1,9
 1979 782 1979 782 1988 788 c 0,10,11
 2157 887 2157 887 2157 1040 c 0,12,13
 2157 1438 2157 1438 1406 1438 c 2,14,-1
 236 1438 l 2,15,16
 204 1438 204 1438 181.5 1414.5 c 128,-1,17
 159 1391 159 1391 159 1359 c 2,18,-1
 159 77 l 2,19,20
 159 45 159 45 181.5 22.5 c 128,-1,21
 204 0 204 0 236 0 c 2,0,-1
865 334 m 2,22,23
 850 334 850 334 839 345 c 128,-1,24
 828 356 828 356 828 371 c 2,25,-1
 828 609 l 2,26,27
 828 624 828 624 839 635 c 128,-1,28
 850 646 850 646 865 646 c 2,29,-1
 1262 646 l 2,30,31
 1471.33333333 646 1471.33333333 646 1524 606.5 c 0,32,33
 1571 571.25 1571 571.25 1571 512.125 c 128,-1,34
 1571 453 1571 453 1550.5 422 c 128,-1,35
 1530 391 1530 391 1499 374.5 c 128,-1,36
 1468 358 1468 358 1417 348.5 c 0,37,38
 1339.15789474 334 1339.15789474 334 1210 334 c 2,39,-1
 865 334 l 2,22,23
865 861 m 2,40,41
 850 861 850 861 839 873 c 128,-1,42
 828 885 828 885 828 902 c 2,43,-1
 828 1110 l 2,44,45
 828 1125 828 1125 839 1136 c 128,-1,46
 850 1147 850 1147 865 1147 c 0,47,48
 1059.75 1147 1059.75 1147 1166.375 1147 c 128,-1,49
 1273 1147 1273 1147 1305.5 1145.5 c 128,-1,50
 1338 1144 1338 1144 1355.5 1141.5 c 128,-1,51
 1373 1139 1373 1139 1399.5 1134 c 128,-1,52
 1426 1129 1426 1129 1440 1121.5 c 128,-1,53
 1454 1114 1454 1114 1471 1102.5 c 128,-1,54
 1488 1091 1488 1091 1496.5 1076.5 c 0,55,56
 1517 1041.52941176 1517 1041.52941176 1517 997 c 0,57,58
 1517 919 1517 919 1463.5 892 c 128,-1,59
 1410 865 1410 865 1279 861 c 1,60,-1
 865 861 l 2,40,41
EndSplineSet
EndChar

StartChar: C
Encoding: 67 67 38
Width: 2475
GlyphClass: 2
Flags: W
LayerCount: 2
Fore
SplineSet
1828 898 m 1,0,1
 2228 923 2228 923 2306 932 c 1,2,3
 2320.45714286 937.257142857 2320.45714286 937.257142857 2318 952 c 1,4,-1
 2318 959 l 1,5,6
 2304 1075 2304 1075 2238.5 1166 c 128,-1,7
 2173 1257 2173 1257 2076.5 1314 c 128,-1,8
 1980 1371 1980 1371 1851 1408 c 0,9,10
 1617.40540541 1475 1617.40540541 1475 1320 1475 c 0,11,12
 346.654028436 1475 346.654028436 1475 170.5 951.5 c 0,13,14
 135 846 135 846 135 718.5 c 128,-1,15
 135 591 135 591 170.5 484 c 128,-1,16
 206 377 206 377 268 299.5 c 128,-1,17
 330 222 330 222 419.5 162 c 128,-1,18
 509 102 509 102 610 64.5 c 128,-1,19
 711 27 711 27 832.5 2.5 c 0,20,21
 1048.2244898 -41 1048.2244898 -41 1254.1122449 -41 c 128,-1,22
 1460 -41 1460 -41 1590.5 -28 c 128,-1,23
 1721 -15 1721 -15 1855.5 18.5 c 128,-1,24
 1990 52 1990 52 2090.5 104 c 128,-1,25
 2191 156 2191 156 2258 241 c 128,-1,26
 2325 326 2325 326 2332 435 c 1,27,-1
 2329 474 l 1,28,29
 2326 491 2326 491 2313.5 503 c 128,-1,30
 2301 515 2301 515 2287 516.5 c 128,-1,31
 2273 518 2273 518 2162.5 527.5 c 128,-1,32
 2052 537 2052 537 1947.5 546 c 128,-1,33
 1843 555 1843 555 1840.875 555 c 2,34,-1
 1835.5 555 l 1,35,-1
 1829 556 l 1,36,37
 1768 556 1768 556 1730 483.5 c 0,38,39
 1649.02068966 329 1649.02068966 329 1320 329 c 1,40,41
 1051.87465064 335.30883175 1051.87465064 335.30883175 946.5 453 c 0,42,43
 864 545.142857143 864 545.142857143 864 719 c 0,44,45
 864 930.870967742 864 930.870967742 991 1021 c 0,46,47
 1107.95330396 1103.99911894 1107.95330396 1103.99911894 1295.97665198 1105.99955947 c 0,48,49
 1305.62088986 1106.1021676 1305.62088986 1106.1021676 1315.02828099 1106.1021676 c 0,50,51
 1489.02669122 1106.1021676 1489.02669122 1106.1021676 1582 1071 c 0,52,53
 1680 1034 1680 1034 1730 956 c 0,54,55
 1767.41935484 898 1767.41935484 898 1828 898 c 1,0,1
EndSplineSet
EndChar

StartChar: D
Encoding: 68 68 39
Width: 2421
GlyphClass: 2
Flags: W
LayerCount: 2
Fore
SplineSet
1113 346 m 2,0,-1
 865 346 l 2,1,2
 851 346 851 346 839.5 357 c 128,-1,3
 828 368 828 368 828 381 c 2,4,-1
 828 1065 l 2,5,6
 828 1078 828 1078 839 1088.5 c 128,-1,7
 850 1099 850 1099 863 1099 c 2,8,-1
 1178 1099 l 2,9,10
 1429 1099 1429 1099 1531.5 996.5 c 0,11,12
 1621 907 1621 907 1621 728 c 0,13,14
 1621 516.409090909 1621 516.409090909 1525 433.5 c 0,15,16
 1461.38639281 378.56097561 1461.38639281 378.56097561 1388.69319641 365.280487805 c 0,17,18
 1283.15789474 346 1283.15789474 346 1113 346 c 2,0,-1
235 0 m 2,19,-1
 1218 0 l 2,20,21
 1587.57142857 0 1587.57142857 0 1751.5 34 c 0,22,23
 1938.82057416 72.8516746411 1938.82057416 72.8516746411 2029.5 138 c 0,24,25
 2164.72235896 235.150044304 2164.72235896 235.150044304 2215.5 356.5 c 0,26,27
 2282 515.423728814 2282 515.423728814 2282 701.211864407 c 128,-1,28
 2282 887 2282 887 2230.5 1010 c 128,-1,29
 2179 1133 2179 1133 2091.5 1212 c 128,-1,30
 2004 1291 2004 1291 1879.5 1343 c 0,31,32
 1652.04807692 1438 1652.04807692 1438 1321 1438 c 2,33,-1
 235 1438 l 2,34,35
 203 1438 203 1438 181 1415.5 c 128,-1,36
 159 1393 159 1393 159 1361 c 2,37,-1
 159 76 l 2,38,39
 159 44 159 44 181 22 c 128,-1,40
 203 0 203 0 235 0 c 2,19,-1
EndSplineSet
EndChar

StartChar: E
Encoding: 69 69 40
Width: 2208
GlyphClass: 2
Flags: W
LayerCount: 2
Fore
SplineSet
895 863 m 2,0,1
 865 863 865 863 865 890 c 2,2,-1
 865 1067 l 2,3,4
 865 1094 865 1094 897 1094 c 2,5,-1
 1929 1094 l 2,6,7
 1961 1094 1961 1094 1982.5 1116.5 c 128,-1,8
 2004 1139 2004 1139 2004 1171 c 2,9,-1
 2004 1361 l 2,10,11
 2004 1393 2004 1393 1982.5 1415.5 c 128,-1,12
 1961 1438 1961 1438 1929 1438 c 2,13,-1
 235 1438 l 2,14,15
 203 1438 203 1438 181 1415.5 c 128,-1,16
 159 1393 159 1393 159 1361 c 2,17,-1
 159 76 l 2,18,19
 159 44 159 44 181 22 c 128,-1,20
 203 0 203 0 235 0 c 2,21,-1
 1991 0 l 2,22,23
 2023 0 2023 0 2044.5 22.5 c 128,-1,24
 2066 45 2066 45 2066 77 c 2,25,-1
 2066 262 l 2,26,27
 2066 294 2066 294 2044.5 316.5 c 128,-1,28
 2023 339 2023 339 1991 339 c 2,29,-1
 895 339 l 2,30,31
 865 339 865 339 865 364 c 2,32,-1
 865 572 l 2,33,34
 865 598 865 598 896 598 c 2,35,-1
 1841 598 l 2,36,37
 1873 598 1873 598 1894.5 620.5 c 128,-1,38
 1916 643 1916 643 1916 675 c 2,39,-1
 1916 786 l 2,40,41
 1916 818 1916 818 1894.5 840.5 c 128,-1,42
 1873 863 1873 863 1841 863 c 2,43,-1
 895 863 l 2,0,1
EndSplineSet
EndChar

StartChar: F
Encoding: 70 70 41
Width: 2095
GlyphClass: 2
Flags: W
LayerCount: 2
Fore
SplineSet
232 0 m 2,0,-1
 787 0 l 2,1,2
 819 0 819 0 840.5 22 c 128,-1,3
 862 44 862 44 862 76 c 2,4,-1
 862 490 l 2,5,6
 862 503 862 503 872.5 513.5 c 128,-1,7
 883 524 883 524 896 524 c 2,8,-1
 1637 524 l 2,9,10
 1669 524 1669 524 1691 546.5 c 128,-1,11
 1713 569 1713 569 1713 601 c 2,12,-1
 1713 732 l 2,13,14
 1713 764 1713 764 1691 786.5 c 128,-1,15
 1669 809 1669 809 1637 809 c 2,16,-1
 895 809 l 2,17,18
 882 809 882 809 872 819 c 128,-1,19
 862 829 862 829 862 842 c 2,20,-1
 862 1053 l 2,21,22
 862 1068 862 1068 872 1078.5 c 128,-1,23
 882 1089 882 1089 897 1089 c 2,24,-1
 1947 1089 l 2,25,26
 1979 1089 1979 1089 2001 1111.5 c 128,-1,27
 2023 1134 2023 1134 2023 1166 c 2,28,-1
 2023 1361 l 2,29,30
 2023 1393 2023 1393 2001 1415.5 c 128,-1,31
 1979 1438 1979 1438 1947 1438 c 2,32,-1
 232 1438 l 2,33,34
 200 1438 200 1438 178.5 1415.5 c 128,-1,35
 157 1393 157 1393 157 1361 c 2,36,-1
 157 76 l 2,37,38
 157 44 157 44 178.5 22 c 128,-1,39
 200 0 200 0 232 0 c 2,0,-1
EndSplineSet
EndChar

StartChar: G
Encoding: 71 71 42
Width: 2485
GlyphClass: 2
Flags: W
LayerCount: 2
Fore
SplineSet
906 -17 m 128,-1,1
 1061 -41 1061 -41 1183.5 -41 c 128,-1,2
 1306 -41 1306 -41 1375 -36 c 128,-1,3
 1444 -31 1444 -31 1544.5 -12 c 128,-1,4
 1645 7 1645 7 1728.5 39 c 128,-1,5
 1812 71 1812 71 1895 132 c 128,-1,6
 1978 193 1978 193 2028 275 c 0,7,8
 2035 285 2035 285 2044.5 285 c 128,-1,9
 2054 285 2054 285 2056.5 276 c 128,-1,10
 2059 267 2059 267 2098.5 169.5 c 128,-1,11
 2138 72 2138 72 2138 70 c 0,12,13
 2167 0 2167 0 2253 0 c 0,14,15
 2285 0 2285 0 2306.5 22.5 c 128,-1,16
 2328 45 2328 45 2328 77 c 2,17,-1
 2328 700 l 2,18,19
 2328 732 2328 732 2305.5 754.5 c 128,-1,20
 2283 777 2283 777 2251 777 c 2,21,-1
 1465 777 l 2,22,23
 1433 777 1433 777 1410.5 755 c 128,-1,24
 1388 733 1388 733 1388 701 c 2,25,-1
 1388 632 l 2,26,27
 1388 600 1388 600 1410.5 578 c 128,-1,28
 1433 556 1433 556 1465 556 c 2,29,-1
 1717 556 l 2,30,31
 1727 556 1727 556 1734 547 c 128,-1,32
 1741 538 1741 538 1741 525.5 c 128,-1,33
 1741 513 1741 513 1730 490 c 128,-1,34
 1719 467 1719 467 1688 436.5 c 128,-1,35
 1657 406 1657 406 1611 380 c 0,36,37
 1501.30769231 318 1501.30769231 318 1299.65384615 318 c 128,-1,38
 1098 318 1098 318 981 414.5 c 128,-1,39
 864 511 864 511 864 719 c 0,40,41
 864 1115 864 1115 1320 1123 c 1,42,43
 1619 1123 1619 1123 1728 976 c 0,44,45
 1773.75 915 1773.75 915 1837 915 c 0,46,47
 1839 915 1839 915 1860 917 c 128,-1,48
 1881 919 1881 919 2000 927.5 c 128,-1,49
 2119 936 2119 936 2309 950 c 0,50,51
 2323 952 2323 952 2323 961.5 c 128,-1,52
 2323 971 2323 971 2321 989 c 0,53,54
 2305 1099 2305 1099 2237 1185 c 128,-1,55
 2169 1271 2169 1271 2071.5 1324.5 c 128,-1,56
 1974 1378 1974 1378 1845 1413 c 0,57,58
 1616.48571429 1475 1616.48571429 1475 1320 1475 c 0,59,60
 346.654028436 1475 346.654028436 1475 170.5 951.5 c 0,61,62
 135 846 135 846 135 700 c 128,-1,63
 135 554 135 554 196.5 422.5 c 128,-1,64
 258 291 258 291 361 205.5 c 128,-1,65
 464 120 464 120 607.5 63.5 c 128,-1,0
 751 7 751 7 906 -17 c 128,-1,1
EndSplineSet
EndChar

StartChar: H
Encoding: 72 72 43
Width: 2391
GlyphClass: 2
Flags: W
LayerCount: 2
Fore
SplineSet
235 0 m 2,0,-1
 736 0 l 2,1,2
 768 0 768 0 789.5 22 c 128,-1,3
 811 44 811 44 811 76 c 2,4,-1
 811 538 l 2,5,6
 811 551 811 551 821.5 561 c 128,-1,7
 832 571 832 571 845 571 c 2,8,-1
 1534 571 l 2,9,10
 1547 571 1547 571 1557.5 560.5 c 128,-1,11
 1568 550 1568 550 1568 537 c 2,12,-1
 1568 76 l 2,13,14
 1568 44 1568 44 1589.5 22 c 128,-1,15
 1611 0 1611 0 1643 0 c 2,16,-1
 2155 0 l 2,17,18
 2187 0 2187 0 2209 22 c 128,-1,19
 2231 44 2231 44 2231 76 c 2,20,-1
 2231 1363 l 2,21,22
 2231 1395 2231 1395 2209 1416.5 c 128,-1,23
 2187 1438 2187 1438 2155 1438 c 2,24,-1
 1645 1438 l 2,25,26
 1613 1438 1613 1438 1591 1416.5 c 128,-1,27
 1569 1395 1569 1395 1569 1363 c 2,28,-1
 1569 940 l 2,29,30
 1569 927 1569 927 1558.5 916.5 c 128,-1,31
 1548 906 1548 906 1535 906 c 2,32,-1
 840 906 l 2,33,34
 827 906 827 906 816.5 916 c 128,-1,35
 806 926 806 926 806 939 c 2,36,-1
 806 1363 l 2,37,38
 806 1395 806 1395 784.5 1416.5 c 128,-1,39
 763 1438 763 1438 731 1438 c 2,40,-1
 235 1438 l 2,41,42
 203 1438 203 1438 181 1416.5 c 128,-1,43
 159 1395 159 1395 159 1363 c 2,44,-1
 159 76 l 2,45,46
 159 44 159 44 181 22 c 128,-1,47
 203 0 203 0 235 0 c 2,0,-1
EndSplineSet
EndChar

StartChar: I
Encoding: 73 73 44
Width: 1001
GlyphClass: 2
Flags: W
LayerCount: 2
Fore
SplineSet
235 0 m 2,0,-1
 766 0 l 2,1,2
 798 0 798 0 819.5 22 c 128,-1,3
 841 44 841 44 841 76 c 2,4,-1
 841 1363 l 2,5,6
 841 1395 841 1395 819.5 1416.5 c 128,-1,7
 798 1438 798 1438 766 1438 c 2,8,-1
 235 1438 l 2,9,10
 203 1438 203 1438 181 1416.5 c 128,-1,11
 159 1395 159 1395 159 1363 c 2,12,-1
 159 76 l 2,13,14
 159 44 159 44 181 22 c 128,-1,15
 203 0 203 0 235 0 c 2,0,-1
EndSplineSet
EndChar

StartChar: J
Encoding: 74 74 45
Width: 1401
GlyphClass: 2
Flags: W
LayerCount: 2
Fore
SplineSet
146 -174 m 0,0,1
 685.627791563 -168.004135649 685.627791563 -168.004135649 953 6 c 0,2,3
 1243 194.73015873 1243 194.73015873 1243 578 c 2,4,-1
 1243 1397 l 2,5,6
 1243 1414 1243 1414 1231 1426 c 128,-1,7
 1219 1438 1219 1438 1201 1438 c 2,8,-1
 568 1438 l 2,9,10
 551 1438 551 1438 539 1426 c 128,-1,11
 527 1414 527 1414 527 1397 c 2,12,-1
 527 578 l 2,13,14
 527 358.4 527 358.4 421.5 274 c 0,15,16
 325.04815864 196.838526912 325.04815864 196.838526912 146 191 c 0,17,18
 131 190 131 190 120.5 179 c 128,-1,19
 110 168 110 168 110 150 c 2,20,-1
 110 -135 l 2,21,22
 110 -151 110 -151 121 -162.5 c 128,-1,23
 132 -174 132 -174 146 -174 c 0,0,1
EndSplineSet
EndChar

StartChar: K
Encoding: 75 75 46
Width: 2199
GlyphClass: 2
Flags: W
LayerCount: 2
Fore
SplineSet
235 0 m 2,0,-1
 766 0 l 2,1,2
 798 0 798 0 819.5 22 c 128,-1,3
 841 44 841 44 841 76 c 2,4,-1
 841 667 l 1,5,-1
 1307 64 l 2,6,7
 1356 0 1356 0 1426 0 c 2,8,-1
 2040 0 l 2,9,10
 2057 0 2057 0 2068 11 c 128,-1,11
 2079 22 2079 22 2079 36.5 c 128,-1,12
 2079 51 2079 51 2069 63 c 2,13,-1
 1490 784 l 2,14,15
 1477 798.857142857 1477 798.857142857 1477 806.928571429 c 128,-1,16
 1477 815 1477 815 1480.5 820.5 c 0,17,18
 1486.65517241 830.172413793 1486.65517241 830.172413793 1500 845 c 2,19,-1
 1982 1377 l 2,20,21
 1993 1388 1993 1388 1993 1402.5 c 128,-1,22
 1993 1417 1993 1417 1982 1427.5 c 128,-1,23
 1971 1438 1971 1438 1955 1438 c 2,24,-1
 1443 1438 l 2,25,26
 1371.76923077 1438 1371.76923077 1438 1321 1378 c 2,27,-1
 841 820 l 1,28,-1
 841 1363 l 2,29,30
 841 1395 841 1395 819.5 1416.5 c 128,-1,31
 798 1438 798 1438 766 1438 c 2,32,-1
 235 1438 l 2,33,34
 203 1438 203 1438 181 1416.5 c 128,-1,35
 159 1395 159 1395 159 1363 c 2,36,-1
 159 76 l 2,37,38
 159 44 159 44 181 22 c 128,-1,39
 203 0 203 0 235 0 c 2,0,-1
EndSplineSet
EndChar

StartChar: L
Encoding: 76 76 47
Width: 1997
GlyphClass: 2
Flags: W
LayerCount: 2
Fore
SplineSet
235 0 m 2,0,-1
 1798 0 l 2,1,2
 1830 0 1830 0 1852 22 c 128,-1,3
 1874 44 1874 44 1874 76 c 2,4,-1
 1874 274 l 2,5,6
 1874 306 1874 306 1852 328 c 128,-1,7
 1830 350 1830 350 1798 350 c 2,8,-1
 902 350 l 2,9,10
 887 350 887 350 876 361 c 128,-1,11
 865 372 865 372 865 387 c 2,12,-1
 865 1363 l 2,13,14
 865 1395 865 1395 843.5 1416.5 c 128,-1,15
 822 1438 822 1438 790 1438 c 2,16,-1
 235 1438 l 2,17,18
 203 1438 203 1438 181 1416.5 c 128,-1,19
 159 1395 159 1395 159 1363 c 2,20,-1
 159 76 l 2,21,22
 159 44 159 44 181 22 c 128,-1,23
 203 0 203 0 235 0 c 2,0,-1
EndSplineSet
EndChar

StartChar: M
Encoding: 77 77 48
Width: 2946
GlyphClass: 2
Flags: W
LayerCount: 2
Fore
SplineSet
2135 810 m 2,0,1
 2138 816 2138 816 2145 816 c 128,-1,2
 2152 816 2152 816 2152 806 c 2,3,-1
 2199 76 l 1,4,5
 2200 44 2200 44 2222 22 c 128,-1,6
 2244 0 2244 0 2276 0 c 2,7,-1
 2722 0 l 2,8,9
 2754 0 2754 0 2775.5 22 c 128,-1,10
 2797 44 2797 44 2797 76 c 1,11,-1
 2713 1363 l 1,12,13
 2712 1395 2712 1395 2690.5 1416.5 c 128,-1,14
 2669 1438 2669 1438 2638 1438 c 2,15,-1
 2010 1438 l 2,16,17
 1935.96666667 1438 1935.96666667 1438 1898 1371 c 2,18,-1
 1488 646 l 2,19,20
 1481 633 1481 633 1471 633 c 128,-1,21
 1461 633 1461 633 1454 646 c 2,22,-1
 1048 1371 l 2,23,24
 1031 1401 1031 1401 1000.5 1419.5 c 128,-1,25
 970 1438 970 1438 936 1438 c 2,26,-1
 308 1438 l 2,27,28
 276 1438 276 1438 254.5 1416 c 128,-1,29
 233 1394 233 1394 233 1363 c 1,30,-1
 148 76 l 1,31,32
 147 44 147 44 169 22 c 128,-1,33
 191 0 191 0 223 0 c 2,34,-1
 669 0 l 2,35,36
 701 0 701 0 723 22 c 128,-1,37
 745 44 745 44 745 76 c 1,38,-1
 793 804 l 2,39,40
 793 814 793 814 798 814 c 128,-1,41
 803 814 803 814 804.5 813 c 0,42,43
 809 810 809 810 810 808 c 2,44,-1
 1243 67 l 1,45,46
 1279.74193548 -1.42108547152e-14 1279.74193548 -1.42108547152e-14 1356 0 c 2,47,-1
 1586 0 l 2,48,49
 1662.25806452 0 1662.25806452 0 1699 67 c 1,50,-1
 2135 810 l 2,0,1
EndSplineSet
EndChar

StartChar: N
Encoding: 78 78 49
Width: 2542
GlyphClass: 2
Flags: W
LayerCount: 2
Fore
SplineSet
1794 763 m 2,0,1
 1794 747 1794 747 1778 747 c 0,2,3
 1773 747 1773 747 1769 750 c 2,4,-1
 1047 1406 l 1,5,6
 994 1452 994 1452 931 1452 c 2,7,-1
 235 1452 l 2,8,9
 203 1452 203 1452 181 1430 c 128,-1,10
 159 1408 159 1408 159 1376 c 2,11,-1
 159 76 l 2,12,13
 159 44 159 44 181 22 c 128,-1,14
 203 0 203 0 235 0 c 2,15,-1
 681 0 l 2,16,17
 713 0 713 0 735 22 c 128,-1,18
 757 44 757 44 757 76 c 2,19,-1
 757 845 l 2,20,21
 757 861 757 861 774 861 c 1,22,-1
 783 858 l 1,23,-1
 1662 30 l 1,24,25
 1712 -15 1712 -15 1784 -15 c 2,26,-1
 2307 -15 l 2,27,28
 2339 -15 2339 -15 2360.5 6.5 c 128,-1,29
 2382 28 2382 28 2382 60 c 2,30,-1
 2382 1361 l 2,31,32
 2382 1393 2382 1393 2360.5 1414.5 c 128,-1,33
 2339 1436 2339 1436 2307 1436 c 2,34,-1
 1870 1436 l 2,35,36
 1838 1436 1838 1436 1816 1414.5 c 128,-1,37
 1794 1393 1794 1393 1794 1361 c 2,38,-1
 1794 763 l 2,0,1
EndSplineSet
EndChar

StartChar: O
Encoding: 79 79 50
Width: 2667
GlyphClass: 2
Flags: W
LayerCount: 2
Fore
SplineSet
1343.5 322 m 0,0,1
 1252 322 1252 322 1188 333 c 128,-1,2
 1124 344 1124 344 1068.5 372 c 128,-1,3
 1013 400 1013 400 976.5 445 c 0,4,5
 898 541.780821918 898 541.780821918 898 722 c 0,6,7
 898 944.378151261 898 944.378151261 1018.5 1034.5 c 0,8,9
 1130.14606742 1118 1130.14606742 1118 1333 1118 c 0,10,11
 1585.65168539 1118 1585.65168539 1118 1690 992.5 c 0,12,13
 1768 898.689189189 1768 898.689189189 1768 722 c 0,14,15
 1768 492.466666667 1768 492.466666667 1646 403 c 0,16,17
 1535.54545455 322 1535.54545455 322 1343.5 322 c 0,0,1
1333 -41 m 0,18,19
 1453 -41 1453 -41 1563.5 -33 c 128,-1,20
 1674 -25 1674 -25 1797.5 -2.5 c 128,-1,21
 1921 20 1921 20 2024 56 c 128,-1,22
 2127 92 2127 92 2223 151.5 c 128,-1,23
 2319 211 2319 211 2385.5 288.5 c 0,24,25
 2532 459.233082707 2532 459.233082707 2532 722 c 0,26,27
 2532 1073.12698413 2532 1073.12698413 2223.5 1269 c 0,28,29
 1899.05 1475 1899.05 1475 1333 1475 c 128,-1,30
 766.95 1475 766.95 1475 442.5 1269 c 0,31,32
 134 1073.12698413 134 1073.12698413 134 722 c 0,33,34
 134 343.015625 134 343.015625 443 151.5 c 0,35,36
 753.588235294 -41 753.588235294 -41 1333 -41 c 0,18,19
EndSplineSet
EndChar

StartChar: P
Encoding: 80 80 51
Width: 2376
GlyphClass: 2
Flags: W
LayerCount: 2
Fore
SplineSet
1338 1438 m 2,0,-1
 235 1436 l 2,1,2
 203 1436 203 1436 181 1414.5 c 128,-1,3
 159 1393 159 1393 159 1361 c 2,4,-1
 159 76 l 2,5,6
 159 44 159 44 181 22 c 128,-1,7
 203 0 203 0 235 0 c 2,8,-1
 751 0 l 2,9,10
 783 0 783 0 805 22 c 128,-1,11
 827 44 827 44 827 76 c 2,12,-1
 827 417 l 2,13,14
 827 430 827 430 837.5 441 c 128,-1,15
 848 452 848 452 889.5 452 c 2,16,-1
 1110 452 l 2,17,18
 1433.66666667 452 1433.66666667 452 1541.83333333 457.5 c 128,-1,19
 1650 463 1650 463 1748 475.5 c 128,-1,20
 1846 488 1846 488 1914.5 509.5 c 128,-1,21
 1983 531 1983 531 2048.5 567 c 128,-1,22
 2114 603 2114 603 2153.5 652.5 c 0,23,24
 2241 762.151898734 2241 762.151898734 2241 935 c 0,25,26
 2241 1208.375 2241 1208.375 2053 1320 c 0,27,28
 1888.57612667 1417.62667479 1888.57612667 1417.62667479 1557 1433.5 c 0,29,30
 1463 1438 1463 1438 1338 1438 c 2,0,-1
861 740 m 2,31,32
 848 740 848 740 837.5 751 c 128,-1,33
 827 762 827 762 827 775 c 2,34,-1
 827 1057 l 2,35,36
 827 1070 827 1070 837.5 1080.5 c 128,-1,37
 848 1091 848 1091 861 1091 c 2,38,-1
 1284 1091 l 2,39,40
 1441.33333333 1091 1441.33333333 1091 1500 1047 c 0,41,42
 1555 1005.75 1555 1005.75 1555 933.875 c 128,-1,43
 1555 862 1555 862 1536 825.5 c 128,-1,44
 1517 789 1517 789 1479 771 c 0,45,46
 1413.55555556 740 1413.55555556 740 1293 740 c 2,47,-1
 861 740 l 2,31,32
EndSplineSet
EndChar

StartChar: Q
Encoding: 81 81 52
Width: 2667
GlyphClass: 2
Flags: W
LayerCount: 2
Fore
SplineSet
1541 -485 m 1,0,1
 1564 -523 1564 -523 1594.5 -523 c 128,-1,2
 1625 -523 1625 -523 1645 -513 c 1,3,-1
 1914 -407 l 1,4,5
 1954 -385.947368421 1954 -385.947368421 1954 -343 c 0,6,7
 1954 -323 1954 -323 1943 -305 c 2,8,-1
 1777 -4 l 1,9,10
 2188.64544954 68.4495991187 2188.64544954 68.4495991187 2381 284.5 c 0,11,12
 2532 454.101449275 2532 454.101449275 2532 723 c 0,13,14
 2532 1072.99470899 2532 1072.99470899 2223.5 1270.5 c 0,15,16
 1900.95041322 1477 1900.95041322 1477 1333 1477 c 128,-1,17
 765.049586777 1477 765.049586777 1477 442.5 1270.5 c 0,18,19
 134 1072.99470899 134 1072.99470899 134 723 c 0,20,21
 134 351.578378378 134 351.578378378 429.5 161.5 c 0,22,23
 733.808111424 -34.2441365375 733.808111424 -34.2441365375 1295 -39 c 1,24,-1
 1541 -485 l 1,0,1
1510.5 342.5 m 128,-1,26
 1435 324 1435 324 1343.5 324 c 128,-1,27
 1252 324 1252 324 1188 335 c 128,-1,28
 1124 346 1124 346 1068.5 374 c 128,-1,29
 1013 402 1013 402 976.5 447 c 0,30,31
 898 543.780821918 898 543.780821918 898 723 c 0,32,33
 898 945.378151261 898 945.378151261 1018.5 1035.5 c 0,34,35
 1131.48314607 1120 1131.48314607 1120 1333 1120 c 0,36,37
 1656.87898089 1120 1656.87898089 1120 1737.5 912.5 c 0,38,39
 1768 834 1768 834 1768 721 c 128,-1,40
 1768 608 1768 608 1737 528.5 c 128,-1,41
 1706 449 1706 449 1646 405 c 128,-1,25
 1586 361 1586 361 1510.5 342.5 c 128,-1,26
EndSplineSet
EndChar

StartChar: R
Encoding: 82 82 53
Width: 2405
GlyphClass: 2
Flags: W
LayerCount: 2
Fore
SplineSet
235 0 m 2,0,-1
 751 0 l 2,1,2
 783 0 783 0 805 22 c 128,-1,3
 827 44 827 44 827 76 c 2,4,-1
 827 467 l 2,5,6
 827 480 827 480 837.5 491 c 128,-1,7
 848 502 848 502 861 502 c 2,8,-1
 1260 502 l 2,9,10
 1382.15789474 502 1382.15789474 502 1406.57894737 487.5 c 0,11,12
 1473.84350133 447.561671088 1473.84350133 447.561671088 1502 364.5 c 0,13,14
 1532 276 1532 276 1550 174 c 128,-1,15
 1568 72 1568 72 1573 50.5 c 0,16,17
 1584.74418605 -2.48689957516e-13 1584.74418605 -2.48689957516e-13 1663 0 c 2,18,-1
 2198 0 l 2,19,20
 2219 0 2219 0 2230.5 12 c 128,-1,21
 2242 24 2242 24 2242 35.5 c 2,22,-1
 2242 50 l 2,23,24
 2242 77 2242 77 2215.5 192.5 c 128,-1,25
 2189 308 2189 308 2163.5 376 c 128,-1,26
 2138 444 2138 444 2097.5 502 c 0,27,28
 2019.84571496 613.208605729 2019.84571496 613.208605729 1855 643 c 0,29,30
 1850 643 1850 643 1850 646.5 c 128,-1,31
 1850 650 1850 650 1855 652 c 1,32,33
 2026.29824273 674.168007883 2026.29824273 674.168007883 2134.5 758 c 0,34,35
 2251 848.261261261 2251 848.261261261 2251 1012 c 0,36,37
 2251 1146.69230769 2251 1146.69230769 2204 1219 c 0,38,39
 2178 1259 2178 1259 2151.5 1290.5 c 128,-1,40
 2125 1322 2125 1322 2076 1344.5 c 128,-1,41
 2027 1367 2027 1367 1988 1383.5 c 128,-1,42
 1949 1400 1949 1400 1880 1410 c 128,-1,43
 1811 1420 1811 1420 1763.5 1426 c 128,-1,44
 1716 1432 1716 1432 1630 1434.5 c 0,45,46
 1509.6 1438 1509.6 1438 1341 1438 c 2,47,-1
 235 1438 l 2,48,49
 203 1438 203 1438 181 1416.5 c 128,-1,50
 159 1395 159 1395 159 1363 c 2,51,-1
 159 76 l 2,52,53
 159 44 159 44 181 22 c 128,-1,54
 203 0 203 0 235 0 c 2,0,-1
1566 938 m 0,55,56
 1566 789 1566 789 1344 789 c 2,57,-1
 861 789 l 2,58,59
 848 789 848 789 837.5 799 c 128,-1,60
 827 809 827 809 827 822 c 2,61,-1
 827 1057 l 2,62,63
 827 1070 827 1070 837.5 1080 c 128,-1,64
 848 1090 848 1090 861 1090 c 2,65,-1
 1252 1090 l 2,66,67
 1406.2 1090 1406.2 1090 1448.6 1074 c 128,-1,68
 1491 1058 1491 1058 1516 1042 c 0,69,70
 1566 1010 1566 1010 1566 938 c 0,55,56
EndSplineSet
EndChar

StartChar: S
Encoding: 83 83 54
Width: 2427
GlyphClass: 2
Flags: W
LayerCount: 2
Fore
SplineSet
244 383 m 0,0,1
 157 197 157 197 154.5 189 c 128,-1,2
 152 181 152 181 152 169 c 128,-1,3
 152 157 152 157 157.5 143.5 c 0,4,5
 169.13003096 114.953560372 169.13003096 114.953560372 197 105 c 0,6,7
 601 -41 601 -41 1182 -41 c 0,8,9
 1594 -41 1594 -41 1836 10 c 128,-1,10
 2078 61 2078 61 2185.5 168 c 128,-1,11
 2293 275 2293 275 2293 456 c 0,12,13
 2293 645.452631579 2293 645.452631579 2152.5 747.5 c 0,14,15
 2057.57147634 816.448085604 2057.57147634 816.448085604 1963.28573817 842.224042802 c 128,-1,16
 1869 868 1869 868 1809.5 880 c 128,-1,17
 1750 892 1750 892 1667 901.5 c 0,18,19
 1534.71258907 916.641330166 1534.71258907 916.641330166 1410.85629454 923.820665083 c 128,-1,20
 1287 931 1287 931 1230.5 934.5 c 128,-1,21
 1174 938 1174 938 1118 943 c 128,-1,22
 1062 948 1062 948 1027.5 952.5 c 128,-1,23
 993 957 993 957 961 963.5 c 128,-1,24
 929 970 929 970 911.5 977.5 c 128,-1,25
 894 985 894 985 880.5 995 c 0,26,27
 858 1011.66666667 858 1011.66666667 858 1043 c 0,28,29
 858 1132 858 1132 1194 1132 c 0,30,31
 1358 1132 1358 1132 1567.5 1106.5 c 128,-1,32
 1777 1081 1777 1081 1955 1024 c 0,33,34
 1967 1021 1967 1021 1979 1021 c 0,35,36
 2031.27272727 1021 2031.27272727 1021 2058 1070 c 0,37,38
 2058 1071 2058 1071 2098 1155 c 2,39,-1
 2139 1239 l 2,40,41
 2144 1251 2144 1251 2144 1265 c 128,-1,42
 2144 1279 2144 1279 2139 1292 c 0,43,44
 2127.99305556 1320.61805556 2127.99305556 1320.61805556 2101 1331 c 0,45,46
 1732 1475 1732 1475 1145 1475 c 0,47,48
 744.904761905 1475 744.904761905 1475 543 1422 c 0,49,50
 353.299562437 1372.20363514 353.299562437 1372.20363514 260 1277 c 0,51,52
 151 1165.7755102 151 1165.7755102 151 989 c 0,53,54
 151 683.842105263 151 683.842105263 555 585.5 c 0,55,56
 764.087310004 534.603746907 764.087310004 534.603746907 1222 511 c 0,57,58
 1306 507 1306 507 1377.5 503 c 0,59,60
 1550 493.34965035 1550 493.34965035 1550 394 c 0,61,62
 1550 301 1550 301 1283 301 c 0,63,64
 785.107692308 301 785.107692308 301 344 429 c 0,65,66
 332 432 332 432 314 432 c 128,-1,67
 296 432 296 432 275.5 419 c 128,-1,68
 255 406 255 406 244 383 c 0,0,1
EndSplineSet
EndChar

StartChar: T
Encoding: 84 84 55
Width: 2123
GlyphClass: 4
Flags: W
LayerCount: 2
Fore
SplineSet
810 0 m 2,0,-1
 1311 0 l 2,1,2
 1343 0 1343 0 1364.5 22 c 128,-1,3
 1386 44 1386 44 1386 76 c 2,4,-1
 1386 1069 l 2,5,6
 1386 1084 1386 1084 1396.5 1094 c 128,-1,7
 1407 1104 1407 1104 1422 1104 c 2,8,-1
 1939 1104 l 2,9,10
 1971 1104 1971 1104 1993 1126.5 c 128,-1,11
 2015 1149 2015 1149 2015 1181 c 2,12,-1
 2015 1361 l 2,13,14
 2015 1393 2015 1393 1993 1415.5 c 128,-1,15
 1971 1438 1971 1438 1939 1438 c 2,16,-1
 178 1438 l 2,17,18
 146 1438 146 1438 124.5 1415.5 c 128,-1,19
 103 1393 103 1393 103 1361 c 2,20,-1
 103 1181 l 2,21,22
 103 1149 103 1149 124.5 1126.5 c 128,-1,23
 146 1104 146 1104 178 1104 c 2,24,-1
 699 1104 l 2,25,26
 714 1104 714 1104 724 1094 c 128,-1,27
 734 1084 734 1084 734 1069 c 2,28,-1
 734 76 l 2,29,30
 734 44 734 44 756 22 c 128,-1,31
 778 0 778 0 810 0 c 2,0,-1
EndSplineSet
EndChar

StartChar: U
Encoding: 85 85 56
Width: 2629
GlyphClass: 2
Flags: W
LayerCount: 2
Fore
SplineSet
1330 -41 m 0,0,1
 1448 -41 1448 -41 1553 -33.5 c 128,-1,2
 1658 -26 1658 -26 1776.5 -4.5 c 128,-1,3
 1895 17 1895 17 1993 51.5 c 128,-1,4
 2091 86 2091 86 2183.5 144.5 c 128,-1,5
 2276 203 2276 203 2339 279.5 c 0,6,7
 2478 448.285714286 2478 448.285714286 2478 711 c 2,8,-1
 2478 1363 l 2,9,10
 2478 1395 2478 1395 2456 1416.5 c 128,-1,11
 2434 1438 2434 1438 2402 1438 c 2,12,-1
 1825 1438 l 2,13,14
 1793 1438 1793 1438 1771 1416.5 c 128,-1,15
 1749 1395 1749 1395 1749 1363 c 2,16,-1
 1749 711 l 2,17,18
 1749 482.724137931 1749 482.724137931 1632 398 c 0,19,20
 1527.04761905 322 1527.04761905 322 1332 322 c 0,21,22
 1084.26744186 322 1084.26744186 322 988.5 438 c 0,23,24
 913 529.450704225 913 529.450704225 913 711 c 2,25,-1
 913 1363 l 2,26,27
 913 1396 913 1396 892.5 1417 c 128,-1,28
 872 1438 872 1438 838 1438 c 2,29,-1
 225 1438 l 2,30,31
 194 1438 194 1438 172 1416.5 c 128,-1,32
 150 1395 150 1395 150 1363 c 2,33,-1
 150 711 l 2,34,35
 150 331.02617801 150 331.02617801 454.5 144.5 c 0,36,37
 757.324786325 -41 757.324786325 -41 1330 -41 c 0,0,1
EndSplineSet
EndChar

StartChar: V
Encoding: 86 86 57
Width: 2340
GlyphClass: 2
Flags: W
LayerCount: 2
Fore
SplineSet
915 0 m 1,0,-1
 1446 0 l 1,1,2
 1521.41586074 2.15473887814 1521.41586074 2.15473887814 1556 67 c 2,3,-1
 2260 1371 l 2,4,5
 2266 1382 2266 1382 2266 1394 c 128,-1,6
 2266 1406 2266 1406 2260.5 1416 c 0,7,8
 2248.4 1438 2248.4 1438 2220 1438 c 2,9,-1
 1757 1438 l 2,10,11
 1679.58064516 1438 1679.58064516 1438 1645 1371 c 2,12,-1
 1208 550 l 1,13,-1
 765 1371 l 2,14,15
 728.258064516 1438 728.258064516 1438 653 1438 c 2,16,-1
 117 1438 l 2,17,18
 97 1438 97 1438 84.5 1425.5 c 128,-1,19
 72 1413 72 1413 72 1401 c 0,20,21
 72 1385 72 1385 79 1371 c 2,22,-1
 803 67 l 1,23,24
 837.553191489 2.21276595745 837.553191489 2.21276595745 915 0 c 1,0,-1
EndSplineSet
EndChar

StartChar: W
Encoding: 87 87 58
Width: 3328
GlyphClass: 2
Flags: W
LayerCount: 2
Fore
SplineSet
776 0 m 1,0,-1
 1263 0 l 2,1,2
 1294 0 1294 0 1321 19.5 c 128,-1,3
 1348 39 1348 39 1362 70 c 2,4,-1
 1657 723 l 1,5,-1
 1936 70 l 2,6,7
 1949 39 1949 39 1977.5 20 c 128,-1,8
 2006 1 2006 1 2040 0 c 1,9,-1
 2556 0 l 1,10,11
 2590 1 2590 1 2618.5 20 c 128,-1,12
 2647 39 2647 39 2660 70 c 2,13,-1
 3223 1369 l 2,14,15
 3224 1372 3224 1372 3225 1374.5 c 128,-1,16
 3226 1377 3226 1377 3226.5 1380 c 128,-1,17
 3227 1383 3227 1383 3227.5 1385.5 c 128,-1,18
 3228 1388 3228 1388 3228 1394 c 128,-1,19
 3228 1400 3228 1400 3224 1409 c 128,-1,20
 3220 1418 3220 1418 3214 1424 c 0,21,22
 3200 1438 3200 1438 3178 1438 c 2,23,-1
 2732 1438 l 2,24,25
 2697 1438 2697 1438 2668 1419 c 128,-1,26
 2639 1400 2639 1400 2626 1369 c 2,27,-1
 2321 656 l 1,28,-1
 2008 1368 l 2,29,30
 1995 1398 1995 1398 1968 1417.5 c 128,-1,31
 1941 1437 1941 1437 1909 1438 c 1,32,-1
 1491 1438 l 2,33,34
 1457 1438 1457 1438 1427.5 1419 c 128,-1,35
 1398 1400 1398 1400 1384 1369 c 2,36,-1
 1068 666 l 1,37,-1
 783 1367 l 2,38,39
 769 1399 769 1399 740.5 1418.5 c 128,-1,40
 712 1438 712 1438 678 1438 c 2,41,-1
 144 1438 l 2,42,43
 110.888888889 1438 110.888888889 1438 98 1409 c 0,44,45
 94 1400 94 1400 94 1393.5 c 128,-1,46
 94 1387 94 1387 94.5 1383.5 c 0,47,48
 95.6 1375.8 95.6 1375.8 99 1369 c 2,49,-1
 670 70 l 2,50,51
 684 39 684 39 713 20 c 128,-1,52
 742 1 742 1 776 0 c 1,0,-1
EndSplineSet
EndChar

StartChar: X
Encoding: 88 88 59
Width: 2403
GlyphClass: 2
Flags: W
LayerCount: 2
Fore
SplineSet
149 0 m 2,0,-1
 582 0 l 2,1,2
 655 0 655 0 715 53 c 2,3,-1
 1106 405 l 1,4,-1
 1449 57 l 2,5,6
 1506 0 1506 0 1581 0 c 2,7,-1
 2259 0 l 2,8,9
 2274 0 2274 0 2283 9 c 128,-1,10
 2292 18 2292 18 2292 30 c 0,11,12
 2292 42 2292 42 2279 57 c 2,13,-1
 1559 808 l 1,14,-1
 2204 1385 l 2,15,16
 2216 1397 2216 1397 2216 1409 c 0,17,18
 2216 1421 2216 1421 2207.5 1429.5 c 128,-1,19
 2199 1438 2199 1438 2186 1438 c 2,20,-1
 1748 1438 l 2,21,22
 1675 1438 1675 1438 1615 1385 c 2,23,-1
 1288 1089 l 1,24,-1
 1007 1381 l 2,25,26
 952 1438 952 1438 877 1438 c 2,27,-1
 164 1438 l 2,28,29
 150 1438 150 1438 141 1429 c 128,-1,30
 132 1420 132 1420 132 1407 c 0,31,32
 132 1394 132 1394 144 1381 c 2,33,-1
 832 683 l 1,34,-1
 131 53 l 2,35,36
 119 41 119 41 119 29 c 128,-1,37
 119 17 119 17 127.5 8.5 c 128,-1,38
 136 0 136 0 149 0 c 2,0,-1
EndSplineSet
EndChar

StartChar: Y
Encoding: 89 89 60
Width: 2233
GlyphClass: 2
Flags: W
LayerCount: 2
Fore
SplineSet
856 0 m 2,0,-1
 1387 0 l 2,1,2
 1419 0 1419 0 1440.5 22 c 128,-1,3
 1462 44 1462 44 1462 76 c 2,4,-1
 1462 476 l 1,5,-1
 2142 1375 l 2,6,7
 2153 1389 2153 1389 2153 1403 c 128,-1,8
 2153 1417 2153 1417 2141.5 1427.5 c 128,-1,9
 2130 1438 2130 1438 2113 1438 c 2,10,-1
 1645 1438 l 2,11,12
 1571 1438 1571 1438 1523 1374 c 2,13,-1
 1167 889 l 1,14,-1
 800 1375 l 2,15,16
 752.206896552 1438 752.206896552 1438 677 1438 c 2,17,-1
 113 1438 l 2,18,19
 96 1438 96 1438 85.5 1427.5 c 128,-1,20
 75 1417 75 1417 75 1403.5 c 128,-1,21
 75 1390 75 1390 86 1376 c 2,22,-1
 780 473 l 1,23,-1
 780 76 l 2,24,25
 780 44 780 44 802 22 c 128,-1,26
 824 0 824 0 856 0 c 2,0,-1
EndSplineSet
EndChar

StartChar: Z
Encoding: 90 90 61
Width: 2067
GlyphClass: 2
Flags: W
LayerCount: 2
Fore
SplineSet
220 0 m 2,0,-1
 1849 0 l 2,1,2
 1881 0 1881 0 1902.5 22.5 c 128,-1,3
 1924 45 1924 45 1924 77 c 2,4,-1
 1924 273 l 2,5,6
 1924 305 1924 305 1902.5 327.5 c 128,-1,7
 1881 350 1881 350 1849 350 c 2,8,-1
 1048 350 l 2,9,10
 1033 350 1033 350 1033 364 c 0,11,12
 1033 369 1033 369 1039 375 c 2,13,-1
 1830 1083 l 2,14,15
 1885 1133 1885 1133 1885 1207 c 2,16,-1
 1885 1361 l 2,17,18
 1885 1393 1885 1393 1863 1415.5 c 128,-1,19
 1841 1438 1841 1438 1809 1438 c 2,20,-1
 250 1438 l 2,21,22
 218 1438 218 1438 196.5 1415.5 c 128,-1,23
 175 1393 175 1393 175 1361 c 2,24,-1
 175 1167 l 2,25,26
 175 1135 175 1135 196.5 1112.5 c 128,-1,27
 218 1090 218 1090 250 1090 c 2,28,-1
 956 1090 l 2,29,30
 972 1090 972 1090 972 1075 c 0,31,32
 972 1069 972 1069 965 1062 c 2,33,-1
 197 361 l 1,34,35
 144 316 144 316 144 244 c 2,36,-1
 144 77 l 2,37,38
 144 45 144 45 166 22.5 c 128,-1,39
 188 0 188 0 220 0 c 2,0,-1
EndSplineSet
EndChar

StartChar: bracketleft
Encoding: 91 91 62
Width: 1384
GlyphClass: 2
Flags: W
LayerCount: 2
Fore
SplineSet
238 -174 m 2,0,-1
 1179 -174 l 2,1,2
 1211 -174 1211 -174 1232.5 -153 c 128,-1,3
 1254 -132 1254 -132 1254 -100 c 2,4,-1
 1254 102 l 2,5,6
 1254 134 1254 134 1232.5 155 c 128,-1,7
 1211 176 1211 176 1179 176 c 2,8,-1
 802 176 l 2,9,10
 787 176 787 176 776.5 186.5 c 128,-1,11
 766 197 766 197 766 212 c 2,12,-1
 766 1251 l 2,13,14
 766 1266 766 1266 776.5 1276 c 128,-1,15
 787 1286 787 1286 802 1286 c 2,16,-1
 1179 1286 l 2,17,18
 1211 1286 1211 1286 1232.5 1307 c 128,-1,19
 1254 1328 1254 1328 1254 1360 c 2,20,-1
 1254 1564 l 2,21,22
 1254 1596 1254 1596 1232.5 1617 c 128,-1,23
 1211 1638 1211 1638 1179 1638 c 2,24,-1
 238 1638 l 2,25,26
 206 1638 206 1638 183.5 1615.5 c 128,-1,27
 161 1593 161 1593 161 1561 c 2,28,-1
 161 -97 l 2,29,30
 161 -129 161 -129 183.5 -151.5 c 128,-1,31
 206 -174 206 -174 238 -174 c 2,0,-1
EndSplineSet
EndChar

StartChar: backslash
Encoding: 92 92 63
Width: 1399
GlyphClass: 2
Flags: W
LayerCount: 2
Fore
SplineSet
807 -216 m 2,0,-1
 1285 -215 l 2,1,2
 1311 -215 1311 -215 1311 -189 c 0,3,4
 1311 -184 1311 -184 1309 -180 c 2,5,-1
 621 1603 l 1,6,7
 610.0625 1638 610.0625 1638 571 1638 c 2,8,-1
 94 1638 l 2,9,10
 68 1638 68 1638 68 1612 c 1,11,-1
 757 -181 l 2,12,13
 770 -216 770 -216 807 -216 c 2,0,-1
EndSplineSet
EndChar

StartChar: bracketright
Encoding: 93 93 64
Width: 1385
GlyphClass: 2
Flags: W
LayerCount: 2
Fore
SplineSet
206 -174 m 2,0,-1
 1147 -174 l 2,1,2
 1179 -174 1179 -174 1201.5 -151.5 c 128,-1,3
 1224 -129 1224 -129 1224 -97 c 2,4,-1
 1224 1561 l 2,5,6
 1224 1593 1224 1593 1201.5 1615.5 c 128,-1,7
 1179 1638 1179 1638 1147 1638 c 2,8,-1
 206 1638 l 2,9,10
 174 1638 174 1638 152 1617 c 128,-1,11
 130 1596 130 1596 130 1564 c 2,12,-1
 130 1362 l 2,13,14
 130 1330 130 1330 152 1309 c 128,-1,15
 174 1288 174 1288 206 1288 c 2,16,-1
 583 1288 l 2,17,18
 598 1288 598 1288 608 1277.5 c 128,-1,19
 618 1267 618 1267 618 1252 c 2,20,-1
 618 213 l 2,21,22
 618 198 618 198 608 188 c 128,-1,23
 598 178 598 178 583 178 c 2,24,-1
 206 178 l 2,25,26
 174 178 174 178 152 157 c 128,-1,27
 130 136 130 136 130 104 c 2,28,-1
 130 -100 l 2,29,30
 130 -132 130 -132 152 -153 c 128,-1,31
 174 -174 174 -174 206 -174 c 2,0,-1
EndSplineSet
EndChar

StartChar: asciicircum
Encoding: 94 94 65
Width: 1299
GlyphClass: 2
Flags: W
LayerCount: 2
Fore
SplineSet
-84 201 m 2,0,-1
 255 201 l 2,1,2
 289 201 289 201 318 220 c 128,-1,3
 347 239 347 239 362 270 c 2,4,-1
 610 802 l 2,5,6
 614 812 614 812 625 812 c 128,-1,7
 636 812 636 812 642 802 c 1,8,-1
 892 270 l 2,9,10
 906 239 906 239 935 220 c 128,-1,11
 964 201 964 201 998 201 c 2,12,-1
 1359 201 l 2,13,14
 1379 201 1379 201 1392 214.5 c 128,-1,15
 1405 228 1405 228 1405 244 c 128,-1,16
 1405 260 1405 260 1400 269 c 2,17,-1
 940 1139 l 1,18,19
 902.709677419 1207 902.709677419 1207 830 1207 c 2,20,-1
 462 1207 l 2,21,22
 388.966666667 1207 388.966666667 1207 351 1140 c 1,23,-1
 -124 268 l 2,24,25
 -130 257 -130 257 -130 242.5 c 128,-1,26
 -130 228 -130 228 -117 214.5 c 128,-1,27
 -104 201 -104 201 -84 201 c 2,0,-1
EndSplineSet
EndChar

StartChar: underscore
Encoding: 95 95 66
Width: 1164
GlyphClass: 2
Flags: W
LayerCount: 2
Fore
SplineSet
100 -203 m 2,0,1
 100 -277 100 -277 164 -277 c 2,2,-1
 996 -277 l 2,3,4
 1060 -277 1060 -277 1060 -203 c 2,5,-1
 1060 -73 l 2,6,7
 1060 -40 1060 -40 1043.5 -20 c 128,-1,8
 1027 0 1027 0 996 0 c 2,9,-1
 164 0 l 2,10,11
 133 0 133 0 116.5 -20 c 128,-1,12
 100 -40 100 -40 100 -73 c 2,13,-1
 100 -203 l 2,0,1
EndSplineSet
EndChar

StartChar: grave
Encoding: 96 96 67
Width: 1745
GlyphClass: 4
Flags: W
LayerCount: 2
Fore
SplineSet
1030 1172 m 0,0,1
 1064 1172 1064 1172 1064 1202 c 0,2,3
 1064 1210.5 1064 1210.5 1062.5 1218.75 c 128,-1,4
 1061 1227 1061 1227 1060 1234 c 2,5,-1
 998 1563 l 2,6,7
 993 1591 993 1591 979 1602.5 c 128,-1,8
 965 1614 965 1614 936 1615 c 1,9,10
 934 1618 934 1618 808.5 1618 c 128,-1,11
 683 1618 683 1618 671.5 1615 c 0,12,13
 642 1607.30434783 642 1607.30434783 642 1594 c 1,14,15
 639 1590 639 1590 639 1585 c 128,-1,16
 639 1580 639 1580 640.5 1575 c 128,-1,17
 642 1570 642 1570 644.5 1565.5 c 128,-1,18
 647 1561 647 1561 650 1555 c 2,19,-1
 838 1211 l 1,20,21
 838 1206.5 838 1206.5 847 1195.25 c 128,-1,22
 856 1184 856 1184 859.5 1182 c 128,-1,23
 863 1180 863 1180 868 1177 c 0,24,25
 876.333333333 1172 876.333333333 1172 894 1172 c 0,26,27
 962 1172 962 1172 1030 1172 c 0,0,1
EndSplineSet
EndChar

StartChar: a
Encoding: 97 97 68
Width: 1972
GlyphClass: 2
Flags: W
LayerCount: 2
Fore
SplineSet
139 239 m 0,0,1
 139 102 139 102 306.5 30.5 c 128,-1,2
 474 -41 474 -41 737.5 -41 c 128,-1,3
 1001 -41 1001 -41 1180.5 27.5 c 128,-1,4
 1360 96 1360 96 1445 215 c 0,5,6
 1456 230 1456 230 1462.5 230 c 128,-1,7
 1469 230 1469 230 1474.5 214 c 128,-1,8
 1480 198 1480 198 1549 66 c 1,9,10
 1578.80645161 1.13686837722e-13 1578.80645161 1.13686837722e-13 1647 0 c 2,11,-1
 1766 0 l 2,12,13
 1792 0 1792 0 1809.5 19.5 c 128,-1,14
 1827 39 1827 39 1827 68 c 2,15,-1
 1827 622 l 2,16,17
 1827 1007.32608696 1827 1007.32608696 1155 1047.5 c 0,18,19
 1063 1053 1063 1053 957 1053 c 0,20,21
 602 1053 602 1053 415 1003 c 128,-1,22
 228 953 228 953 179 846 c 1,23,24
 168 817 168 817 168 803 c 128,-1,25
 168 789 168 789 177.5 777.5 c 128,-1,26
 187 766 187 766 200 765 c 2,27,-1
 576 731 l 2,28,29
 594 729 594 729 609.5 729 c 128,-1,30
 625 729 625 729 667 767 c 128,-1,31
 709 805 709 805 796.5 827 c 128,-1,32
 884 849 884 849 961 849 c 0,33,34
 1115 849 1115 849 1181.5 800 c 128,-1,35
 1248 751 1248 751 1248 654 c 2,36,-1
 1248 639 l 2,37,38
 1248 629 1248 629 1011 612 c 0,39,40
 140.350210119 549.548327308 140.350210119 549.548327308 139 239 c 0,0,1
1232 456 m 128,-1,42
 1260 456 1260 456 1260 424 c 0,43,44
 1260 356 1260 356 1203 298 c 128,-1,45
 1146 240 1146 240 1050 207 c 128,-1,46
 954 174 954 174 843 174 c 0,47,48
 683 174 683 174 681 271 c 1,49,50
 681 340 681 340 807 380.5 c 128,-1,51
 933 421 933 421 1194 454 c 0,52,41
 1204 456 1204 456 1232 456 c 128,-1,42
EndSplineSet
EndChar

StartChar: b
Encoding: 98 98 69
Width: 2036
GlyphClass: 2
Flags: W
LayerCount: 2
Fore
SplineSet
1863 301 m 0,0,1
 1905 391 1905 391 1905 501.5 c 128,-1,2
 1905 612 1905 612 1864 706 c 128,-1,3
 1823 800 1823 800 1754 863 c 128,-1,4
 1685 926 1685 926 1593 970 c 0,5,6
 1419.45454545 1053 1419.45454545 1053 1197 1053 c 0,7,8
 1059 1053 1059 1053 936 1017.5 c 128,-1,9
 813 982 813 982 731 916 c 0,10,11
 726 912 726 912 721 912 c 0,12,13
 705 912 705 912 705 929 c 2,14,-1
 705 1360 l 2,15,16
 705 1392 705 1392 683.5 1414 c 128,-1,17
 662 1436 662 1436 630 1436 c 2,18,-1
 235 1436 l 2,19,20
 203 1436 203 1436 181 1414 c 128,-1,21
 159 1392 159 1392 159 1360 c 2,22,-1
 159 67 l 2,23,24
 159 0 159 0 218 0 c 2,25,-1
 320 0 l 2,26,27
 351 0 351 0 369 17.5 c 128,-1,28
 387 35 387 35 423 92.5 c 128,-1,29
 459 150 459 150 489 201 c 0,30,31
 497 213 497 213 506.5 213 c 128,-1,32
 516 213 516 213 522 205 c 0,33,34
 620 87 620 87 794.5 23 c 128,-1,35
 969 -41 969 -41 1184.09195402 -41 c 128,-1,36
 1399.18390805 -41 1399.18390805 -41 1592.35303558 46.9880319149 c 128,-1,37
 1785.52216312 134.97606383 1785.52216312 134.97606383 1863 301 c 0,0,1
1249.5 312.5 m 128,-1,39
 1166 231 1166 231 1021 231 c 128,-1,40
 876 231 876 231 790.5 312.5 c 128,-1,41
 705 394 705 394 705 512.5 c 128,-1,42
 705 631 705 631 791 712.5 c 128,-1,43
 877 794 877 794 1021.5 794 c 128,-1,44
 1166 794 1166 794 1249.5 713.5 c 128,-1,45
 1333 633 1333 633 1333 513.5 c 128,-1,38
 1333 394 1333 394 1249.5 312.5 c 128,-1,39
EndSplineSet
EndChar

StartChar: c
Encoding: 99 99 70
Width: 1798
GlyphClass: 2
Flags: W
LayerCount: 2
Fore
SplineSet
791 -28.5 m 128,-1,1
 895 -41 895 -41 1028 -41 c 128,-1,2
 1161 -41 1161 -41 1317.5 -17 c 128,-1,3
 1474 7 1474 7 1596 49 c 0,4,5
 1646 66.3913043478 1646 66.3913043478 1646 115 c 0,6,7
 1646 127 1646 127 1643 135.5 c 128,-1,8
 1640 144 1640 144 1622 196.5 c 128,-1,9
 1604 249 1604 249 1600.5 258.5 c 128,-1,10
 1597 268 1597 268 1587.5 279 c 0,11,12
 1568.5 301 1568.5 301 1550.25 301 c 128,-1,13
 1532 301 1532 301 1528 300.5 c 128,-1,14
 1524 300 1524 300 1519.5 299 c 128,-1,15
 1515 298 1515 298 1510 297 c 0,16,17
 1293 231 1293 231 1104 231 c 0,18,19
 797.197916667 231 797.197916667 231 721.5 400 c 0,20,21
 700 448 700 448 700 515 c 128,-1,22
 700 582 700 582 730.5 635.5 c 128,-1,23
 761 689 761 689 814.5 719.5 c 0,24,25
 917.114754098 778 917.114754098 778 1094.05737705 778 c 129,-1,26
 1271 778 1271 778 1500 699 c 0,27,28
 1514 694 1514 694 1529 694 c 0,29,30
 1577 694 1577 694 1596 741 c 1,31,32
 1613 790 1613 790 1626 823 c 128,-1,33
 1639 856 1639 856 1640 860 c 128,-1,34
 1641 864 1641 864 1641 868 c 128,-1,35
 1641 872 1641 872 1641 885.5 c 128,-1,36
 1641 899 1641 899 1628 919.5 c 128,-1,37
 1615 940 1615 940 1593 949 c 0,38,39
 1337.33333333 1053 1337.33333333 1053 996 1053 c 0,40,41
 556.557377049 1053 556.557377049 1053 313 874 c 0,42,43
 230 813 230 813 180 719 c 128,-1,44
 130 625 130 625 130 517 c 128,-1,45
 130 409 130 409 164.5 325.5 c 128,-1,46
 199 242 199 242 261.5 182.5 c 128,-1,47
 324 123 324 123 405.5 79 c 128,-1,48
 487 35 487 35 587 9.5 c 128,-1,0
 687 -16 687 -16 791 -28.5 c 128,-1,1
EndSplineSet
EndChar

StartChar: d
Encoding: 100 100 71
Width: 2038
GlyphClass: 2
Flags: W
LayerCount: 2
Fore
SplineSet
1239.5 22 m 128,-1,1
 1413 85 1413 85 1511 201 c 1,2,3
 1520 210 1520 210 1531.5 210.5 c 128,-1,4
 1543 211 1543 211 1548 203 c 0,5,6
 1628 75 1628 75 1640.5 53.5 c 0,7,8
 1671.60465116 2.3803181648e-13 1671.60465116 2.3803181648e-13 1724 0 c 2,9,-1
 1805 0 l 2,10,11
 1837 0 1837 0 1857.5 21.5 c 128,-1,12
 1878 43 1878 43 1878 76 c 2,13,-1
 1878 1360 l 2,14,15
 1878 1392 1878 1392 1856.5 1414 c 128,-1,16
 1835 1436 1835 1436 1803 1436 c 2,17,-1
 1408 1436 l 2,18,19
 1376 1436 1376 1436 1354 1414 c 128,-1,20
 1332 1392 1332 1392 1332 1360 c 2,21,-1
 1332 930 l 2,22,23
 1332 911 1332 911 1317 911 c 1,24,25
 1309 914 1309 914 1306 916 c 0,26,27
 1223 982 1223 982 1100 1017.5 c 128,-1,28
 977 1053 977 1053 855.5 1053 c 128,-1,29
 734 1053 734 1053 634.5 1033.5 c 128,-1,30
 535 1014 535 1014 443 970 c 128,-1,31
 351 926 351 926 282.5 863 c 128,-1,32
 214 800 214 800 173 706 c 128,-1,33
 132 612 132 612 132 501.5 c 128,-1,34
 132 391 132 391 174 301 c 128,-1,35
 216 211 216 211 287.5 148.5 c 128,-1,36
 359 86 359 86 454 42.5 c 0,37,38
 636.356321839 -41 636.356321839 -41 851.17816092 -41 c 128,-1,0
 1066 -41 1066 -41 1239.5 22 c 128,-1,1
1246.5 312.5 m 128,-1,40
 1161 231 1161 231 1016 231 c 128,-1,41
 871 231 871 231 787.5 312.5 c 128,-1,42
 704 394 704 394 704 513.5 c 128,-1,43
 704 633 704 633 787.5 713.5 c 128,-1,44
 871 794 871 794 1015.5 794 c 128,-1,45
 1160 794 1160 794 1246 713 c 128,-1,46
 1332 632 1332 632 1332 513 c 128,-1,39
 1332 394 1332 394 1246.5 312.5 c 128,-1,40
EndSplineSet
EndChar

StartChar: e
Encoding: 101 101 72
Width: 1900
GlyphClass: 2
Flags: W
LayerCount: 2
Fore
SplineSet
1766 490 m 1,0,-1
 1767 533 l 1,1,2
 1765 644 1765 644 1718 734 c 128,-1,3
 1671 824 1671 824 1594.5 882.5 c 128,-1,4
 1518 941 1518 941 1416 980.5 c 0,5,6
 1228.78481013 1053 1228.78481013 1053 985 1053 c 0,7,8
 292.416666667 1053 292.416666667 1053 159.5 676 c 0,9,10
 132 598 132 598 132 503 c 128,-1,11
 132 408 132 408 162.5 329 c 128,-1,12
 193 250 193 250 243.5 194.5 c 128,-1,13
 294 139 294 139 367 96.5 c 128,-1,14
 440 54 440 54 518.5 28.5 c 128,-1,15
 597 3 597 3 690.5 -13 c 0,16,17
 854.125 -41 854.125 -41 1003.0625 -41 c 128,-1,18
 1152 -41 1152 -41 1343.5 -13 c 128,-1,19
 1535 15 1535 15 1644 50 c 0,20,21
 1691 65 1691 65 1691 114 c 0,22,23
 1691 143.571428571 1691 143.571428571 1676 184.285714286 c 128,-1,24
 1661 225 1661 225 1657.5 236 c 128,-1,25
 1654 247 1654 247 1644.5 257.5 c 0,26,27
 1624.76923077 279.307692308 1624.76923077 279.307692308 1595.21301775 279.307692308 c 0,28,29
 1582.07692308 279.307692308 1582.07692308 279.307692308 1567 275 c 0,30,31
 1482 249 1482 249 1352 229.5 c 128,-1,32
 1222 210 1222 210 1126 210 c 128,-1,33
 1030 210 1030 210 961 221 c 128,-1,34
 892 232 892 232 833 255.5 c 0,35,36
 705 306.483050847 705 306.483050847 705 419 c 0,37,38
 705 449 705 449 729 449 c 2,39,-1
 1714 449 l 2,40,41
 1737 449 1737 449 1750.5 461 c 128,-1,42
 1764 473 1764 473 1766 490 c 1,0,-1
718 615 m 2,43,44
 707 615 707 615 707 644 c 1,45,46
 714 725 714 725 797 780 c 128,-1,47
 880 835 880 835 997 835 c 128,-1,48
 1114 835 1114 835 1187 779.5 c 128,-1,49
 1260 724 1260 724 1272 639 c 1,50,51
 1272 615 1272 615 1261 615 c 2,52,-1
 718 615 l 2,43,44
EndSplineSet
EndChar

StartChar: f
Encoding: 102 102 73
Width: 1585
GlyphClass: 2
Flags: W
LayerCount: 2
Fore
SplineSet
347 799 m 2,0,1
 367 799 367 799 367 762 c 2,2,-1
 367 77 l 2,3,4
 367 45 367 45 389.5 22.5 c 128,-1,5
 412 0 412 0 444 0 c 2,6,-1
 864 0 l 2,7,8
 896 0 896 0 918.5 22.5 c 128,-1,9
 941 45 941 45 941 77 c 2,10,-1
 941 762 l 2,11,12
 941 799 941 799 964 799 c 2,13,-1
 1358 799 l 2,14,15
 1393 799 1393 799 1409 810 c 128,-1,16
 1425 821 1425 821 1425 851 c 2,17,-1
 1425 951 l 2,18,19
 1425 982 1425 982 1408.5 994 c 128,-1,20
 1392 1006 1392 1006 1358 1006 c 2,21,-1
 948 1006 l 2,22,23
 941 1006 941 1006 941 1013 c 2,24,-1
 941 1062 l 2,25,26
 941 1199 941 1199 1201 1199 c 0,27,28
 1243.25 1199 1243.25 1199 1370 1186 c 1,29,-1
 1408 1181 l 1,30,31
 1433 1181 1433 1181 1441 1191 c 128,-1,32
 1449 1201 1449 1201 1449 1230 c 2,33,-1
 1449 1377 l 2,34,35
 1449 1398 1449 1398 1434.5 1415.5 c 128,-1,36
 1420 1433 1420 1433 1399 1438 c 1,37,38
 1183 1475 1183 1475 1054 1475 c 128,-1,39
 925 1475 925 1475 834.5 1461.5 c 128,-1,40
 744 1448 744 1448 660 1416 c 128,-1,41
 576 1384 576 1384 514.5 1335.5 c 0,42,43
 379.827322404 1229.29471767 379.827322404 1229.29471767 368 1044 c 0,44,45
 366.287581699 1018.31372549 366.287581699 1018.31372549 360.64379085 1012.15686275 c 128,-1,46
 355 1006 355 1006 345 1006 c 2,47,-1
 195 1006 l 2,48,49
 128 1006 128 1006 128 945 c 2,50,-1
 128 851 l 2,51,52
 128 821 128 821 144 810 c 128,-1,53
 160 799 160 799 195 799 c 2,54,-1
 347 799 l 2,0,1
EndSplineSet
EndChar

StartChar: g
Encoding: 103 103 74
Width: 1761
GlyphClass: 2
Flags: W
LayerCount: 2
Fore
SplineSet
864 -732 m 0,0,1
 1538.46456693 -732 1538.46456693 -732 1635 -425.5 c 0,2,3
 1655 -362 1655 -362 1655 -288 c 128,-1,4
 1655 -214 1655 -214 1638 -156.5 c 128,-1,5
 1621 -99 1621 -99 1579.5 -45 c 128,-1,6
 1538 9 1538 9 1473 47 c 0,7,8
 1331.02631579 130 1331.02631579 130 1073 130 c 2,9,-1
 769 130 l 2,10,11
 618 130 618 130 553 145 c 128,-1,12
 488 160 488 160 488 204 c 0,13,14
 488 274.5 488 274.5 536 298.5 c 0,15,16
 553 307 553 307 566 304 c 0,17,18
 700 275 700 275 865 275 c 128,-1,19
 1030 275 1030 275 1144.5 296.5 c 128,-1,20
 1259 318 1259 318 1331.5 355 c 128,-1,21
 1404 392 1404 392 1451.5 444 c 0,22,23
 1537 537.6 1537 537.6 1537 675 c 0,24,25
 1537 769 1537 769 1464 848 c 128,-1,26
 1391 927 1391 927 1268 976 c 0,27,28
 1255 982 1255 982 1251 995.5 c 128,-1,29
 1247 1009 1247 1009 1254 1021 c 2,30,-1
 1442 1316 l 2,31,32
 1449 1326 1449 1326 1449 1340.5 c 128,-1,33
 1449 1355 1449 1355 1437 1367.5 c 128,-1,34
 1425 1380 1425 1380 1407 1380 c 2,35,-1
 1190 1380 l 2,36,37
 1158 1380 1158 1380 1132.5 1359 c 128,-1,38
 1107 1338 1107 1338 1100 1306 c 2,39,-1
 1045 1070 l 2,40,41
 1042 1056 1042 1056 1029 1046.5 c 128,-1,42
 1016 1037 1016 1037 1001 1039 c 0,43,44
 869 1053 869 1053 781 1053 c 128,-1,45
 693 1053 693 1053 573 1032.5 c 128,-1,46
 453 1012 453 1012 373.5 977.5 c 128,-1,47
 294 943 294 943 241.5 894.5 c 0,48,49
 143 803.504761905 143 803.504761905 143 675 c 0,50,51
 143 602 143 602 186.5 528.5 c 128,-1,52
 230 455 230 455 306 397 c 0,53,54
 317 389 317 389 317 377.5 c 128,-1,55
 317 366 317 366 303 358 c 0,56,57
 236 317 236 317 193.5 248 c 128,-1,58
 151 179 151 179 151 106 c 128,-1,59
 151 33 151 33 206.5 -32.5 c 128,-1,60
 262 -98 262 -98 354 -138 c 1,61,62
 367 -145 367 -145 367 -154.5 c 128,-1,63
 367 -164 367 -164 356 -169 c 1,64,65
 267 -224 267 -224 215.5 -313 c 128,-1,66
 164 -402 164 -402 164 -472 c 0,67,68
 164 -589 164 -589 341 -660.5 c 128,-1,69
 518 -732 518 -732 864 -732 c 0,0,1
1055 -429.5 m 128,-1,71
 970 -437 970 -437 833 -437 c 128,-1,72
 696 -437 696 -437 617.5 -408.5 c 128,-1,73
 539 -380 539 -380 539 -340 c 0,74,75
 539 -313 539 -313 595.5 -258.5 c 128,-1,76
 652 -204 652 -204 674 -204 c 2,77,-1
 1099 -204 l 2,78,79
 1182 -204 1182 -204 1235 -238 c 128,-1,80
 1288 -272 1288 -272 1288 -314 c 0,81,82
 1288 -336 1288 -336 1283 -350.5 c 128,-1,83
 1278 -365 1278 -365 1254 -383 c 128,-1,84
 1230 -401 1230 -401 1185 -411.5 c 128,-1,70
 1140 -422 1140 -422 1055 -429.5 c 128,-1,71
1036.5 560 m 128,-1,86
 975 518 975 518 845.5 518 c 128,-1,87
 716 518 716 518 653.5 563 c 128,-1,88
 591 608 591 608 591 676.5 c 128,-1,89
 591 745 591 745 653 788.5 c 128,-1,90
 715 832 715 832 842.5 832 c 128,-1,91
 970 832 970 832 1034 785 c 128,-1,92
 1098 738 1098 738 1098 670 c 128,-1,85
 1098 602 1098 602 1036.5 560 c 128,-1,86
EndSplineSet
EndChar

StartChar: h
Encoding: 104 104 75
Width: 2022
GlyphClass: 2
Flags: W
LayerCount: 2
Fore
SplineSet
725 906 m 0,0,1
 709 906 709 906 709 923 c 2,2,-1
 709 1362 l 2,3,4
 709 1394 709 1394 687 1416 c 128,-1,5
 665 1438 665 1438 633 1438 c 2,6,-1
 235 1438 l 2,7,8
 203 1438 203 1438 181 1416 c 128,-1,9
 159 1394 159 1394 159 1362 c 2,10,-1
 159 76 l 2,11,12
 159 44 159 44 181 22 c 128,-1,13
 203 0 203 0 235 0 c 2,14,-1
 633 0 l 2,15,16
 665 0 665 0 687 22 c 128,-1,17
 709 44 709 44 709 76 c 2,18,-1
 709 513 l 2,19,20
 709 619 709 619 797 700 c 128,-1,21
 885 781 885 781 1023 781 c 128,-1,22
 1161 781 1161 781 1238.5 704 c 128,-1,23
 1316 627 1316 627 1316 513 c 2,24,-1
 1316 76 l 2,25,26
 1316 44 1316 44 1337.5 22 c 128,-1,27
 1359 0 1359 0 1391 0 c 2,28,-1
 1804 0 l 2,29,30
 1836 0 1836 0 1857.5 22 c 128,-1,31
 1879 44 1879 44 1879 76 c 2,32,-1
 1879 518 l 2,33,34
 1879 645 1879 645 1824 748.5 c 128,-1,35
 1769 852 1769 852 1676 917.5 c 0,36,37
 1483.61068702 1053 1483.61068702 1053 1207.80534351 1053 c 128,-1,38
 932 1053 932 1053 736 909 c 0,39,40
 731.5 906 731.5 906 725 906 c 0,0,1
EndSplineSet
EndChar

StartChar: i
Encoding: 105 105 76
Width: 869
GlyphClass: 2
Flags: W
LayerCount: 2
Fore
SplineSet
236 0 m 2,0,-1
 634 0 l 2,1,2
 666 0 666 0 687.5 22 c 128,-1,3
 709 44 709 44 709 76 c 2,4,-1
 709 931 l 2,5,6
 709 963 709 963 687.5 984.5 c 128,-1,7
 666 1006 666 1006 634 1006 c 2,8,-1
 236 1006 l 2,9,10
 204 1006 204 1006 182 984.5 c 128,-1,11
 160 963 160 963 160 931 c 2,12,-1
 160 76 l 2,13,14
 160 44 160 44 182 22 c 128,-1,15
 204 0 204 0 236 0 c 2,0,-1
236 1156 m 2,16,-1
 634 1156 l 2,17,18
 666 1156 666 1156 687.5 1178 c 128,-1,19
 709 1200 709 1200 709 1232 c 2,20,-1
 709 1441 l 2,21,22
 709 1473 709 1473 687.5 1494.5 c 128,-1,23
 666 1516 666 1516 634 1516 c 2,24,-1
 236 1516 l 2,25,26
 204 1516 204 1516 182 1494.5 c 128,-1,27
 160 1473 160 1473 160 1441 c 2,28,-1
 160 1232 l 2,29,30
 160 1200 160 1200 182 1178 c 128,-1,31
 204 1156 204 1156 236 1156 c 2,16,-1
EndSplineSet
EndChar

StartChar: j
Encoding: 106 106 77
Width: 1180
GlyphClass: 2
Flags: W
LayerCount: 2
Fore
SplineSet
250 -146 m 1,0,-1
 124 -139 l 1,1,2
 97 -139 97 -139 78.5 -158 c 128,-1,3
 60 -177 60 -177 60 -206 c 2,4,-1
 60 -344 l 2,5,6
 60 -377 60 -377 81 -401 c 128,-1,7
 102 -425 102 -425 134 -429 c 0,8,9
 261 -446 261 -446 367 -446 c 128,-1,10
 473 -446 473 -446 566 -431.5 c 128,-1,11
 659 -417 659 -417 744 -383.5 c 128,-1,12
 829 -350 829 -350 889 -299 c 0,13,14
 1020 -187.65 1020 -187.65 1020 11 c 2,15,-1
 1020 931 l 2,16,17
 1020 963 1020 963 998 984.5 c 128,-1,18
 976 1006 976 1006 944 1006 c 2,19,-1
 545 1006 l 2,20,21
 513 1006 513 1006 491 984.5 c 128,-1,22
 469 963 469 963 469 931 c 2,23,-1
 469 14 l 2,24,25
 469 -146 469 -146 250 -146 c 1,0,-1
543 1156 m 2,26,-1
 941 1156 l 2,27,28
 973 1156 973 1156 995 1178 c 128,-1,29
 1017 1200 1017 1200 1017 1232 c 2,30,-1
 1017 1441 l 2,31,32
 1017 1473 1017 1473 995 1494.5 c 128,-1,33
 973 1516 973 1516 941 1516 c 2,34,-1
 543 1516 l 2,35,36
 511 1516 511 1516 489.5 1494.5 c 128,-1,37
 468 1473 468 1473 468 1441 c 2,38,-1
 468 1232 l 2,39,40
 468 1200 468 1200 489.5 1178 c 128,-1,41
 511 1156 511 1156 543 1156 c 2,26,-1
EndSplineSet
EndChar

StartChar: k
Encoding: 107 107 78
Width: 2006
GlyphClass: 2
Flags: W
LayerCount: 2
Fore
SplineSet
1828 982 m 0,0,1
 1828 1006 1828 1006 1801 1006 c 2,2,-1
 1236 1006 l 2,3,4
 1165 1006 1165 1006 1097 957 c 2,5,-1
 737 703 l 1,6,7
 729 699 729 699 727 699 c 0,8,9
 709 699 709 699 709 717 c 2,10,-1
 709 1369 l 2,11,12
 709 1401 709 1401 687.5 1422.5 c 128,-1,13
 666 1444 666 1444 634 1444 c 2,14,-1
 236 1444 l 2,15,16
 204 1444 204 1444 182 1422.5 c 128,-1,17
 160 1401 160 1401 160 1369 c 2,18,-1
 160 76 l 2,19,20
 160 44 160 44 182 22 c 128,-1,21
 204 0 204 0 236 0 c 2,22,-1
 634 0 l 2,23,24
 666 0 666 0 687.5 22 c 128,-1,25
 709 44 709 44 709 76 c 2,26,-1
 709 219 l 2,27,28
 709 253 709 253 735 274 c 1,29,30
 748 287 748 287 868 377 c 1,31,32
 878 386 878 386 891 386 c 128,-1,33
 904 386 904 386 918 374 c 1,34,-1
 1231 59 l 2,35,36
 1270.57142857 19.4285714286 1270.57142857 19.4285714286 1292.28571429 9.71428571429 c 128,-1,37
 1314 0 1314 0 1336 0 c 2,38,-1
 1843 0 l 2,39,40
 1857 0 1857 0 1866 9 c 128,-1,41
 1875 18 1875 18 1875 31 c 128,-1,42
 1875 44 1875 44 1863 56 c 2,43,-1
 1324 570 l 2,44,45
 1315 579 1315 579 1315 592.5 c 128,-1,46
 1315 606 1315 606 1327 613 c 1,47,-1
 1811 958 l 2,48,49
 1828 969 1828 969 1828 982 c 0,0,1
EndSplineSet
EndChar

StartChar: l
Encoding: 108 108 79
Width: 872
GlyphClass: 2
Flags: W
LayerCount: 2
Fore
SplineSet
236 0 m 2,0,-1
 635 0 l 2,1,2
 667 0 667 0 688.5 22 c 128,-1,3
 710 44 710 44 710 76 c 2,4,-1
 710 1369 l 2,5,6
 710 1401 710 1401 688.5 1422.5 c 128,-1,7
 667 1444 667 1444 635 1444 c 2,8,-1
 236 1444 l 2,9,10
 204 1444 204 1444 182.5 1422.5 c 128,-1,11
 161 1401 161 1401 161 1369 c 2,12,-1
 161 76 l 2,13,14
 161 44 161 44 182.5 22 c 128,-1,15
 204 0 204 0 236 0 c 2,0,-1
EndSplineSet
EndChar

StartChar: m
Encoding: 109 109 80
Width: 2960
GlyphClass: 2
Flags: W
LayerCount: 2
Fore
SplineSet
229 0 m 2,0,-1
 627 0 l 2,1,2
 659 0 659 0 680.5 22 c 128,-1,3
 702 44 702 44 702 76 c 2,4,-1
 702 420 l 2,5,6
 702 565.034482759 702 565.034482759 757 666.5 c 0,7,8
 819.065420561 781 819.065420561 781 967 781 c 0,9,10
 1076 781 1076 781 1139.5 703.5 c 128,-1,11
 1203 626 1203 626 1203 513 c 2,12,-1
 1203 76 l 2,13,14
 1203 44 1203 44 1224.5 22 c 128,-1,15
 1246 0 1246 0 1278 0 c 2,16,-1
 1679 0 l 2,17,18
 1711 0 1711 0 1733 22 c 128,-1,19
 1755 44 1755 44 1755 76 c 2,20,-1
 1755 485 l 2,21,22
 1755 681.285714286 1755 681.285714286 1870 747 c 0,23,24
 1929.5 781 1929.5 781 2010 781 c 0,25,26
 2135 781 2135 781 2194.5 717.5 c 128,-1,27
 2254 654 2254 654 2254 513 c 2,28,-1
 2254 76 l 2,29,30
 2254 44 2254 44 2276 22 c 128,-1,31
 2298 0 2298 0 2330 0 c 2,32,-1
 2743 0 l 2,33,34
 2775 0 2775 0 2796.5 22 c 128,-1,35
 2818 44 2818 44 2818 76 c 2,36,-1
 2818 518 l 2,37,38
 2818 648 2818 648 2763.5 752 c 128,-1,39
 2709 856 2709 856 2616.5 920.5 c 0,40,41
 2426.48062016 1053 2426.48062016 1053 2158 1053 c 0,42,43
 2013 1053 2013 1053 1882 1007 c 128,-1,44
 1751 961 1751 961 1660 874 c 0,45,46
 1647 861 1647 861 1633 861 c 128,-1,47
 1619 861 1619 861 1607 873 c 0,48,49
 1519 962 1519 962 1387 1007.5 c 128,-1,50
 1255 1053 1255 1053 1094 1053 c 128,-1,51
 933 1053 933 1053 787.5 991.5 c 128,-1,52
 642 930 642 930 556 813 c 0,53,54
 548 802 548 802 536 802 c 128,-1,55
 524 802 524 802 516 814 c 2,56,-1
 438 942 l 1,57,58
 401 1006 401 1006 324 1006 c 2,59,-1
 227 1006 l 2,60,61
 195 1006 195 1006 174 984 c 128,-1,62
 153 962 153 962 153 929 c 2,63,-1
 153 76 l 2,64,65
 153 44 153 44 175 22 c 128,-1,66
 197 0 197 0 229 0 c 2,0,-1
EndSplineSet
EndChar

StartChar: n
Encoding: 110 110 81
Width: 2024
GlyphClass: 2
Flags: W
LayerCount: 2
Fore
SplineSet
229 0 m 2,0,-1
 627 0 l 2,1,2
 659 0 659 0 680.5 22 c 128,-1,3
 702 44 702 44 702 76 c 2,4,-1
 702 513 l 2,5,6
 702 619 702 619 790 700 c 128,-1,7
 878 781 878 781 1016.5 781 c 128,-1,8
 1155 781 1155 781 1238 703 c 128,-1,9
 1321 625 1321 625 1321 513 c 2,10,-1
 1321 76 l 2,11,12
 1321 44 1321 44 1342.5 22 c 128,-1,13
 1364 0 1364 0 1396 0 c 2,14,-1
 1806 0 l 2,15,16
 1838 0 1838 0 1859.5 22 c 128,-1,17
 1881 44 1881 44 1881 76 c 2,18,-1
 1881 518 l 2,19,20
 1881 696 1881 696 1790 817.5 c 0,21,22
 1613.61728395 1053 1613.61728395 1053 1161 1053 c 0,23,24
 976 1053 976 1053 813.5 991 c 128,-1,25
 651 929 651 929 557 812 c 0,26,27
 548 801 548 801 536 801 c 128,-1,28
 524 801 524 801 516 814 c 2,29,-1
 438 942 l 1,30,31
 401 1006 401 1006 324 1006 c 2,32,-1
 227 1006 l 2,33,34
 195 1006 195 1006 174 984 c 128,-1,35
 153 962 153 962 153 929 c 2,36,-1
 153 76 l 2,37,38
 153 44 153 44 175 22 c 128,-1,39
 197 0 197 0 229 0 c 2,0,-1
EndSplineSet
EndChar

StartChar: o
Encoding: 111 111 82
Width: 2002
GlyphClass: 2
Flags: W
LayerCount: 2
Fore
SplineSet
1001 215 m 128,-1,1
 847 215 847 215 762.5 288 c 128,-1,2
 678 361 678 361 678 500 c 128,-1,3
 678 639 678 639 764.5 718.5 c 128,-1,4
 851 798 851 798 1001 798 c 128,-1,5
 1151 798 1151 798 1237.5 718.5 c 128,-1,6
 1324 639 1324 639 1324 500 c 128,-1,7
 1324 361 1324 361 1239.5 288 c 128,-1,0
 1155 215 1155 215 1001 215 c 128,-1,1
1335 -18 m 0,8,9
 1427 -4 1427 -4 1500 20 c 128,-1,10
 1573 44 1573 44 1644.5 85.5 c 128,-1,11
 1716 127 1716 127 1763.5 183.5 c 0,12,13
 1870 310.178947368 1870 310.178947368 1870 507 c 0,14,15
 1870 1053 1870 1053 1001 1053 c 128,-1,16
 132 1053 132 1053 132 507 c 0,17,18
 132 63.4130434783 132 63.4130434783 667 -18 c 0,19,20
 834 -43.4130434783 834 -43.4130434783 1001 -43.4130434783 c 0,21,-1
 1335 -18 l 0,8,9
EndSplineSet
EndChar

StartChar: p
Encoding: 112 112 83
Width: 2037
GlyphClass: 2
Flags: W
LayerCount: 2
Fore
SplineSet
702 61 m 2,0,1
 702 80 702 80 719 80 c 0,2,3
 724 80 724 80 730 76 c 0,4,5
 897.431034483 -41 897.431034483 -41 1197 -41 c 0,6,7
 1418.55813953 -41 1418.55813953 -41 1594 41 c 0,8,9
 1788.82234245 132.058268753 1788.82234245 132.058268753 1864 303.5 c 0,10,11
 1905 397 1905 397 1905 508 c 128,-1,12
 1905 619 1905 619 1863 709.5 c 128,-1,13
 1821 800 1821 800 1750 862.5 c 128,-1,14
 1679 925 1679 925 1583.5 969 c 0,15,16
 1401.18181818 1053 1401.18181818 1053 1189.09090909 1053 c 128,-1,17
 977 1053 977 1053 812.5 990 c 128,-1,18
 648 927 648 927 555 809 c 1,19,20
 538 792 538 792 532.5 792 c 128,-1,21
 527 792 527 792 520.5 802.5 c 128,-1,22
 514 813 514 813 476 871 c 128,-1,23
 438 929 438 929 437 932 c 0,24,25
 395 999 395 999 322 999 c 2,26,-1
 226 999 l 2,27,28
 194 999 194 999 173.5 977.5 c 128,-1,29
 153 956 153 956 153 924 c 2,30,-1
 153 -246 l 2,31,32
 153 -278 153 -278 172 -298 c 128,-1,33
 191 -318 191 -318 223 -318 c 2,34,-1
 630 -318 l 2,35,36
 662 -318 662 -318 682 -298 c 128,-1,37
 702 -278 702 -278 702 -246 c 2,38,-1
 702 61 l 2,0,1
1248 294.5 m 128,-1,40
 1164 213 1164 213 1019.5 213 c 128,-1,41
 875 213 875 213 788.5 295 c 128,-1,42
 702 377 702 377 702 497 c 128,-1,43
 702 617 702 617 788 699 c 128,-1,44
 874 781 874 781 1019 781 c 128,-1,45
 1164 781 1164 781 1248 698.5 c 128,-1,46
 1332 616 1332 616 1332 496 c 128,-1,39
 1332 376 1332 376 1248 294.5 c 128,-1,40
EndSplineSet
EndChar

StartChar: q
Encoding: 113 113 84
Width: 2040
GlyphClass: 2
Flags: W
LayerCount: 2
Fore
SplineSet
1319 80 m 0,0,1
 1336 80 1336 80 1336 61 c 2,2,-1
 1336 -243 l 2,3,4
 1336 -275 1336 -275 1357.5 -296.5 c 128,-1,5
 1379 -318 1379 -318 1411 -318 c 2,6,-1
 1810 -318 l 2,7,8
 1842 -318 1842 -318 1863.5 -296.5 c 128,-1,9
 1885 -275 1885 -275 1885 -243 c 2,10,-1
 1885 924 l 2,11,12
 1885 956 1885 956 1864.5 977.5 c 128,-1,13
 1844 999 1844 999 1812 999 c 2,14,-1
 1716 999 l 2,15,16
 1643 999 1643 999 1602 933 c 0,17,18
 1601 930 1601 930 1562.5 871.5 c 128,-1,19
 1524 813 1524 813 1519 806 c 128,-1,20
 1514 799 1514 799 1503.5 799 c 128,-1,21
 1493 799 1493 799 1483 809 c 1,22,23
 1390 927 1390 927 1225.5 990 c 128,-1,24
 1061 1053 1061 1053 911.5 1053 c 128,-1,25
 762 1053 762 1053 656 1033 c 128,-1,26
 550 1013 550 1013 454.5 969 c 128,-1,27
 359 925 359 925 287.5 862.5 c 0,28,29
 132 726.573426573 132 726.573426573 132 511 c 0,30,31
 132 186.826086957 132 186.826086957 444 41 c 0,32,33
 619.441860465 -41 619.441860465 -41 841 -41 c 0,34,35
 1140.56896552 -41 1140.56896552 -41 1308 76 c 0,36,37
 1314 80 1314 80 1319 80 c 0,0,1
1249.5 295.5 m 128,-1,39
 1163 213 1163 213 1018.5 213 c 128,-1,40
 874 213 874 213 790 294.5 c 128,-1,41
 706 376 706 376 706 496 c 128,-1,42
 706 616 706 616 790 698.5 c 128,-1,43
 874 781 874 781 1019 781 c 128,-1,44
 1164 781 1164 781 1250 699 c 128,-1,45
 1336 617 1336 617 1336 497.5 c 128,-1,38
 1336 378 1336 378 1249.5 295.5 c 128,-1,39
EndSplineSet
EndChar

StartChar: r
Encoding: 114 114 85
Width: 1362
GlyphClass: 2
Flags: W
LayerCount: 2
Fore
SplineSet
1229 990 m 2,0,1
 1229 1053 1229 1053 1076 1053 c 128,-1,2
 923 1053 923 1053 795 998 c 128,-1,3
 667 943 667 943 558 813 c 0,4,5
 548 801 548 801 536 801 c 128,-1,6
 524 801 524 801 516 814 c 2,7,-1
 438 942 l 2,8,9
 417 977 417 977 400 991.5 c 128,-1,10
 383 1006 383 1006 350 1006 c 2,11,-1
 210 1006 l 2,12,13
 153 1006 153 1006 153 929 c 2,14,-1
 153 76 l 2,15,16
 153 44 153 44 175 22 c 128,-1,17
 197 0 197 0 229 0 c 2,18,-1
 627 0 l 2,19,20
 659 0 659 0 680.5 22 c 128,-1,21
 702 44 702 44 702 76 c 2,22,-1
 702 466 l 2,23,24
 702 539.333333333 702 539.333333333 734 592.666666667 c 128,-1,25
 766 646 766 646 799 675.5 c 0,26,27
 873.389830508 742 873.389830508 742 997 742 c 2,28,-1
 1181 742 l 2,29,30
 1229 742 1229 742 1229 807 c 2,31,-1
 1229 990 l 2,0,1
EndSplineSet
EndChar

StartChar: s
Encoding: 115 115 86
Width: 1827
GlyphClass: 2
Flags: W
LayerCount: 2
Fore
SplineSet
527 -17.5 m 128,-1,1
 720 -41 720 -41 881.5 -41 c 128,-1,2
 1043 -41 1043 -41 1158 -31.5 c 128,-1,3
 1273 -22 1273 -22 1377.5 2 c 128,-1,4
 1482 26 1482 26 1552.5 64.5 c 0,5,6
 1705 147.780141844 1705 147.780141844 1705 307 c 0,7,8
 1705 456.444444444 1705 456.444444444 1599 533 c 0,9,10
 1527.37983587 584.725674091 1527.37983587 584.725674091 1458.18991794 602.862837046 c 128,-1,11
 1389 621 1389 621 1346 629 c 128,-1,12
 1303 637 1303 637 1242.5 643.5 c 0,13,14
 1174.48447205 650.807453416 1174.48447205 650.807453416 1091.74223602 655.903726708 c 0,15,16
 750.961849419 676.893127842 750.961849419 676.893127842 682.980924709 685.946563921 c 128,-1,17
 615 695 615 695 610 727 c 0,18,19
 609 730 609 730 609 733 c 0,20,21
 609 803 609 803 918 803 c 0,22,23
 1234.82857143 803 1234.82857143 803 1432 736 c 0,24,25
 1445.33333333 731 1445.33333333 731 1466.66666667 731 c 0,26,27
 1515.42857143 731 1515.42857143 731 1539 776 c 1,28,-1
 1584 870 l 2,29,30
 1590 883 1590 883 1590 901 c 128,-1,31
 1590 919 1590 919 1578.5 937.5 c 128,-1,32
 1567 956 1567 956 1548 964 c 0,33,34
 1403 1020 1403 1020 1252 1036.5 c 128,-1,35
 1101 1053 1101 1053 964.5 1053 c 128,-1,36
 828 1053 828 1053 778 1051 c 128,-1,37
 728 1049 728 1049 662.5 1043 c 128,-1,38
 597 1037 597 1037 539.5 1025.5 c 128,-1,39
 482 1014 482 1014 422 997 c 128,-1,40
 362 980 362 980 314.5 953 c 128,-1,41
 267 926 267 926 228.5 891.5 c 0,42,43
 148 819.363636364 148 819.363636364 148 703 c 0,44,45
 148 577 148 577 266.5 508 c 0,46,47
 423.440851735 416.616719243 423.440851735 416.616719243 867 388 c 0,48,49
 878 387 878 387 991.5 379.5 c 128,-1,50
 1105 372 1105 372 1161 357.5 c 128,-1,51
 1217 343 1217 343 1217 298 c 128,-1,52
 1217 253 1217 253 1165 235.5 c 128,-1,53
 1113 218 1113 218 993 218 c 0,54,55
 603 218 603 218 316 306 c 0,56,57
 303 310 303 310 283.5 310 c 0,58,59
 236.5 310 236.5 310 211 259 c 2,60,-1
 158 154 l 2,61,62
 153 142 153 142 153 128 c 128,-1,63
 153 114 153 114 158.5 100 c 0,64,65
 170.621359223 69.145631068 170.621359223 69.145631068 197 59 c 0,66,0
 334 6 334 6 527 -17.5 c 128,-1,1
EndSplineSet
EndChar

StartChar: t
Encoding: 116 116 87
Width: 1605
GlyphClass: 4
Flags: W
LayerCount: 2
Fore
SplineSet
838 -25.5 m 128,-1,1
 938 -41 938 -41 1084.5 -41 c 128,-1,2
 1231 -41 1231 -41 1397 -2 c 0,3,4
 1428 6 1428 6 1448.5 31.5 c 128,-1,5
 1469 57 1469 57 1468 88 c 2,6,-1
 1467 232 l 2,7,8
 1467 265.4 1467 265.4 1436 284 c 0,9,10
 1426 290 1426 290 1416.5 290 c 128,-1,11
 1407 290 1407 290 1402.5 289 c 0,12,13
 1245 254 1245 254 1155 254 c 0,14,15
 906 254 906 254 906 433 c 2,16,-1
 906 762 l 2,17,18
 906 777 906 777 916.5 787 c 128,-1,19
 927 797 927 797 942 797 c 2,20,-1
 1314 797 l 2,21,22
 1346 797 1346 797 1367.5 819 c 128,-1,23
 1389 841 1389 841 1389 873 c 2,24,-1
 1389 931 l 2,25,26
 1389 963 1389 963 1367.5 984.5 c 128,-1,27
 1346 1006 1346 1006 1314 1006 c 2,28,-1
 942 1006 l 2,29,30
 927 1006 927 1006 916.5 1016.5 c 128,-1,31
 906 1027 906 1027 906 1042 c 2,32,-1
 906 1374 l 2,33,34
 906 1406 906 1406 884.5 1428 c 128,-1,35
 863 1450 863 1450 831 1450 c 2,36,-1
 476 1450 l 2,37,38
 444 1450 444 1450 423 1428.5 c 128,-1,39
 402 1407 402 1407 401 1374 c 1,40,-1
 332 1042 l 2,41,42
 325 1006 325 1006 297 1006 c 2,43,-1
 171 1006 l 2,44,45
 139 1006 139 1006 117.5 984.5 c 128,-1,46
 96 963 96 963 96 931 c 2,47,-1
 96 873 l 2,48,49
 96 841 96 841 117.5 819 c 128,-1,50
 139 797 139 797 171 797 c 2,51,-1
 297 797 l 2,52,53
 312 797 312 797 322 787 c 128,-1,54
 332 777 332 777 332 762 c 2,55,-1
 332 475 l 2,56,57
 332 362 332 362 373 272 c 128,-1,58
 414 182 414 182 482 124 c 128,-1,59
 550 66 550 66 644 28 c 128,-1,0
 738 -10 738 -10 838 -25.5 c 128,-1,1
EndSplineSet
EndChar

StartChar: u
Encoding: 117 117 88
Width: 2030
GlyphClass: 2
Flags: W
LayerCount: 2
Fore
SplineSet
597.5 -8.5 m 128,-1,1
 725 -42 725 -42 888.5 -42 c 128,-1,2
 1052 -42 1052 -42 1215 20 c 128,-1,3
 1378 82 1378 82 1472 198 c 0,4,5
 1482 210 1482 210 1493.5 210 c 128,-1,6
 1505 210 1505 210 1513 197 c 2,7,-1
 1593 64 l 1,8,9
 1630 0 1630 0 1706 0 c 2,10,-1
 1803 0 l 2,11,12
 1835 0 1835 0 1856 22 c 128,-1,13
 1877 44 1877 44 1877 77 c 2,14,-1
 1877 941 l 2,15,16
 1877 973 1877 973 1855 994.5 c 128,-1,17
 1833 1016 1833 1016 1801 1016 c 2,18,-1
 1403 1016 l 2,19,20
 1371 1016 1371 1016 1349.5 994.5 c 128,-1,21
 1328 973 1328 973 1328 941 c 2,22,-1
 1328 499 l 2,23,24
 1328 393 1328 393 1239.5 312 c 128,-1,25
 1151 231 1151 231 1013 231 c 128,-1,26
 875 231 875 231 797 308 c 128,-1,27
 719 385 719 385 719 499 c 2,28,-1
 719 941 l 2,29,30
 719 973 719 973 697.5 994.5 c 128,-1,31
 676 1016 676 1016 644 1016 c 2,32,-1
 221 1016 l 2,33,34
 189 1016 189 1016 167 994.5 c 128,-1,35
 145 973 145 973 145 941 c 2,36,-1
 145 493 l 2,37,38
 145 362 145 362 205.5 257.5 c 128,-1,39
 266 153 266 153 368 89 c 128,-1,0
 470 25 470 25 597.5 -8.5 c 128,-1,1
EndSplineSet
EndChar

StartChar: v
Encoding: 118 118 89
Width: 1938
GlyphClass: 2
Flags: W
LayerCount: 2
Fore
SplineSet
711 0 m 2,0,-1
 1221 0 l 2,1,2
 1255 0 1255 0 1286 18.5 c 128,-1,3
 1317 37 1317 37 1334 67 c 2,4,-1
 1813 939 l 1,5,6
 1821 951 1821 951 1821 966 c 128,-1,7
 1821 981 1821 981 1808.5 993.5 c 128,-1,8
 1796 1006 1796 1006 1776 1006 c 2,9,-1
 1384 1006 l 2,10,11
 1310.5 1006 1310.5 1006 1276 937 c 1,12,-1
 1021 393 l 2,13,14
 1017 383 1017 383 1006.5 383 c 128,-1,15
 996 383 996 383 990 393 c 2,16,-1
 721 937 l 1,17,18
 688.65625 1006 688.65625 1006 616 1006 c 2,19,-1
 160 1006 l 2,20,21
 140 1006 140 1006 127.5 993.5 c 128,-1,22
 115 981 115 981 115 965 c 128,-1,23
 115 949 115 949 121 938 c 2,24,-1
 600 68 l 2,25,26
 637.290322581 7.1054273576e-14 637.290322581 7.1054273576e-14 711 0 c 2,0,-1
EndSplineSet
EndChar

StartChar: w
Encoding: 119 119 90
Width: 2682
GlyphClass: 2
Flags: W
LayerCount: 2
Fore
SplineSet
570 0 m 2,0,-1
 1082 0 l 2,1,2
 1115 0 1115 0 1143 20.5 c 128,-1,3
 1171 41 1171 41 1181 73 c 2,4,-1
 1318 480 l 2,5,6
 1320 488 1320 488 1327.5 488 c 0,7,8
 1335 488 1335 488 1338 480 c 2,9,-1
 1473 73 l 2,10,11
 1483 41 1483 41 1510 20.5 c 128,-1,12
 1537 0 1537 0 1570 0 c 2,13,-1
 2082 0 l 2,14,15
 2116 0 2116 0 2145.5 19.5 c 128,-1,16
 2175 39 2175 39 2188 70 c 2,17,-1
 2551 936 l 2,18,19
 2557 948 2557 948 2557 963 c 0,20,21
 2557 978 2557 978 2542.5 992 c 128,-1,22
 2528 1006 2528 1006 2507 1006 c 2,23,-1
 2131 1006 l 2,24,25
 2097 1006 2097 1006 2071 986 c 128,-1,26
 2045 966 2045 966 2035 933 c 2,27,-1
 1876 396 l 2,28,29
 1874 388 1874 388 1865 388 c 128,-1,30
 1856 388 1856 388 1855 395 c 1,31,-1
 1668 934 l 2,32,33
 1657 966 1657 966 1631 986 c 128,-1,34
 1605 1006 1605 1006 1573 1006 c 2,35,-1
 1158 1006 l 2,36,37
 1124 1006 1124 1006 1097 986.5 c 128,-1,38
 1070 967 1070 967 1060 934 c 1,39,-1
 877 395 l 2,40,41
 875 387 875 387 867.5 387 c 0,42,43
 860 387 860 387 857 396 c 2,44,-1
 702 932 l 1,45,46
 694 965 694 965 669 985.5 c 128,-1,47
 644 1006 644 1006 610 1006 c 2,48,-1
 172 1006 l 2,49,50
 150 1006 150 1006 135.5 991.5 c 128,-1,51
 121 977 121 977 121 960.5 c 0,52,53
 121 944 121 944 125 935 c 2,54,-1
 468 71 l 2,55,56
 481 39 481 39 509 19.5 c 128,-1,57
 537 0 537 0 570 0 c 2,0,-1
EndSplineSet
EndChar

StartChar: x
Encoding: 120 120 91
Width: 2191
GlyphClass: 2
Flags: W
LayerCount: 2
Fore
SplineSet
158 26 m 0,0,1
 158 0 158 0 184 0 c 2,2,-1
 681 0 l 2,3,4
 759 0 759 0 819 47 c 0,5,6
 829 54 829 54 916.5 121.5 c 128,-1,7
 1004 189 1004 189 1019.5 201.5 c 128,-1,8
 1035 214 1035 214 1049.5 214 c 128,-1,9
 1064 214 1064 214 1078 202.5 c 128,-1,10
 1092 191 1092 191 1173 122 c 128,-1,11
 1254 53 1254 53 1258 50 c 0,12,13
 1316 0 1316 0 1393 0 c 2,14,-1
 2041 0 l 2,15,16
 2053 0 2053 0 2061 8 c 128,-1,17
 2069 16 2069 16 2069 28.5 c 128,-1,18
 2069 41 2069 41 2059 48 c 0,19,20
 1573 443 1573 443 1453 542 c 0,21,22
 1443 550 1443 550 1443 562.5 c 128,-1,23
 1443 575 1443 575 1457 586 c 128,-1,24
 1471 597 1471 597 1709.5 775.5 c 128,-1,25
 1948 954 1948 954 1957.5 961 c 128,-1,26
 1967 968 1967 968 1967 979.5 c 128,-1,27
 1967 991 1967 991 1959.5 998.5 c 128,-1,28
 1952 1006 1952 1006 1941 1006 c 2,29,-1
 1477 1006 l 2,30,31
 1405 1006 1405 1006 1344 958 c 1,32,33
 1327.5 947 1327.5 947 1166 814 c 0,34,35
 1155 806 1155 806 1140.5 806 c 128,-1,36
 1126 806 1126 806 1114 815.5 c 128,-1,37
 1102 825 1102 825 1061.5 859 c 128,-1,38
 1021 893 1021 893 986 923 c 128,-1,39
 951 953 951 953 946 956 c 0,40,41
 888 1006 888 1006 814 1006 c 2,42,-1
 165 1006 l 2,43,44
 153 1006 153 1006 145 998 c 128,-1,45
 137 990 137 990 137 977.5 c 128,-1,46
 137 965 137 965 147 957 c 128,-1,47
 157 949 157 949 423.5 732.5 c 128,-1,48
 690 516 690 516 707 503 c 128,-1,49
 724 490 724 490 724 476.5 c 128,-1,50
 724 463 724 463 711 453.5 c 128,-1,51
 698 444 698 444 438.5 249.5 c 128,-1,52
 179 55 179 55 168.5 46 c 128,-1,53
 158 37 158 37 158 26 c 0,0,1
EndSplineSet
EndChar

StartChar: y
Encoding: 121 121 92
Width: 1844
GlyphClass: 2
Flags: W
LayerCount: 2
Fore
SplineSet
610 -657 m 0,0,1
 866.95 -657 866.95 -657 1008.5 -508 c 0,2,3
 1092.79973118 -419.26344086 1092.79973118 -419.26344086 1162 -269 c 2,4,-1
 1724 936 l 2,5,6
 1729 945 1729 945 1729 961 c 128,-1,7
 1729 977 1729 977 1714.5 991.5 c 128,-1,8
 1700 1006 1700 1006 1679 1006 c 2,9,-1
 1342 1006 l 2,10,11
 1266.52941176 1006 1266.52941176 1006 1239 934 c 0,12,13
 1029 397 1029 397 1024.5 387 c 128,-1,14
 1020 377 1020 377 1009 377 c 128,-1,15
 998 377 998 377 995 387 c 1,16,-1
 712 937 l 1,17,18
 679.65625 1006 679.65625 1006 606 1006 c 2,19,-1
 150 1006 l 2,20,21
 131 1006 131 1006 118.5 994 c 128,-1,22
 106 982 106 982 106 966.5 c 128,-1,23
 106 951 106 951 113 940 c 2,24,-1
 737 -113 l 2,25,26
 739 -117 739 -117 749.5 -134.5 c 128,-1,27
 760 -152 760 -152 766 -162.5 c 128,-1,28
 772 -173 772 -173 779.5 -188 c 0,29,30
 795 -219 795 -219 795 -233 c 1,31,32
 781 -371 781 -371 604 -371 c 0,33,34
 575 -371 575 -371 515.5 -363 c 128,-1,35
 456 -355 456 -355 432 -347.5 c 128,-1,36
 408 -340 408 -340 400 -340 c 0,37,38
 354 -340 354 -340 339 -375 c 2,39,-1
 287 -498 l 2,40,41
 280 -515 280 -515 280 -547.5 c 128,-1,42
 280 -580 280 -580 311 -596 c 0,43,44
 424 -657 424 -657 610 -657 c 0,0,1
EndSplineSet
EndChar

StartChar: z
Encoding: 122 122 93
Width: 1665
GlyphClass: 2
Flags: W
LayerCount: 2
Fore
SplineSet
190 0 m 2,0,-1
 1484 0 l 2,1,2
 1499 0 1499 0 1510 11 c 128,-1,3
 1521 22 1521 22 1521 37 c 2,4,-1
 1521 220 l 2,5,6
 1521 235 1521 235 1510 246 c 128,-1,7
 1499 257 1499 257 1484 257 c 2,8,-1
 884 257 l 1,9,-1
 1453 722 l 2,10,11
 1482 746 1482 746 1482 783 c 2,12,-1
 1482 969 l 2,13,14
 1482 984 1482 984 1468.5 995 c 128,-1,15
 1455 1006 1455 1006 1440 1006 c 2,16,-1
 190 1006 l 2,17,18
 175 1006 175 1006 164 995 c 128,-1,19
 153 984 153 984 153 969 c 2,20,-1
 153 786 l 2,21,22
 153 771 153 771 164 760 c 128,-1,23
 175 749 175 749 190 749 c 2,24,-1
 766 749 l 1,25,-1
 178 280 l 2,26,27
 149 257 149 257 149 220 c 2,28,-1
 149 37 l 2,29,30
 149 22 149 22 162 11 c 128,-1,31
 175 0 175 0 190 0 c 2,0,-1
EndSplineSet
EndChar

StartChar: braceleft
Encoding: 123 123 94
Width: 1172
GlyphClass: 2
Flags: W
LayerCount: 2
Fore
SplineSet
730 -123 m 2,0,-1
 967 -123 l 2,1,2
 999 -123 999 -123 1021.5 -101.5 c 128,-1,3
 1044 -80 1044 -80 1044 -49 c 2,4,-1
 1044 52 l 2,5,6
 1044 128 1044 128 968 141 c 1,7,8
 871 159 871 159 846.5 186.5 c 128,-1,9
 822 214 822 214 822 310 c 2,10,-1
 822 412 l 2,11,12
 822 505 822 505 774.5 585.5 c 128,-1,13
 727 666 727 666 631 695 c 0,14,15
 621 698 621 698 621 710 c 128,-1,16
 621 722 621 722 631 725 c 0,17,18
 730 751 730 751 776 831 c 128,-1,19
 822 911 822 911 822 1008 c 2,20,-1
 822 1110 l 2,21,22
 822 1205 822 1205 847 1233 c 128,-1,23
 872 1261 872 1261 968 1279 c 1,24,25
 1044 1292 1044 1292 1044 1368 c 2,26,-1
 1044 1469 l 2,27,28
 1044 1500 1044 1500 1021.5 1521.5 c 128,-1,29
 999 1543 999 1543 967 1543 c 2,30,-1
 730 1543 l 2,31,32
 559.255319149 1543 559.255319149 1543 487.5 1448 c 0,33,34
 419.1625 1357.525 419.1625 1357.525 397 1195 c 1,35,36
 370 1034 370 1034 345 975 c 1,37,38
 300 874 300 874 204 851 c 0,39,40
 161 840 161 840 143.5 810.5 c 128,-1,41
 126 781 126 781 126 713 c 128,-1,42
 126 645 126 645 144 612 c 128,-1,43
 162 579 162 579 203.5 569 c 128,-1,44
 245 559 245 559 275.5 537 c 128,-1,45
 306 515 306 515 325 484.5 c 128,-1,46
 344 454 344 454 357 412 c 0,47,48
 376.943620178 347.566765579 376.943620178 347.566765579 388.471810089 275.283382789 c 128,-1,49
 400 203 400 203 407.5 161.5 c 128,-1,50
 415 120 415 120 433.5 69.5 c 128,-1,51
 452 19 452 19 487.5 -28 c 0,52,53
 559.255319149 -123 559.255319149 -123 730 -123 c 2,0,-1
EndSplineSet
EndChar

StartChar: bar
Encoding: 124 124 95
Width: 622
GlyphClass: 2
Flags: W
LayerCount: 2
Fore
SplineSet
238 -150 m 2,0,-1
 384 -150 l 2,1,2
 417 -150 417 -150 439 -129 c 128,-1,3
 461 -108 461 -108 461 -76 c 2,4,-1
 461 1481 l 2,5,6
 461 1513 461 1513 439 1534 c 128,-1,7
 417 1555 417 1555 384 1555 c 2,8,-1
 238 1555 l 2,9,10
 205 1555 205 1555 183 1534 c 128,-1,11
 161 1513 161 1513 161 1481 c 2,12,-1
 161 -76 l 2,13,14
 161 -108 161 -108 183 -129 c 128,-1,15
 205 -150 205 -150 238 -150 c 2,0,-1
EndSplineSet
EndChar

StartChar: braceright
Encoding: 125 125 96
Width: 1175
GlyphClass: 2
Flags: W
LayerCount: 2
Fore
SplineSet
206 -123 m 2,0,-1
 443 -123 l 2,1,2
 612.744680851 -123 612.744680851 -123 684.5 -28 c 0,3,4
 750.633567663 59.5571177504 750.633567663 59.5571177504 775 222 c 1,5,6
 807.051546392 407.898969072 807.051546392 407.898969072 824.525773196 441.449484536 c 128,-1,7
 842 475 842 475 861.5 502.5 c 0,8,9
 896.770218228 552.240051348 896.770218228 552.240051348 953.885109114 566.120025674 c 128,-1,10
 1011 580 1011 580 1028.5 609.5 c 128,-1,11
 1046 639 1046 639 1046 707 c 128,-1,12
 1046 775 1046 775 1028 808 c 128,-1,13
 1010 841 1010 841 963.5 852 c 128,-1,14
 917 863 917 863 883.5 890.5 c 128,-1,15
 850 918 850 918 829 973.5 c 0,16,17
 797.9 1055.69285714 797.9 1055.69285714 784.95 1136.84642857 c 128,-1,18
 772 1218 772 1218 764.5 1259 c 128,-1,19
 757 1300 757 1300 738.5 1350.5 c 128,-1,20
 720 1401 720 1401 684.5 1448 c 0,21,22
 612.744680851 1543 612.744680851 1543 443 1543 c 2,23,-1
 206 1543 l 2,24,25
 174 1543 174 1543 151.5 1521.5 c 128,-1,26
 129 1500 129 1500 129 1469 c 2,27,-1
 129 1368 l 2,28,29
 129 1292 129 1292 205 1279 c 1,30,31
 301 1261 301 1261 325.5 1233.5 c 128,-1,32
 350 1206 350 1206 350 1110 c 2,33,-1
 350 1008 l 2,34,35
 350 915 350 915 397.5 834.5 c 128,-1,36
 445 754 445 754 541 725 c 0,37,38
 551 722 551 722 551 710 c 128,-1,39
 551 698 551 698 541 695 c 0,40,41
 442 669 442 669 396 589 c 128,-1,42
 350 509 350 509 350 412 c 2,43,-1
 350 310 l 2,44,45
 350 215 350 215 325 187 c 128,-1,46
 300 159 300 159 205 141 c 1,47,48
 129 128 129 128 129 52 c 2,49,-1
 129 -49 l 2,50,51
 129 -80 129 -80 151.5 -101.5 c 128,-1,52
 174 -123 174 -123 206 -123 c 2,0,-1
EndSplineSet
EndChar

StartChar: asciitilde
Encoding: 126 126 97
Width: 1583
GlyphClass: 2
Flags: W
LayerCount: 2
Fore
SplineSet
530 795 m 0,0,1
 612 795 612 795 706 824 c 128,-1,2
 800 853 800 853 892 882 c 128,-1,3
 984 911 984 911 1075.5 911 c 128,-1,4
 1167 911 1167 911 1319 829 c 1,5,6
 1336 818 1336 818 1353 818 c 0,7,8
 1388 818 1388 818 1406 872 c 1,9,-1
 1419 902 l 1,10,11
 1452 975.615384615 1452 975.615384615 1452 1000.80769231 c 128,-1,12
 1452 1026 1452 1026 1411 1045 c 1,13,14
 1208 1153 1208 1153 1043 1153 c 0,15,16
 917.069767442 1153 917.069767442 1153 771.5 1094.5 c 128,-1,17
 625.930232558 1036 625.930232558 1036 524.465116279 1036 c 128,-1,18
 423 1036 423 1036 270 1129 c 0,19,20
 247 1143 247 1143 225.5 1143 c 128,-1,21
 204 1143 204 1143 186 1107 c 1,22,-1
 131 1007 l 1,23,24
 122 993 122 993 122 982 c 0,25,26
 122 951 122 951 162 928 c 1,27,28
 356 795 356 795 530 795 c 0,0,1
EndSplineSet
EndChar

StartChar: cent
Encoding: 162 162 99
Width: 1765
GlyphClass: 2
Flags: W
LayerCount: 2
Fore
SplineSet
935 -147 m 2,0,1
 935 -204 935 -204 1002 -204 c 2,2,-1
 1055 -204 l 2,3,4
 1122 -204 1122 -204 1122 -147 c 2,5,-1
 1122 -3 l 1,6,7
 1361 13 1361 13 1563 77 c 1,8,9
 1586 83 1586 83 1599.5 101 c 128,-1,10
 1613 119 1613 119 1613 132.5 c 0,11,12
 1613 152 1613 152 1599.5 187.5 c 128,-1,13
 1586 223 1586 223 1575 255 c 0,14,15
 1555.75 311 1555.75 311 1506 311 c 0,16,17
 1493 311 1493 311 1480 307 c 0,18,19
 1294 253 1294 253 1122 245 c 1,20,-1
 1122 756 l 1,21,22
 1292 744 1292 744 1470 683 c 0,23,24
 1484 679 1484 679 1498 679 c 0,25,26
 1546 679 1546 679 1564 723 c 0,27,28
 1609 834.891891892 1609 834.891891892 1609 851.945945946 c 128,-1,29
 1609 869 1609 869 1596 888 c 128,-1,30
 1583 907 1583 907 1562 916 c 0,31,32
 1380 988 1380 988 1122 1007 c 1,33,-1
 1122 1214 l 2,34,35
 1122 1271 1122 1271 1055 1271 c 2,36,-1
 1002 1271 l 2,37,38
 935 1271 935 1271 935 1214 c 2,39,-1
 935 1012 l 1,40,41
 521.693253329 1002.08063808 521.693253329 1002.08063808 297.5 836.5 c 0,42,43
 221 780 221 780 175.5 695 c 128,-1,44
 130 610 130 610 130 504.5 c 128,-1,45
 130 399 130 399 175 313 c 128,-1,46
 220 227 220 227 295.5 170 c 128,-1,47
 371 113 371 113 476 74 c 0,48,49
 672.103271328 1.16164207826 672.103271328 1.16164207826 935 -5 c 1,50,-1
 935 -147 l 2,0,1
935 257 m 1,51,52
 821 279 821 279 754 340 c 128,-1,53
 687 401 687 401 687 506 c 128,-1,54
 687 611 687 611 754.5 670.5 c 128,-1,55
 822 730 822 730 935 749 c 1,56,-1
 935 257 l 1,51,52
EndSplineSet
EndChar

StartChar: sterling
Encoding: 163 163 100
Width: 2201
GlyphClass: 2
Flags: W
LayerCount: 2
Fore
SplineSet
220 0 m 2,0,-1
 1987 0 l 2,1,2
 2013 0 2013 0 2031 14.5 c 128,-1,3
 2049 29 2049 29 2049 54 c 2,4,-1
 2049 195 l 2,5,6
 2049 225 2049 225 2031 240.5 c 128,-1,7
 2013 256 2013 256 1987 256 c 2,8,-1
 1178 256 l 2,9,10
 1133 256 1133 256 1111 258.5 c 128,-1,11
 1089 261 1089 261 1076.5 274.5 c 128,-1,12
 1064 288 1064 288 1062 303.5 c 128,-1,13
 1060 319 1060 319 1060 356 c 2,14,-1
 1060 603 l 1,15,-1
 1462 603 l 2,16,17
 1494 603 1494 603 1515 624.5 c 128,-1,18
 1536 646 1536 646 1536 678 c 2,19,-1
 1536 768 l 2,20,21
 1536 800 1536 800 1515 821.5 c 128,-1,22
 1494 843 1494 843 1462 843 c 2,23,-1
 1062 843 l 1,24,-1
 1062 906 l 2,25,26
 1062 1035.57894737 1062 1035.57894737 1123.5 1096 c 0,27,28
 1192.71428571 1164 1192.71428571 1164 1452 1164 c 0,29,30
 1612 1164 1612 1164 1936.5 1103.5 c 0,31,32
 1966 1098 1966 1098 1973 1096.5 c 128,-1,33
 1980 1095 1980 1095 1990 1095 c 0,34,35
 2027 1095 2027 1095 2034 1139 c 0,36,37
 2037 1160 2037 1160 2044 1200.5 c 0,38,39
 2059 1287.28571429 2059 1287.28571429 2059 1333.14285714 c 128,-1,40
 2059 1379 2059 1379 2006 1393 c 1,41,42
 1907 1422 1907 1422 1721 1448.5 c 128,-1,43
 1535 1475 1535 1475 1322.5 1475 c 128,-1,44
 1110 1475 1110 1475 924.5 1436.5 c 128,-1,45
 739 1398 739 1398 620 1316.5 c 128,-1,46
 501 1235 501 1235 438.5 1120.5 c 128,-1,47
 376 1006 376 1006 354 843 c 1,48,-1
 220 843 l 2,49,50
 188 843 188 843 167 821.5 c 128,-1,51
 146 800 146 800 146 768 c 2,52,-1
 146 678 l 2,53,54
 146 646 146 646 167 624.5 c 128,-1,55
 188 603 188 603 220 603 c 2,56,-1
 338 603 l 2,57,58
 370 603 370 603 370 560 c 2,59,-1
 370 314 l 2,60,61
 370 280 370 280 364.5 268 c 128,-1,62
 359 256 359 256 338 256 c 2,63,-1
 220 256 l 2,64,65
 188 256 188 256 167 234.5 c 128,-1,66
 146 213 146 213 146 181 c 2,67,-1
 146 75 l 2,68,69
 146 43 146 43 167 21.5 c 128,-1,70
 188 0 188 0 220 0 c 2,0,-1
EndSplineSet
EndChar

StartChar: currency
Encoding: 164 164 101
Width: 1362
GlyphClass: 2
Flags: W
LayerCount: 2
Fore
SplineSet
355 515 m 1,0,1
 490 426 490 426 679 426 c 128,-1,2
 868 426 868 426 1005 515 c 1,3,-1
 1036 484 l 1,4,5
 1073 445 1073 445 1088.5 445 c 128,-1,6
 1104 445 1104 445 1118 457 c 1,7,-1
 1150 490 l 2,8,9
 1164 504 1164 504 1164 520.5 c 128,-1,10
 1164 537 1164 537 1126 575 c 2,11,-1
 1102 599 l 1,12,13
 1219 736 1219 736 1219 933 c 128,-1,14
 1219 1130 1219 1130 1099 1268 c 1,15,-1
 1126 1295 l 2,16,17
 1165 1334 1165 1334 1165 1349 c 128,-1,18
 1165 1364 1165 1364 1153 1377 c 2,19,-1
 1120 1409 l 2,20,21
 1106 1423 1106 1423 1089.5 1423 c 128,-1,22
 1073 1423 1073 1423 1035 1385 c 2,23,-1
 1002 1352 l 1,24,25
 866 1440 866 1440 680 1440 c 128,-1,26
 494 1440 494 1440 358 1352 c 1,27,-1
 324 1386 l 2,28,29
 287 1423 287 1423 270 1423 c 128,-1,30
 253 1423 253 1423 239 1409 c 2,31,-1
 207 1377 l 2,32,33
 194 1365 194 1365 194 1349.5 c 128,-1,34
 194 1334 194 1334 233 1295 c 2,35,-1
 260 1268 l 1,36,37
 140 1130 140 1130 140 932 c 128,-1,38
 140 734 140 734 258 599 c 1,39,-1
 233 574 l 2,40,41
 196 537 196 537 196 520 c 128,-1,42
 196 503 196 503 210 489 c 2,43,-1
 242 457 l 2,44,45
 253 445 253 445 269 445 c 128,-1,46
 285 445 285 445 324 484 c 2,47,-1
 355 515 l 1,0,1
670.5 580 m 0,48,49
 586 580 586 580 514.5 611.5 c 128,-1,50
 443 643 443 643 402 695.5 c 0,51,52
 321 799.219512195 321 799.219512195 321 931 c 0,53,54
 321 1109.67901235 321 1109.67901235 440.5 1210 c 0,55,56
 529.838235294 1285 529.838235294 1285 680 1285 c 0,57,58
 866.640776699 1285 866.640776699 1285 957 1171.5 c 0,59,60
 1038 1069.75609756 1038 1069.75609756 1038 931 c 0,61,62
 1038 758.296296296 1038 758.296296296 918.5 656.5 c 0,63,64
 828.695652174 580 828.695652174 580 670.5 580 c 0,48,49
EndSplineSet
EndChar

StartChar: yen
Encoding: 165 165 102
Width: 2241
GlyphClass: 2
Flags: W
LayerCount: 2
Fore
SplineSet
860 0 m 2,0,-1
 1391 0 l 2,1,2
 1423 0 1423 0 1444.5 22 c 128,-1,3
 1466 44 1466 44 1466 76 c 2,4,-1
 1466 216 l 1,5,-1
 1759 216 l 2,6,7
 1788 216 1788 216 1797 234 c 128,-1,8
 1806 252 1806 252 1806 290 c 2,9,-1
 1806 321 l 2,10,11
 1806 369.227272727 1806 369.227272727 1792.5 382.113636364 c 128,-1,12
 1779 395 1779 395 1759 395 c 2,13,-1
 1466 395 l 1,14,-1
 1540 555 l 1,15,-1
 1791 555 l 2,16,17
 1820 555 1820 555 1829 573 c 128,-1,18
 1838 591 1838 591 1838 629 c 2,19,-1
 1838 660 l 2,20,21
 1838 708.227272727 1838 708.227272727 1824.5 721.113636364 c 128,-1,22
 1811 734 1811 734 1791 734 c 2,23,-1
 1655 734 l 1,24,-1
 2146 1375 l 2,25,26
 2157 1389 2157 1389 2157 1403 c 128,-1,27
 2157 1417 2157 1417 2145.5 1427.5 c 128,-1,28
 2134 1438 2134 1438 2117 1438 c 2,29,-1
 1649 1438 l 2,30,31
 1575 1438 1575 1438 1527 1374 c 2,32,-1
 1171 889 l 1,33,-1
 805 1375 l 2,34,35
 757.206896552 1438 757.206896552 1438 681 1438 c 2,36,-1
 117 1438 l 2,37,38
 100 1438 100 1438 89.5 1427.5 c 128,-1,39
 79 1417 79 1417 79 1403.5 c 128,-1,40
 79 1390 79 1390 90 1376 c 2,41,-1
 589 734 l 1,42,-1
 440 734 l 2,43,44
 411 734 411 734 402 716 c 128,-1,45
 393 698 393 698 393 660 c 2,46,-1
 393 629 l 2,47,48
 393 580.772727273 393 580.772727273 406.5 567.886363636 c 128,-1,49
 420 555 420 555 440 555 c 2,50,-1
 707 555 l 1,51,-1
 784 395 l 1,52,-1
 504 395 l 2,53,54
 475 395 475 395 466 377 c 128,-1,55
 457 359 457 359 457 321 c 2,56,-1
 457 290 l 2,57,58
 457 241.772727273 457 241.772727273 470.5 228.886363636 c 128,-1,59
 484 216 484 216 504 216 c 2,60,-1
 784 216 l 1,61,-1
 784 76 l 2,62,63
 784 44 784 44 806 22 c 128,-1,64
 828 0 828 0 860 0 c 2,0,-1
EndSplineSet
EndChar

StartChar: brokenbar
Encoding: 166 166 103
Width: 617
GlyphClass: 2
Flags: W
LayerCount: 2
Fore
SplineSet
234 -150 m 2,0,-1
 383 -150 l 2,1,2
 415 -150 415 -150 436 -128 c 128,-1,3
 457 -106 457 -106 457 -73 c 2,4,-1
 457 509 l 2,5,6
 457 542 457 542 436 564 c 128,-1,7
 415 586 415 586 383 586 c 2,8,-1
 234 586 l 2,9,10
 202 586 202 586 181 564 c 128,-1,11
 160 542 160 542 160 509 c 2,12,-1
 160 -73 l 2,13,14
 160 -106 160 -106 181 -128 c 128,-1,15
 202 -150 202 -150 234 -150 c 2,0,-1
234 819 m 2,16,-1
 383 819 l 2,17,18
 415 819 415 819 436 841 c 128,-1,19
 457 863 457 863 457 896 c 2,20,-1
 457 1478 l 2,21,22
 457 1511 457 1511 436 1533 c 128,-1,23
 415 1555 415 1555 383 1555 c 2,24,-1
 234 1555 l 2,25,26
 202 1555 202 1555 181 1533 c 128,-1,27
 160 1511 160 1511 160 1478 c 2,28,-1
 160 896 l 2,29,30
 160 863 160 863 181 841 c 128,-1,31
 202 819 202 819 234 819 c 2,16,-1
EndSplineSet
EndChar

StartChar: section
Encoding: 167 167 104
Width: 1860
GlyphClass: 2
Flags: W
LayerCount: 2
Fore
SplineSet
883 387 m 1,0,-1
 890 387 l 1,1,2
 1112 372 1112 372 1168 357.5 c 128,-1,3
 1224 343 1224 343 1224 298 c 128,-1,4
 1224 253 1224 253 1172 235.5 c 128,-1,5
 1120 218 1120 218 1000 218 c 0,6,7
 610 218 610 218 323 306 c 0,8,9
 310 310 310 310 291 310 c 128,-1,10
 272 310 272 310 251 296.5 c 128,-1,11
 230 283 230 283 218 259 c 2,12,-1
 166 154 l 2,13,14
 163.666666667 149.333333333 163.666666667 149.333333333 162.833333333 145.166666667 c 128,-1,15
 162 141 162 141 161.5 138.5 c 0,16,17
 160 131 160 131 160 118 c 128,-1,18
 160 105 160 105 172.5 85.5 c 128,-1,19
 185 66 185 66 204 59 c 0,20,21
 341 6 341 6 534 -17.5 c 128,-1,22
 727 -41 727 -41 888.5 -41 c 128,-1,23
 1050 -41 1050 -41 1165 -31.5 c 128,-1,24
 1280 -22 1280 -22 1384.5 2 c 128,-1,25
 1489 26 1489 26 1559.5 65 c 0,26,27
 1712 149.361702128 1712 149.361702128 1712 298.680851064 c 128,-1,28
 1712 448 1712 448 1615 526 c 1,29,30
 1712 608 1712 608 1712 729 c 0,31,32
 1712 877.732394366 1712 877.732394366 1606.5 955 c 0,33,34
 1536.914969 1005.96368468 1536.914969 1005.96368468 1466.9574845 1024.48184234 c 128,-1,35
 1397 1043 1397 1043 1353.5 1051 c 128,-1,36
 1310 1059 1310 1059 1250 1065.5 c 0,37,38
 1186.16613419 1072.41533546 1186.16613419 1072.41533546 1101.58306709 1077.70766773 c 0,39,40
 751.263321543 1099.62704897 751.263321543 1099.62704897 713 1104 c 1,41,42
 622 1122 622 1122 616 1155 c 1,43,44
 616 1225 616 1225 925 1225 c 0,45,46
 1241.82857143 1225 1241.82857143 1225 1439 1158 c 1,47,48
 1459 1153 1459 1153 1477 1153 c 0,49,50
 1522.42857143 1153 1522.42857143 1153 1546 1198 c 1,51,-1
 1591 1292 l 2,52,53
 1598 1308.33333333 1598 1308.33333333 1598 1325.16666667 c 128,-1,54
 1598 1342 1598 1342 1586 1360 c 128,-1,55
 1574 1378 1574 1378 1555 1386 c 0,56,57
 1410 1442 1410 1442 1259 1458.5 c 128,-1,58
 1108 1475 1108 1475 967 1475 c 128,-1,59
 826 1475 826 1475 768.5 1472.5 c 128,-1,60
 711 1470 711 1470 634.5 1461 c 128,-1,61
 558 1452 558 1452 494.5 1437.5 c 128,-1,62
 431 1423 431 1423 366 1396.5 c 128,-1,63
 301 1370 301 1370 256 1334 c 0,64,65
 155 1253.2 155 1253.2 155 1126 c 128,-1,66
 155 999 155 999 279 926 c 1,67,68
 155 839 155 839 155 704 c 0,69,70
 155 517 155 517 432 444 c 0,71,72
 567 409 567 409 858 389 c 1,73,-1
 868 389 l 1,74,-1
 869 388 l 1,75,-1
 882 388 l 1,76,-1
 883 387 l 1,0,-1
1302 639 m 1,77,78
 1249 646 1249 646 1139 653 c 128,-1,79
 1029 660 1029 660 942.5 667 c 128,-1,80
 856 674 856 674 774 682.5 c 128,-1,81
 692 691 692 691 640 702.5 c 128,-1,82
 588 714 588 714 572.5 726.5 c 128,-1,83
 557 739 557 739 557 771 c 128,-1,84
 557 803 557 803 592 844 c 1,85,86
 695 821 695 821 931 806 c 128,-1,87
 1167 791 1167 791 1250.5 775 c 128,-1,88
 1334 759 1334 759 1335 716 c 0,89,90
 1335 684.375 1335 684.375 1302 639 c 1,77,78
EndSplineSet
EndChar

StartChar: dieresis
Encoding: 168 168 105
Width: 1265
GlyphClass: 4
Flags: W
LayerCount: 2
Fore
SplineSet
228 1200 m 2,0,-1
 372 1200 l 2,1,2
 404 1200 404 1200 426.5 1222.5 c 128,-1,3
 449 1245 449 1245 449 1277 c 2,4,-1
 449 1407 l 2,5,6
 449 1439 449 1439 426.5 1461.5 c 128,-1,7
 404 1484 404 1484 372 1484 c 2,8,-1
 228 1484 l 2,9,10
 196 1484 196 1484 173.5 1461.5 c 128,-1,11
 151 1439 151 1439 151 1407 c 2,12,-1
 151 1277 l 2,13,14
 151 1245 151 1245 173.5 1222.5 c 128,-1,15
 196 1200 196 1200 228 1200 c 2,0,-1
893 1200 m 2,16,-1
 1037 1200 l 2,17,18
 1069 1200 1069 1200 1091.5 1222.5 c 128,-1,19
 1114 1245 1114 1245 1114 1277 c 2,20,-1
 1114 1407 l 2,21,22
 1114 1439 1114 1439 1091.5 1461.5 c 128,-1,23
 1069 1484 1069 1484 1037 1484 c 2,24,-1
 893 1484 l 2,25,26
 861 1484 861 1484 838.5 1461.5 c 128,-1,27
 816 1439 816 1439 816 1407 c 2,28,-1
 816 1277 l 2,29,30
 816 1245 816 1245 838.5 1222.5 c 128,-1,31
 861 1200 861 1200 893 1200 c 2,16,-1
EndSplineSet
EndChar

StartChar: copyright
Encoding: 169 169 106
Width: 1906
GlyphClass: 2
Flags: W
LayerCount: 2
Fore
SplineSet
1266 861 m 0,0,1
 1296.16666667 861 1296.16666667 861 1307 900 c 0,2,3
 1307 902 1307 902 1318 942.5 c 128,-1,4
 1329 983 1329 983 1329 1011 c 128,-1,5
 1329 1039 1329 1039 1303 1053 c 0,6,7
 1167 1127 1167 1127 981 1127 c 0,8,9
 799.977777778 1127 799.977777778 1127 667 1039 c 0,10,11
 599 994 599 994 559 915 c 128,-1,12
 519 836 519 836 519 729.5 c 128,-1,13
 519 623 519 623 558.5 543 c 128,-1,14
 598 463 598 463 666 418 c 0,15,16
 798.977777778 330 798.977777778 330 979.988888889 330 c 129,-1,17
 1161 330 1161 330 1308 394 c 0,18,19
 1335 405.25 1335 405.25 1335 444 c 0,20,21
 1335 454 1335 454 1330 474 c 128,-1,22
 1325 494 1325 494 1316 528.5 c 0,23,24
 1301.7826087 583 1301.7826087 583 1276 583 c 0,25,26
 1267.5 583 1267.5 583 1263 580 c 1,27,28
 1149 535 1149 535 1041 535 c 0,29,30
 827 535 827 535 827 731 c 0,31,32
 827 830 827 830 882 875 c 128,-1,33
 937 920 937 920 1035 920 c 128,-1,34
 1133 920 1133 920 1253 864 c 0,35,36
 1259 861 1259 861 1266 861 c 0,0,1
955 124 m 128,-1,38
 825 124 825 124 718.5 159.5 c 128,-1,39
 612 195 612 195 542.5 252.5 c 128,-1,40
 473 310 473 310 425.5 387.5 c 0,41,42
 337 531.894736842 337 531.894736842 337 713 c 0,43,44
 337 899.673684211 337 899.673684211 425.5 1045 c 0,45,46
 585.051282051 1307 585.051282051 1307 955 1307 c 0,47,48
 1323.94871795 1307 1323.94871795 1307 1483.5 1045 c 0,49,50
 1572 899.673684211 1572 899.673684211 1572 713 c 0,51,52
 1572 531.894736842 1572 531.894736842 1483.5 387.5 c 0,53,54
 1383.21252154 223.873061459 1383.21252154 223.873061459 1191 159.5 c 0,55,37
 1085 124 1085 124 955 124 c 128,-1,38
952 -41 m 128,-1,57
 1150 -41 1150 -41 1308 21 c 128,-1,58
 1466 83 1466 83 1565 189 c 128,-1,59
 1664 295 1664 295 1716 430 c 128,-1,60
 1768 565 1768 565 1768 717 c 128,-1,61
 1768 869 1768 869 1716 1004 c 128,-1,62
 1664 1139 1664 1139 1565 1245 c 128,-1,63
 1466 1351 1466 1351 1308 1413 c 128,-1,64
 1150 1475 1150 1475 952 1475 c 128,-1,65
 754 1475 754 1475 596 1413 c 128,-1,66
 438 1351 438 1351 339 1245 c 128,-1,67
 240 1139 240 1139 188 1004 c 128,-1,68
 136 869 136 869 136 717 c 128,-1,69
 136 565 136 565 188 430 c 128,-1,70
 240 295 240 295 339 189 c 128,-1,71
 438 83 438 83 596 21 c 128,-1,56
 754 -41 754 -41 952 -41 c 128,-1,57
EndSplineSet
EndChar

StartChar: ordfeminine
Encoding: 170 170 107
Width: 2021
GlyphClass: 2
Flags: W
LayerCount: 2
Fore
SplineSet
256.5 561 m 128,-1,1
 373 533 373 533 562 533 c 128,-1,2
 751 533 751 533 906 592 c 128,-1,3
 1061 651 1061 651 1134 753 c 1,4,5
 1142 766 1142 766 1148.5 766 c 128,-1,6
 1155 766 1155 766 1159 753.5 c 128,-1,7
 1163 741 1163 741 1174 719.5 c 128,-1,8
 1185 698 1185 698 1201 668 c 128,-1,9
 1217 638 1217 638 1226.5 618 c 128,-1,10
 1236 598 1236 598 1258.5 583 c 128,-1,11
 1281 568 1281 568 1307 568 c 2,12,-1
 1410 568 l 2,13,14
 1433 568 1433 568 1448 584.5 c 128,-1,15
 1463 601 1463 601 1463 626 c 2,16,-1
 1463 1103 l 2,17,18
 1463 1273.88721805 1463 1273.88721805 1317.5 1362.5 c 0,19,20
 1134.41975309 1474 1134.41975309 1474 713 1474 c 0,21,22
 408 1474 408 1474 247 1431 c 128,-1,23
 86 1388 86 1388 45 1296 c 0,24,25
 35 1274 35 1274 35 1260.5 c 128,-1,26
 35 1247 35 1247 43.5 1237 c 128,-1,27
 52 1227 52 1227 63 1226 c 2,28,-1
 387 1197 l 2,29,30
 403 1195 403 1195 416.5 1195 c 128,-1,31
 430 1195 430 1195 465.5 1227.5 c 128,-1,32
 501 1260 501 1260 576.5 1279 c 128,-1,33
 652 1298 652 1298 718 1298 c 0,34,35
 850 1298 850 1298 907 1256 c 128,-1,36
 964 1214 964 1214 964 1130 c 2,37,-1
 964 1118 l 2,38,39
 964 1106.28358209 964 1106.28358209 856 1100.64179104 c 128,-1,40
 748 1095 748 1095 662 1086 c 128,-1,41
 576 1077 576 1077 487 1064.5 c 128,-1,42
 398 1052 398 1052 312 1028 c 128,-1,43
 226 1004 226 1004 159 971.5 c 128,-1,44
 92 939 92 939 51 888 c 128,-1,45
 10 837 10 837 10 767.5 c 128,-1,46
 10 698 10 698 75 643.5 c 128,-1,0
 140 589 140 589 256.5 561 c 128,-1,1
870 780.5 m 128,-1,48
 765 718 765 718 621 718 c 128,-1,49
 477 718 477 718 477 802 c 0,50,51
 477 861 477 861 585 895.5 c 128,-1,52
 693 930 693 930 918 958 c 0,53,54
 926 960 926 960 950.5 960 c 128,-1,55
 975 960 975 960 975 932 c 0,56,47
 975 843 975 843 870 780.5 c 128,-1,48
EndSplineSet
EndChar

StartChar: guillemotleft
Encoding: 171 171 108
Width: 1460
GlyphClass: 2
Flags: W
LayerCount: 2
Fore
SplineSet
671 29 m 128,-1,1
 696 29 696 29 711 45.5 c 128,-1,2
 726 62 726 62 726 80 c 2,3,-1
 726 182 l 2,4,5
 726 232 726 232 715.5 259 c 128,-1,6
 705 286 705 286 667 323 c 1,7,-1
 417 501 l 1,8,9
 401 518 401 518 401 535 c 0,10,11
 401 552 401 552 417 568 c 1,12,-1
 667 746 l 1,13,14
 705 784 705 784 715.5 811 c 128,-1,15
 726 838 726 838 726 888 c 2,16,-1
 726 987 l 2,17,18
 726 1004 726 1004 711 1020 c 128,-1,19
 696 1036 696 1036 671 1036 c 128,-1,20
 646 1036 646 1036 613 1016 c 1,21,-1
 230 768 l 1,22,23
 133 703 133 703 133 606 c 2,24,-1
 133 453 l 2,25,26
 133 406 133 406 155 372.5 c 128,-1,27
 177 339 177 339 230 303 c 2,28,-1
 613 49 l 1,29,0
 646 29 646 29 671 29 c 128,-1,1
1255 29 m 128,-1,31
 1280 29 1280 29 1295 45.5 c 128,-1,32
 1310 62 1310 62 1310 80 c 2,33,-1
 1310 182 l 2,34,35
 1310 232 1310 232 1299.5 259 c 128,-1,36
 1289 286 1289 286 1251 323 c 1,37,-1
 1002 501 l 1,38,39
 985 518 985 518 985 535 c 0,40,41
 985 552 985 552 1002 568 c 1,42,-1
 1251 746 l 1,43,44
 1289 783 1289 783 1299.5 810.5 c 128,-1,45
 1310 838 1310 838 1310 888 c 2,46,-1
 1310 987 l 2,47,48
 1310 1004 1310 1004 1295 1020 c 128,-1,49
 1280 1036 1280 1036 1255 1036 c 128,-1,50
 1230 1036 1230 1036 1196 1016 c 1,51,-1
 814 768 l 1,52,53
 717 703 717 703 717 606 c 2,54,-1
 717 453 l 2,55,56
 717 406 717 406 739 372.5 c 128,-1,57
 761 339 761 339 814 303 c 2,58,-1
 1197 49 l 1,59,30
 1230 29 1230 29 1255 29 c 128,-1,31
EndSplineSet
EndChar

StartChar: logicalnot
Encoding: 172 172 109
Width: 1303
GlyphClass: 2
Flags: W
LayerCount: 2
Fore
SplineSet
923 129 m 2,0,-1
 1086 129 l 2,1,2
 1118 129 1118 129 1139 151 c 128,-1,3
 1160 173 1160 173 1160 206 c 2,4,-1
 1160 717 l 2,5,6
 1160 749 1160 749 1137.5 770.5 c 128,-1,7
 1115 792 1115 792 1083 792 c 2,8,-1
 202 792 l 2,9,10
 170 792 170 792 149 771 c 128,-1,11
 128 750 128 750 128 718 c 2,12,-1
 128 580 l 2,13,14
 128 548 128 548 149 527 c 128,-1,15
 170 506 170 506 202 506 c 2,16,-1
 812 506 l 2,17,18
 827 506 827 506 838 495 c 128,-1,19
 849 484 849 484 849 469 c 2,20,-1
 849 206 l 2,21,22
 849 173 849 173 870 151 c 128,-1,23
 891 129 891 129 923 129 c 2,0,-1
EndSplineSet
EndChar

StartChar: uni00AD
Encoding: 173 173 110
Width: 1024
GlyphClass: 2
Flags: W
LayerCount: 2
Fore
SplineSet
177 449 m 2,0,-1
 846 449 l 2,1,2
 867 449 867 449 881.5 468 c 128,-1,3
 896 487 896 487 896 513 c 2,4,-1
 896 648 l 2,5,6
 896 673 896 673 881.5 691 c 128,-1,7
 867 709 867 709 846 709 c 2,8,-1
 177 709 l 2,9,10
 156 709 156 709 141.5 692 c 128,-1,11
 127 675 127 675 127 651 c 2,12,-1
 127 519 l 2,13,14
 127 490 127 490 141.5 469.5 c 128,-1,15
 156 449 156 449 177 449 c 2,0,-1
EndSplineSet
EndChar

StartChar: registered
Encoding: 174 174 111
Width: 1906
GlyphClass: 2
Flags: W
LayerCount: 2
Fore
SplineSet
563 387 m 2,0,-1
 789 387 l 2,1,2
 802 387 802 387 811.5 397.5 c 128,-1,3
 821 408 821 408 821 422 c 2,4,-1
 821 602 l 2,5,6
 821 609 821 609 826 614.5 c 128,-1,7
 831 620 831 620 837 620 c 2,8,-1
 997 620 l 2,9,10
 1053 620 1053 620 1062 609.5 c 128,-1,11
 1071 599 1071 599 1078.5 586 c 128,-1,12
 1086 573 1086 573 1092.5 549 c 128,-1,13
 1099 525 1099 525 1101.5 507 c 0,14,15
 1109 453 1109 453 1113.5 426.5 c 128,-1,16
 1118 400 1118 400 1126.5 393.5 c 128,-1,17
 1135 387 1135 387 1155 387 c 2,18,-1
 1390 387 l 2,19,20
 1407 387 1407 387 1407 409 c 0,21,22
 1407 413 1407 413 1405.5 422.5 c 0,23,24
 1400.78571429 452.357142857 1400.78571429 452.357142857 1399 472 c 0,25,26
 1388 567 1388 567 1354 620.5 c 128,-1,27
 1320 674 1320 674 1246 688 c 0,28,29
 1245 688 1245 688 1245 690 c 128,-1,30
 1245 692 1245 692 1246 692 c 0,31,32
 1319 703 1319 703 1365 743 c 128,-1,33
 1411 783 1411 783 1411 838.5 c 128,-1,34
 1411 894 1411 894 1400 925 c 128,-1,35
 1389 956 1389 956 1374 976.5 c 128,-1,36
 1359 997 1359 997 1328 1011.5 c 128,-1,37
 1297 1026 1297 1026 1272 1033 c 128,-1,38
 1247 1040 1247 1040 1200 1044 c 0,39,40
 1141.25 1049 1141.25 1049 1034 1049 c 2,41,-1
 563 1049 l 2,42,43
 549 1049 549 1049 540 1039 c 128,-1,44
 531 1029 531 1029 531 1014 c 2,45,-1
 531 422 l 2,46,47
 531 408 531 408 540.5 397.5 c 128,-1,48
 550 387 550 387 563 387 c 2,0,-1
821 866 m 2,49,50
 821 883 821 883 837 883 c 2,51,-1
 1004 883 l 2,52,53
 1086.82758621 883 1086.82758621 883 1105.5 854.5 c 0,54,55
 1115 840 1115 840 1115 816 c 128,-1,56
 1115 792 1115 792 1096 774 c 128,-1,57
 1077 756 1077 756 1051 756 c 2,58,-1
 837 756 l 2,59,60
 821 756 821 756 821 773 c 2,61,-1
 821 866 l 2,49,50
955 124 m 128,-1,63
 825 124 825 124 718.5 159.5 c 128,-1,64
 612 195 612 195 542.5 252.5 c 128,-1,65
 473 310 473 310 425.5 387.5 c 0,66,67
 337 531.894736842 337 531.894736842 337 713 c 0,68,69
 337 899.673684211 337 899.673684211 425.5 1045 c 0,70,71
 585.051282051 1307 585.051282051 1307 955 1307 c 0,72,73
 1323.94871795 1307 1323.94871795 1307 1483.5 1045 c 0,74,75
 1572 899.673684211 1572 899.673684211 1572 713 c 0,76,77
 1572 531.894736842 1572 531.894736842 1483.5 387.5 c 0,78,79
 1383.21252154 223.873061459 1383.21252154 223.873061459 1191 159.5 c 0,80,62
 1085 124 1085 124 955 124 c 128,-1,63
952 -41 m 128,-1,82
 1150 -41 1150 -41 1308 21 c 128,-1,83
 1466 83 1466 83 1565 189 c 128,-1,84
 1664 295 1664 295 1716 430 c 128,-1,85
 1768 565 1768 565 1768 717 c 128,-1,86
 1768 869 1768 869 1716 1004 c 128,-1,87
 1664 1139 1664 1139 1565 1245 c 128,-1,88
 1466 1351 1466 1351 1308 1413 c 128,-1,89
 1150 1475 1150 1475 952 1475 c 128,-1,90
 754 1475 754 1475 596 1413 c 128,-1,91
 438 1351 438 1351 339 1245 c 128,-1,92
 240 1139 240 1139 188 1004 c 128,-1,93
 136 869 136 869 136 717 c 128,-1,94
 136 565 136 565 188 430 c 128,-1,95
 240 295 240 295 339 189 c 128,-1,96
 438 83 438 83 596 21 c 128,-1,81
 754 -41 754 -41 952 -41 c 128,-1,82
EndSplineSet
EndChar

StartChar: macron
Encoding: 175 175 112
Width: 1067
GlyphClass: 4
Flags: W
LayerCount: 2
Fore
SplineSet
209 1242 m 2,0,-1
 861 1242 l 2,1,2
 893 1242 893 1242 914 1264 c 128,-1,3
 935 1286 935 1286 935 1318 c 2,4,-1
 935 1410 l 2,5,6
 935 1442 935 1442 914 1464 c 128,-1,7
 893 1486 893 1486 861 1486 c 2,8,-1
 209 1486 l 2,9,10
 177 1486 177 1486 156 1464 c 128,-1,11
 135 1442 135 1442 135 1410 c 2,12,-1
 135 1318 l 2,13,14
 135 1286 135 1286 156 1264 c 128,-1,15
 177 1242 177 1242 209 1242 c 2,0,-1
EndSplineSet
EndChar

StartChar: degree
Encoding: 176 176 113
Width: 1352
GlyphClass: 2
Flags: W
LayerCount: 2
Fore
SplineSet
839 550.5 m 128,-1,1
 767 519 767 519 673.5 519 c 128,-1,2
 580 519 580 519 508.5 550.5 c 128,-1,3
 437 582 437 582 396.5 634 c 0,4,5
 316 737.358024691 316 737.358024691 316 870 c 0,6,7
 316 1047.85 316 1047.85 435 1149 c 0,8,9
 523.235294118 1224 523.235294118 1224 674 1224 c 0,10,11
 767 1224 767 1224 839 1193 c 128,-1,12
 911 1162 911 1162 952 1110.5 c 0,13,14
 1033 1008.75609756 1033 1008.75609756 1033 870 c 0,15,16
 1033 736.731707317 1033 736.731707317 952 634 c 0,17,0
 911 582 911 582 839 550.5 c 128,-1,1
674 362 m 128,-1,19
 803 362 803 362 907.5 402.5 c 128,-1,20
 1012 443 1012 443 1078.5 513.5 c 128,-1,21
 1145 584 1145 584 1180.5 675 c 128,-1,22
 1216 766 1216 766 1216 870 c 128,-1,23
 1216 974 1216 974 1180.5 1066 c 128,-1,24
 1145 1158 1145 1158 1078.5 1228.5 c 128,-1,25
 1012 1299 1012 1299 907.5 1340 c 128,-1,26
 803 1381 803 1381 674 1381 c 128,-1,27
 545 1381 545 1381 440.5 1340 c 128,-1,28
 336 1299 336 1299 269.5 1228.5 c 128,-1,29
 203 1158 203 1158 167.5 1066 c 128,-1,30
 132 974 132 974 132 870 c 128,-1,31
 132 766 132 766 167.5 675 c 128,-1,32
 203 584 203 584 269.5 513.5 c 128,-1,33
 336 443 336 443 440.5 402.5 c 128,-1,18
 545 362 545 362 674 362 c 128,-1,19
EndSplineSet
EndChar

StartChar: plusminus
Encoding: 177 177 114
Width: 1289
GlyphClass: 2
Flags: W
LayerCount: 2
Fore
SplineSet
565 253 m 2,0,-1
 723 253 l 2,1,2
 755 253 755 253 776 274.5 c 128,-1,3
 797 296 797 296 797 328 c 2,4,-1
 797 600 l 2,5,6
 797 615 797 615 807 626 c 128,-1,7
 817 637 817 637 832 637 c 2,8,-1
 1081 637 l 2,9,10
 1113 637 1113 637 1134 658 c 128,-1,11
 1155 679 1155 679 1155 711 c 2,12,-1
 1155 852 l 2,13,14
 1155 884 1155 884 1134 905 c 128,-1,15
 1113 926 1113 926 1081 926 c 2,16,-1
 832 926 l 2,17,18
 817 926 817 926 807 937 c 128,-1,19
 797 948 797 948 797 963 c 2,20,-1
 797 1236 l 2,21,22
 797 1268 797 1268 776 1290 c 128,-1,23
 755 1312 755 1312 723 1312 c 2,24,-1
 565 1312 l 2,25,26
 533 1312 533 1312 512 1290 c 128,-1,27
 491 1268 491 1268 491 1236 c 2,28,-1
 491 963 l 2,29,30
 491 948 491 948 480.5 937 c 128,-1,31
 470 926 470 926 455 926 c 2,32,-1
 203 926 l 2,33,34
 171 926 171 926 150 905 c 128,-1,35
 129 884 129 884 129 852 c 2,36,-1
 129 711 l 2,37,38
 129 679 129 679 150 658 c 128,-1,39
 171 637 171 637 203 637 c 2,40,-1
 455 637 l 2,41,42
 470 637 470 637 480.5 626 c 128,-1,43
 491 615 491 615 491 600 c 2,44,-1
 491 328 l 2,45,46
 491 296 491 296 512 274.5 c 128,-1,47
 533 253 533 253 565 253 c 2,0,-1
200 -133 m 2,48,-1
 1085 -133 l 2,49,50
 1117 -133 1117 -133 1138.5 -111.5 c 128,-1,51
 1160 -90 1160 -90 1160 -58 c 2,52,-1
 1160 78 l 2,53,54
 1160 110 1160 110 1138.5 132 c 128,-1,55
 1117 154 1117 154 1085 154 c 2,56,-1
 200 154 l 2,57,58
 168 154 168 154 146 132 c 128,-1,59
 124 110 124 110 124 78 c 2,60,-1
 124 -58 l 2,61,62
 124 -90 124 -90 146 -111.5 c 128,-1,63
 168 -133 168 -133 200 -133 c 2,48,-1
EndSplineSet
EndChar

StartChar: acute
Encoding: 180 180 117
Width: 1745
GlyphClass: 4
Flags: W
LayerCount: 2
Fore
SplineSet
770 1203 m 1,0,1
 770 1170 770 1170 809 1170 c 2,2,-1
 940 1170 l 2,3,4
 969.2 1170 969.2 1170 977.6 1182 c 128,-1,5
 986 1194 986 1194 995 1209 c 2,6,-1
 1184 1553 l 2,7,8
 1196 1574 1196 1574 1196 1590 c 0,9,10
 1196 1618 1196 1618 1168 1618 c 2,11,-1
 908 1618 l 2,12,13
 874 1618 874 1618 859 1606.5 c 128,-1,14
 844 1595 844 1595 838 1563 c 2,15,-1
 775 1237 l 2,16,17
 774 1234 774 1234 773.5 1230.5 c 128,-1,18
 773 1227 773 1227 772.5 1224 c 128,-1,19
 772 1221 772 1221 771.5 1218.5 c 128,-1,20
 771 1216 771 1216 771 1213 c 2,21,-1
 770 1203 l 1,0,1
EndSplineSet
EndChar

StartChar: paragraph
Encoding: 182 182 118
Width: 1742
GlyphClass: 2
Flags: W
LayerCount: 2
Fore
SplineSet
1263 554 m 2,0,1
 1282 554 1282 554 1282 533 c 2,2,-1
 1282 76 l 2,3,4
 1282 43 1282 43 1303 21 c 128,-1,5
 1324 -1 1324 -1 1356 -1 c 2,6,-1
 1509 -1 l 2,7,8
 1541 -1 1541 -1 1562 21 c 128,-1,9
 1583 43 1583 43 1583 76 c 2,10,-1
 1583 1327 l 2,11,12
 1583 1359 1583 1359 1561.5 1380 c 128,-1,13
 1540 1401 1540 1401 1507 1404 c 0,14,15
 1154 1438 1154 1438 940.5 1438 c 128,-1,16
 727 1438 727 1438 627 1427 c 128,-1,17
 527 1416 527 1416 432 1386.5 c 128,-1,18
 337 1357 337 1357 272 1310.5 c 0,19,20
 129 1208.2 129 1208.2 129 1013 c 0,21,22
 129 554 129 554 751 554 c 2,23,-1
 789 554 l 1,24,-1
 789 76 l 2,25,26
 789 43 789 43 810 21 c 128,-1,27
 831 -1 831 -1 863 -1 c 2,28,-1
 1016 -1 l 2,29,30
 1048 -1 1048 -1 1069 21 c 128,-1,31
 1090 43 1090 43 1090 76 c 2,32,-1
 1090 554 l 1,33,-1
 1263 554 l 2,0,1
EndSplineSet
EndChar

StartChar: periodcentered
Encoding: 183 183 119
Width: 625
GlyphClass: 2
Flags: W
LayerCount: 2
Fore
SplineSet
206 651 m 2,0,-1
 419 651 l 2,1,2
 451 651 451 651 473.5 673.5 c 128,-1,3
 496 696 496 696 496 728 c 2,4,-1
 496 916 l 2,5,6
 496 948 496 948 473.5 970.5 c 128,-1,7
 451 993 451 993 419 993 c 2,8,-1
 206 993 l 2,9,10
 174 993 174 993 151.5 970.5 c 128,-1,11
 129 948 129 948 129 916 c 2,12,-1
 129 728 l 2,13,14
 129 696 129 696 151.5 673.5 c 128,-1,15
 174 651 174 651 206 651 c 2,0,-1
EndSplineSet
EndChar

StartChar: cedilla
Encoding: 184 184 120
Width: 716
GlyphClass: 4
Flags: W
LayerCount: 2
Fore
SplineSet
338 -451 m 1,0,-1
 342 -404 l 1,1,2
 342 -373 342 -373 312 -373 c 2,3,-1
 235 -373 l 2,4,5
 185 -373 185 -373 185 -457.5 c 128,-1,6
 185 -542 185 -542 249.5 -592 c 128,-1,7
 314 -642 314 -642 416 -642 c 128,-1,8
 518 -642 518 -642 586 -580.5 c 128,-1,9
 654 -519 654 -519 654 -391 c 0,10,11
 654 -304 654 -304 598.5 -230 c 128,-1,12
 543 -156 543 -156 465 -156 c 2,13,-1
 363 -156 l 2,14,15
 347 -156 347 -156 347 -173 c 2,16,-1
 347 -244 l 2,17,18
 347 -254 347 -254 359 -254 c 2,19,-1
 402 -254 l 2,20,21
 438 -254 438 -254 460.5 -300.5 c 128,-1,22
 483 -347 483 -347 483 -407 c 0,23,24
 483 -532 483 -532 410 -532 c 0,25,26
 375 -532 375 -532 356.5 -508.5 c 128,-1,27
 338 -485 338 -485 338 -451 c 1,0,-1
EndSplineSet
EndChar

StartChar: ordmasculine
Encoding: 186 186 122
Width: 1764
GlyphClass: 2
Flags: W
LayerCount: 2
Fore
SplineSet
1084 824 m 128,-1,1
 1012 762 1012 762 881.5 762 c 128,-1,2
 751 762 751 762 679.5 824 c 128,-1,3
 608 886 608 886 608 1004.5 c 128,-1,4
 608 1123 608 1123 681 1190.5 c 128,-1,5
 754 1258 754 1258 881.5 1258 c 128,-1,6
 1009 1258 1009 1258 1082.5 1190.5 c 128,-1,7
 1156 1123 1156 1123 1156 1004.5 c 128,-1,0
 1156 886 1156 886 1084 824 c 128,-1,1
882 545 m 128,-1,9
 958 545 958 545 1022.5 548.5 c 128,-1,10
 1087 552 1087 552 1165 564.5 c 128,-1,11
 1243 577 1243 577 1305 597 c 128,-1,12
 1367 617 1367 617 1428 652.5 c 128,-1,13
 1489 688 1489 688 1529.5 735.5 c 0,14,15
 1620 841.641975309 1620 841.641975309 1620 1011 c 0,16,17
 1620 1474 1620 1474 881.5 1474 c 128,-1,18
 143 1474 143 1474 143 1011 c 0,19,20
 143 580.7 143 580.7 741 548.5 c 0,21,8
 806 545 806 545 882 545 c 128,-1,9
EndSplineSet
EndChar

StartChar: guillemotright
Encoding: 187 187 123
Width: 1460
GlyphClass: 2
Flags: W
LayerCount: 2
Fore
SplineSet
164 45.5 m 128,-1,1
 179 29 179 29 203.5 29 c 128,-1,2
 228 29 228 29 263 49 c 1,3,-1
 646 297 l 1,4,5
 742 361 742 361 742 459 c 2,6,-1
 742 613 l 2,7,8
 742 661 742 661 720.5 694.5 c 128,-1,9
 699 728 699 728 646 763 c 2,10,-1
 263 1016 l 2,11,12
 232 1036 232 1036 205.5 1036 c 128,-1,13
 179 1036 179 1036 164 1020 c 128,-1,14
 149 1004 149 1004 149 986 c 2,15,-1
 149 883 l 2,16,17
 149 834 149 834 160 807 c 128,-1,18
 171 780 171 780 209 743 c 1,19,-1
 458 564 l 1,20,21
 475 548 475 548 475 530.5 c 128,-1,22
 475 513 475 513 458 497 c 1,23,-1
 209 320 l 1,24,25
 171 282 171 282 160 254.5 c 128,-1,26
 149 227 149 227 149 177 c 2,27,-1
 149 79 l 2,28,0
 149 62 149 62 164 45.5 c 128,-1,1
749.5 45.5 m 128,-1,30
 765 29 765 29 789 29 c 128,-1,31
 813 29 813 29 848 49 c 1,32,-1
 1231 297 l 1,33,34
 1327 361 1327 361 1327 459 c 2,35,-1
 1327 613 l 2,36,37
 1327 661 1327 661 1305.5 694.5 c 128,-1,38
 1284 728 1284 728 1231 763 c 2,39,-1
 848 1016 l 2,40,41
 817 1036 817 1036 791 1036 c 128,-1,42
 765 1036 765 1036 749.5 1019.5 c 128,-1,43
 734 1003 734 1003 734 986 c 2,44,-1
 734 883 l 2,45,46
 734 834 734 834 745 807 c 128,-1,47
 756 780 756 780 794 743 c 1,48,-1
 1043 564 l 1,49,50
 1060 548 1060 548 1060 530.5 c 128,-1,51
 1060 513 1060 513 1043 497 c 1,52,-1
 794 320 l 1,53,54
 756 282 756 282 745 254.5 c 128,-1,55
 734 227 734 227 734 177 c 2,56,-1
 734 79 l 2,57,29
 734 62 734 62 749.5 45.5 c 128,-1,30
EndSplineSet
EndChar

StartChar: onequarter
Encoding: 188 188 124
Width: 3252
GlyphClass: 2
Flags: W
LayerCount: 2
Fore
SplineSet
1817 173 m 1,0,-1
 1816 164 l 1,1,2
 1816 146 1816 146 1832.5 133 c 128,-1,3
 1849 120 1849 120 1870 120 c 2,4,-1
 2594 120 l 1,5,-1
 2594 -53 l 2,6,7
 2594 -76 2594 -76 2609 -91 c 128,-1,8
 2624 -106 2624 -106 2647 -106 c 2,9,-1
 2870 -105 l 2,10,11
 2892 -105 2892 -105 2907 -90.5 c 128,-1,12
 2922 -76 2922 -76 2922 -53 c 2,13,-1
 2922 120 l 1,14,-1
 3036 120 l 2,15,16
 3059 120 3059 120 3074 135 c 128,-1,17
 3089 150 3089 150 3089 173 c 2,18,-1
 3089 319 l 2,19,20
 3089 342 3089 342 3074 357 c 128,-1,21
 3059 372 3059 372 3036 372 c 2,22,-1
 2922 372 l 1,23,-1
 2922 954 l 2,24,25
 2922 977 2922 977 2907 992 c 128,-1,26
 2892 1007 2892 1007 2870 1007 c 2,27,-1
 2647 1007 l 2,28,29
 2624 1007 2624 1007 2609 991.5 c 128,-1,30
 2594 976 2594 976 2594 954 c 2,31,-1
 2594 372 l 1,32,-1
 2365 372 l 2,33,34
 2355 372 2355 372 2347.5 378.5 c 128,-1,35
 2340 385 2340 385 2340 394 c 2,36,-1
 2340 397 l 1,37,-1
 2465 953 l 1,38,-1
 2466 961 l 1,39,40
 2466 980 2466 980 2449.5 993.5 c 128,-1,41
 2433 1007 2433 1007 2412 1007 c 2,42,-1
 2097 1007 l 2,43,44
 2057 1007 2057 1007 2044 954 c 1,45,-1
 1817 173 l 1,0,-1
160 1168 m 2,46,-1
 250 1171 l 2,47,48
 266 1171 266 1171 266 1170 c 1,49,50
 272 1170 272 1170 278 1067.5 c 128,-1,51
 284 965 284 965 284 924.5 c 128,-1,52
 284 884 284 884 288.5 686 c 128,-1,53
 293 488 293 488 299 488 c 1,54,55
 299 474 299 474 345 461.5 c 128,-1,56
 391 449 391 449 422.5 449 c 128,-1,57
 454 449 454 449 597 453.5 c 128,-1,58
 740 458 740 458 740 464 c 1,59,60
 753 464 753 464 765.5 599 c 128,-1,61
 778 734 778 734 778 792.5 c 128,-1,62
 778 851 778 851 773.5 1140 c 128,-1,63
 769 1429 769 1429 763 1429 c 1,64,65
 763 1453 763 1453 576 1453 c 0,66,67
 560 1453 560 1453 327.5 1427.5 c 128,-1,68
 95 1402 95 1402 95 1396 c 1,69,70
 81 1396 81 1396 69 1372 c 128,-1,71
 57 1348 57 1348 57 1329.5 c 128,-1,72
 57 1311 57 1311 61.5 1256 c 128,-1,73
 66 1201 66 1201 72 1201 c 1,74,75
 72 1187 72 1187 105 1177.5 c 128,-1,76
 138 1168 138 1168 160 1168 c 2,46,-1
1080 -207 m 0,77,78
 1096 -207 1096 -207 1117.5 -199 c 128,-1,79
 1139 -191 1139 -191 1143.5 -185 c 128,-1,80
 1148 -179 1148 -179 1370.5 270.5 c 0,81,82
 2038 1619 2038 1619 2030 1619 c 1,83,84
 2030.84210526 1620.68421053 2030.84210526 1620.68421053 2030.84210526 1622.39058172 c 0,85,86
 2030.84210526 1628.78947368 2030.84210526 1628.78947368 2019 1635.5 c 0,87,88
 2004 1644 2004 1644 1988.5 1645 c 128,-1,89
 1973 1646 1973 1646 1730 1646 c 0,90,91
 1713 1646 1713 1646 1692 1638.5 c 128,-1,92
 1671 1631 1671 1631 1666 1619 c 1,93,94
 1657.5105673 1619 1657.5105673 1619 1217.75528365 720.5 c 128,-1,95
 778 -178 778 -178 781 -178 c 1,96,97
 779.571428571 -180.285714286 779.571428571 -180.285714286 779.571428571 -182.612244898 c 0,98,99
 779.571428571 -188.428571429 779.571428571 -188.428571429 788.5 -194.5 c 0,100,101
 801 -203 801 -203 830 -205 c 128,-1,102
 859 -207 859 -207 1080 -207 c 0,77,78
EndSplineSet
EndChar

StartChar: onehalf
Encoding: 189 189 125
Width: 3666
GlyphClass: 2
Flags: W
LayerCount: 2
Fore
SplineSet
3327 13 m 1,0,1
 3356 13 3356 13 3356 74 c 0,2,3
 3356 92 3356 92 3352.5 138 c 128,-1,4
 3349 184 3349 184 3345 184 c 1,5,6
 3345 199 3345 199 3234 207.5 c 128,-1,7
 3123 216 3123 216 3072.5 216 c 0,8,9
 2579.33333333 216 2579.33333333 216 2577 223 c 1,10,11
 2548 231 2548 231 2553 254 c 1,12,13
 2582.89287749 299.718518519 2582.89287749 299.718518519 2681 316.5 c 0,14,15
 2719 323 2719 323 2755.5 332 c 0,16,17
 2837.12818746 352.127498277 2837.12818746 352.127498277 2839 427 c 1,18,19
 2909.78651685 475.764044944 2909.78651685 475.764044944 3002.39325843 511.382022472 c 128,-1,20
 3095 547 3095 547 3137 568.5 c 0,21,22
 3224 613.035714286 3224 613.035714286 3224 691 c 0,23,24
 3224 746.954545455 3224 746.954545455 3181 831 c 1,25,26
 3120.68827385 984.520757465 3120.68827385 984.520757465 2845.5 1011.5 c 0,27,28
 2769 1019 2769 1019 2686.5 1019 c 128,-1,29
 2604 1019 2604 1019 2508.5 1016.5 c 128,-1,30
 2413 1014 2413 1014 2291 988 c 128,-1,31
 2169 962 2169 962 2112 931 c 0,32,33
 2099 925 2099 925 2099 905 c 128,-1,34
 2099 885 2099 885 2112.5 836 c 128,-1,35
 2126 787 2126 787 2151 754 c 1,36,37
 2159 739 2159 739 2176 740 c 128,-1,38
 2193 741 2193 741 2223.5 748 c 0,39,40
 2312.41396509 768.406483791 2312.41396509 768.406483791 2349.70698254 769.703241895 c 128,-1,41
 2387 771 2387 771 2429.5 774.5 c 128,-1,42
 2472 778 2472 778 2512 781.5 c 0,43,44
 2620.57142857 791 2620.57142857 791 2705.78571429 791 c 128,-1,45
 2791 791 2791 791 2855 780 c 1,46,47
 2895 759.047619048 2895 759.047619048 2895 750.523809524 c 128,-1,48
 2895 742 2895 742 2882 736 c 128,-1,49
 2869 730 2869 730 2849 724.5 c 128,-1,50
 2829 719 2829 719 2805 706 c 128,-1,51
 2781 693 2781 693 2759.5 676 c 0,52,53
 2709.00967742 636.077419355 2709.00967742 636.077419355 2699 556 c 1,54,55
 2699 518.860465116 2699 518.860465116 2604 504.5 c 0,56,57
 2363.78681032 468.188703885 2363.78681032 468.188703885 2290.89340516 434.594351943 c 128,-1,58
 2218 401 2218 401 2171 365.5 c 0,59,60
 2068.07699038 287.760279965 2068.07699038 287.760279965 2052 129 c 1,61,62
 2052 51 2052 51 2066 46 c 1,63,64
 2066 28 2066 28 2233 14 c 128,-1,65
 2400 0 2400 0 2462 0 c 0,66,67
 3327 0 3327 0 3327 13 c 1,0,1
493 431 m 2,68,-1
 881 431 l 2,69,70
 904 431 904 431 919 446.5 c 128,-1,71
 934 462 934 462 934 484 c 2,72,-1
 934 1384 l 2,73,74
 934 1407 934 1407 919 1422 c 128,-1,75
 904 1437 904 1437 881 1437 c 1,76,-1
 266 1381 l 1,77,78
 243 1381 243 1381 228 1366 c 128,-1,79
 213 1351 213 1351 213 1329 c 2,80,-1
 213 1189 l 2,81,82
 213 1166 213 1166 228.5 1151 c 128,-1,83
 244 1136 244 1136 266 1136 c 1,84,-1
 414 1151 l 1,85,86
 424 1151 424 1151 432 1143.5 c 128,-1,87
 440 1136 440 1136 440 1125 c 2,88,-1
 440 484 l 2,89,90
 440 462 440 462 455 446.5 c 128,-1,91
 470 431 470 431 493 431 c 2,68,-1
1204 -206 m 0,92,93
 1220 -206 1220 -206 1242 -198 c 128,-1,94
 1264 -190 1264 -190 1268.5 -184 c 128,-1,95
 1273 -178 1273 -178 1495 271.5 c 0,96,97
 2161 1620 2161 1620 2155 1620 c 1,98,99
 2155.96969697 1622.18181818 2155.96969697 1622.18181818 2155.96969697 1624.30486685 c 0,100,101
 2155.96969697 1630.93939394 2155.96969697 1630.93939394 2146.5 1637 c 0,102,103
 2134 1645 2134 1645 2111.5 1646.5 c 128,-1,104
 2089 1648 2089 1648 1855 1648 c 0,105,106
 1839 1648 1839 1648 1817.5 1640 c 128,-1,107
 1796 1632 1796 1632 1792 1626 c 128,-1,108
 1788 1620 1788 1620 1565.5 1171 c 0,109,110
 898 -176 898 -176 905 -176 c 1,111,112
 903.571428571 -178.571428571 903.571428571 -178.571428571 903.571428571 -181.102040816 c 0,113,114
 903.571428571 -187.428571429 903.571428571 -187.428571429 912.5 -193.5 c 0,115,116
 925 -202 925 -202 954 -204 c 128,-1,117
 983 -206 983 -206 1204 -206 c 0,92,93
EndSplineSet
EndChar

StartChar: AE
Encoding: 198 198 134
Width: 3037
GlyphClass: 2
Flags: W
LayerCount: 2
Fore
SplineSet
1877 863 m 2,0,1
 1847 863 1847 863 1847 890 c 2,2,-1
 1847 1067 l 2,3,4
 1847 1094 1847 1094 1879 1094 c 2,5,-1
 2758 1094 l 2,6,7
 2790 1094 2790 1094 2811.5 1116.5 c 128,-1,8
 2833 1139 2833 1139 2833 1171 c 2,9,-1
 2833 1361 l 2,10,11
 2833 1393 2833 1393 2811.5 1415.5 c 128,-1,12
 2790 1438 2790 1438 2758 1438 c 2,13,-1
 861 1438 l 2,14,15
 827 1438 827 1438 797.5 1419 c 128,-1,16
 768 1400 768 1400 752 1369 c 2,17,-1
 111 69 l 2,18,19
 105 59 105 59 105 43 c 128,-1,20
 105 27 105 27 118.5 13.5 c 128,-1,21
 132 0 132 0 153 0 c 2,22,-1
 628 0 l 2,23,24
 701 0 701 0 726 59 c 2,25,-1
 776 180 l 2,26,27
 777 182 777 182 779 186.5 c 128,-1,28
 781 191 781 191 782 193 c 128,-1,29
 783 195 783 195 785 198.5 c 128,-1,30
 787 202 787 202 789 203 c 128,-1,31
 791 204 791 204 794.5 206 c 0,32,33
 799.75 209 799.75 209 813 209 c 2,34,-1
 1214 209 l 1,35,-1
 1214 76 l 2,36,37
 1214 44 1214 44 1236 22 c 128,-1,38
 1258 0 1258 0 1290 0 c 2,39,-1
 2820 0 l 2,40,41
 2852 0 2852 0 2873.5 22.5 c 128,-1,42
 2895 45 2895 45 2895 77 c 2,43,-1
 2895 262 l 2,44,45
 2895 294 2895 294 2873.5 316.5 c 128,-1,46
 2852 339 2852 339 2820 339 c 2,47,-1
 1877 339 l 2,48,49
 1847 339 1847 339 1847 364 c 2,50,-1
 1847 572 l 2,51,52
 1847 598 1847 598 1878 598 c 2,53,-1
 2669 598 l 2,54,55
 2701 598 2701 598 2723 620.5 c 128,-1,56
 2745 643 2745 643 2745 675 c 2,57,-1
 2745 786 l 2,58,59
 2745 818 2745 818 2723 840.5 c 128,-1,60
 2701 863 2701 863 2669 863 c 2,61,-1
 1877 863 l 2,0,1
956 534 m 2,62,63
 946 534 946 534 939.5 540.5 c 128,-1,64
 933 547 933 547 933 553 c 128,-1,65
 933 559 933 559 935 563 c 2,66,-1
 1181 1142 l 2,67,68
 1184 1150 1184 1150 1193 1150 c 2,69,-1
 1214 1150 l 1,70,-1
 1214 534 l 1,71,-1
 956 534 l 2,62,63
EndSplineSet
EndChar

StartChar: Eth
Encoding: 208 208 144
Width: 2421
GlyphClass: 2
Flags: W
LayerCount: 2
Fore
SplineSet
1113 346 m 2,0,-1
 865 346 l 2,1,2
 851 346 851 346 839.5 357 c 128,-1,3
 828 368 828 368 828 381 c 2,4,-1
 828 631 l 1,5,-1
 1015 631 l 2,6,7
 1073 631 1073 631 1075 701 c 1,8,-1
 1075 757 l 2,9,10
 1075 832 1075 832 1015 832 c 2,11,-1
 828 832 l 1,12,-1
 828 1063 l 2,13,14
 828 1076 828 1076 839 1086.5 c 128,-1,15
 850 1097 850 1097 863 1097 c 0,16,17
 971 1099 971 1099 1112 1099 c 128,-1,18
 1253 1099 1253 1099 1312 1091.5 c 128,-1,19
 1371 1084 1371 1084 1431.5 1060 c 128,-1,20
 1492 1036 1492 1036 1531.5 996.5 c 0,21,22
 1621 907 1621 907 1621 728 c 0,23,24
 1621 516.409090909 1621 516.409090909 1525 433.5 c 0,25,26
 1461.38639281 378.56097561 1461.38639281 378.56097561 1388.69319641 365.280487805 c 0,27,28
 1283.15789474 346 1283.15789474 346 1113 346 c 2,0,-1
235 0 m 2,29,-1
 1218 0 l 2,30,31
 1587.57142857 0 1587.57142857 0 1751.5 34 c 0,32,33
 1938.82057416 72.8516746411 1938.82057416 72.8516746411 2029.5 138 c 0,34,35
 2164.72235896 235.150044304 2164.72235896 235.150044304 2215.5 356.5 c 0,36,37
 2282 515.423728814 2282 515.423728814 2282 701.211864407 c 128,-1,38
 2282 887 2282 887 2230.5 1010 c 128,-1,39
 2179 1133 2179 1133 2091.5 1212 c 128,-1,40
 2004 1291 2004 1291 1879.5 1343 c 0,41,42
 1652.04807692 1438 1652.04807692 1438 1321 1438 c 2,43,-1
 235 1438 l 2,44,45
 203 1438 203 1438 181 1415.5 c 128,-1,46
 159 1393 159 1393 159 1361 c 2,47,-1
 159 832 l 1,48,-1
 60 832 l 2,49,50
 0 832 0 832 0 757 c 2,51,-1
 0 707 l 2,52,53
 0 631 0 631 60 631 c 2,54,-1
 159 631 l 1,55,-1
 159 76 l 2,56,57
 159 44 159 44 181 22 c 128,-1,58
 203 0 203 0 235 0 c 2,29,-1
EndSplineSet
EndChar

StartChar: multiply
Encoding: 215 215 151
Width: 1190
GlyphClass: 2
Flags: W
LayerCount: 2
Fore
SplineSet
277 216 m 2,0,1
 300 193 300 193 330.5 193 c 128,-1,2
 361 193 361 193 375.5 207.5 c 2,3,-1
 595 427 l 1,4,5
 635 389 635 389 807 217 c 0,6,7
 829 195 829 195 861.5 195 c 128,-1,8
 894 195 894 195 916 217 c 2,9,-1
 1025 326 l 2,10,11
 1047 348 1047 348 1047 380.5 c 128,-1,12
 1047 413 1047 413 1024 435 c 2,13,-1
 814 646 l 1,14,15
 852 686 852 686 1024 858 c 0,16,17
 1047 881 1047 881 1047 912.5 c 128,-1,18
 1047 944 1047 944 1024 967 c 2,19,-1
 915 1076 l 2,20,21
 893 1099 893 1099 861 1099 c 128,-1,22
 829 1099 829 1099 806 1076 c 0,23,24
 806 1075 806 1075 757.5 1026.5 c 0,25,26
 676.25 945.25 676.25 945.25 595 864 c 1,27,28
 385 1074 385 1074 384 1074 c 0,29,30
 362 1097 362 1097 331 1097 c 128,-1,31
 300 1097 300 1097 275 1074 c 1,32,-1
 165 964 l 2,33,34
 142 941 142 941 142 910.5 c 128,-1,35
 142 880 142 880 156.5 865.5 c 2,36,-1
 376 646 l 1,37,38
 358 627 358 627 166 435 c 0,39,40
 144 413 144 413 144 381 c 128,-1,41
 144 349 144 349 166 326 c 2,42,-1
 277 216 l 2,0,1
EndSplineSet
EndChar

StartChar: Oslash
Encoding: 216 216 152
Width: 2667
GlyphClass: 2
Flags: W
LayerCount: 2
Fore
SplineSet
1022 -202 m 2,0,1
 1053.8 -202 1053.8 -202 1067 -169 c 2,2,-1
 1124 -34 l 1,3,4
 1223 -41 1223 -41 1338 -41 c 128,-1,5
 1453 -41 1453 -41 1563.5 -33 c 128,-1,6
 1674 -25 1674 -25 1797.5 -2.5 c 128,-1,7
 1921 20 1921 20 2024 56 c 128,-1,8
 2127 92 2127 92 2223 151.5 c 128,-1,9
 2319 211 2319 211 2385.5 288.5 c 0,10,11
 2532 459.233082707 2532 459.233082707 2532 722 c 0,12,13
 2532 1091.07177033 2532 1091.07177033 2192.5 1286 c 0,14,15
 2001.78413895 1395.50192979 2001.78413895 1395.50192979 1735 1441 c 1,16,-1
 1801 1602 l 2,17,18
 1806 1613 1806 1613 1800 1624 c 128,-1,19
 1794 1635 1794 1635 1784 1635 c 2,20,-1
 1642 1635 l 2,21,22
 1611 1635 1611 1635 1598 1602 c 2,23,-1
 1542 1466 l 1,24,25
 1451 1475 1451 1475 1333.5 1475 c 128,-1,26
 1216 1475 1216 1475 1102.5 1465 c 128,-1,27
 989 1455 989 1455 868 1430 c 128,-1,28
 747 1405 747 1405 642 1367 c 128,-1,29
 537 1329 537 1329 442.5 1269 c 128,-1,30
 348 1209 348 1209 280.5 1133 c 0,31,32
 134 968.051851852 134 968.051851852 134 722 c 0,33,34
 134 581 134 581 178 466 c 128,-1,35
 222 351 222 351 294.5 272.5 c 128,-1,36
 367 194 367 194 471.5 134.5 c 0,37,38
 658.215093347 28.1885353668 658.215093347 28.1885353668 928 -13 c 1,39,-1
 863 -167 l 2,40,41
 858 -178 858 -178 863.5 -189 c 128,-1,42
 869 -200 869 -200 880 -200 c 2,43,-1
 1022 -202 l 2,0,1
1085 367 m 1,44,45
 898 451 898 451 898 722 c 0,46,47
 898 944.378151261 898 944.378151261 1018.5 1034.5 c 0,48,49
 1130.14606742 1118 1130.14606742 1118 1333 1118 c 0,50,51
 1376 1118 1376 1118 1397 1116 c 1,52,-1
 1085 367 l 1,44,45
1363 322 m 0,53,54
 1291 322 1291 322 1271 323 c 1,55,-1
 1582 1073 l 1,56,57
 1768 986 1768 986 1768 722 c 0,58,59
 1768 492.466666667 1768 492.466666667 1646 403 c 0,60,61
 1535.54545455 322 1535.54545455 322 1363 322 c 0,53,54
EndSplineSet
EndChar

StartChar: Thorn
Encoding: 222 222 158
Width: 2348
GlyphClass: 2
Flags: W
LayerCount: 2
Fore
SplineSet
235 0 m 2,0,-1
 751 0 l 2,1,2
 783 0 783 0 805 22 c 128,-1,3
 827 44 827 44 827 76 c 2,4,-1
 827 290 l 2,5,6
 827 303 827 303 837.5 314 c 128,-1,7
 848 325 848 325 861 325 c 0,8,9
 931 326 931 326 1090.5 326 c 128,-1,10
 1250 326 1250 326 1328 327 c 128,-1,11
 1406 328 1406 328 1477.5 330.5 c 128,-1,12
 1549 333 1549 333 1629.5 340 c 128,-1,13
 1710 347 1710 347 1771.5 358.5 c 128,-1,14
 1833 370 1833 370 1896 388.5 c 128,-1,15
 1959 407 1959 407 2005 432 c 128,-1,16
 2051 457 2051 457 2092.5 492.5 c 128,-1,17
 2134 528 2134 528 2159.5 572.5 c 0,18,19
 2215 669.352941176 2215 669.352941176 2215 803 c 0,20,21
 2215 934.608695652 2215 934.608695652 2162 1036 c 0,22,23
 2126.45875252 1103.99195171 2126.45875252 1103.99195171 2010 1169.5 c 0,24,25
 1881.93519352 1241.53645365 1881.93519352 1241.53645365 1471.5 1248 c 0,26,27
 1408 1249 1408 1249 1298 1249 c 2,28,-1
 827 1249 l 1,29,-1
 827 1363 l 2,30,31
 827 1395 827 1395 805 1416.5 c 128,-1,32
 783 1438 783 1438 751 1438 c 2,33,-1
 235 1438 l 2,34,35
 203 1438 203 1438 181 1416.5 c 128,-1,36
 159 1395 159 1395 159 1363 c 2,37,-1
 159 76 l 2,38,39
 159 44 159 44 181 22 c 128,-1,40
 203 0 203 0 235 0 c 2,0,-1
1213.5 953 m 2,41,42
 1232.75 953 1232.75 953 1258.875 953 c 128,-1,43
 1285 953 1285 953 1311.5 952 c 128,-1,44
 1338 951 1338 951 1367.5 946.5 c 128,-1,45
 1397 942 1397 942 1419.5 935 c 128,-1,46
 1442 928 1442 928 1464 915.5 c 128,-1,47
 1486 903 1486 903 1499.5 885.5 c 0,48,49
 1530 845.962962963 1530 845.962962963 1530 794.481481481 c 128,-1,50
 1530 743 1530 743 1515 711.5 c 128,-1,51
 1500 680 1500 680 1476 661.5 c 128,-1,52
 1452 643 1452 643 1415 632 c 0,53,54
 1354.45454545 614 1354.45454545 614 1254 614 c 2,55,-1
 861 614 l 2,56,57
 848 614 848 614 837.5 625 c 128,-1,58
 827 636 827 636 827 649 c 2,59,-1
 827 918 l 2,60,61
 827 931 827 931 837.5 941.5 c 128,-1,62
 848 952 848 952 861 952 c 0,63,64
 1018.25 952 1018.25 952 1175.5 952 c 1,65,-1
 1213.5 953 l 2,41,42
EndSplineSet
EndChar

StartChar: germandbls
Encoding: 223 223 159
Width: 2042
GlyphClass: 2
Flags: W
LayerCount: 2
Fore
SplineSet
1783 1040 m 0,0,1
 1783 1438 1783 1438 1027 1438 c 2,2,-1
 824 1438 l 2,3,4
 372.8 1438 372.8 1438 234 1264.5 c 0,5,6
 156 1167 156 1167 156 969 c 2,7,-1
 156 77 l 2,8,9
 156 44 156 44 177 22 c 128,-1,10
 198 0 198 0 230 0 c 2,11,-1
 615 0 l 2,12,13
 705 0 705 0 705 103 c 2,14,-1
 705 920 l 2,15,16
 705 1038 705 1038 766 1092.5 c 128,-1,17
 827 1147 827 1147 963 1147 c 0,18,19
 1154.55 1147 1154.55 1147 1198.275 1130.5 c 128,-1,20
 1242 1114 1242 1114 1265.5 1097.5 c 0,21,22
 1310 1066.25531915 1310 1066.25531915 1310 994.627659574 c 128,-1,23
 1310 923 1310 923 1252 893.5 c 128,-1,24
 1194 864 1194 864 1049 861 c 1,25,-1
 943 861 l 2,26,27
 888 861 888 861 888 811 c 2,28,-1
 888 689 l 2,29,30
 888 672 888 672 902 659 c 128,-1,31
 916 646 916 646 943 646 c 2,32,-1
 1033 646 l 2,33,34
 1224 646 1224 646 1295.5 617 c 128,-1,35
 1367 588 1367 588 1367 497 c 0,36,37
 1367 378.608695652 1367 378.608695652 1240 351 c 0,38,39
 1161.8 334 1161.8 334 1016 334 c 0,40,41
 978.5 334 978.5 334 944.75 334 c 128,-1,42
 911 334 911 334 897 316 c 128,-1,43
 883 298 883 298 883 277 c 2,44,-1
 883 73 l 2,45,46
 883 0 883 0 944 0 c 2,47,-1
 1009 0 l 2,48,49
 1910 0 1910 0 1910 424 c 0,50,51
 1910 653.05511811 1910 653.05511811 1638 758 c 0,52,53
 1627 762 1627 762 1626 771.5 c 128,-1,54
 1625 781 1625 781 1635 787 c 0,55,56
 1783 870.487179487 1783 870.487179487 1783 1040 c 0,0,1
EndSplineSet
EndChar

StartChar: ae
Encoding: 230 230 166
Width: 3007
GlyphClass: 2
Flags: W
LayerCount: 2
Fore
SplineSet
1249 661 m 1,0,-1
 1248 639 l 2,1,2
 1248 626.480769231 1248 626.480769231 1122.5 619.240384615 c 128,-1,3
 997 612 997 612 897 601.5 c 128,-1,4
 797 591 797 591 693.5 577 c 128,-1,5
 590 563 590 563 490 534.5 c 128,-1,6
 390 506 390 506 312 468.5 c 128,-1,7
 234 431 234 431 186.5 371.5 c 128,-1,8
 139 312 139 312 139 238 c 0,9,10
 139 107 139 107 300.5 33 c 128,-1,11
 462 -41 462 -41 736 -41 c 0,12,13
 1202 -41 1202 -41 1419 176 c 1,14,15
 1437 162 1437 162 1446 156 c 1,16,17
 1571 53 1571 53 1759.5 6 c 128,-1,18
 1948 -41 1948 -41 2102.5 -41 c 128,-1,19
 2257 -41 2257 -41 2449 -13.5 c 128,-1,20
 2641 14 2641 14 2749 49 c 0,21,22
 2799 64.2173913043 2799 64.2173913043 2799 117 c 0,23,24
 2799 135.857142857 2799 135.857142857 2765 233 c 1,25,26
 2749.72727273 281 2749.72727273 281 2698 281 c 0,27,28
 2685 281 2685 281 2672 277 c 0,29,30
 2449 209 2449 209 2257 209 c 0,31,32
 2094.85714286 209 2094.85714286 209 1960.5 258.5 c 0,33,34
 1894 283 1894 283 1853 326.5 c 128,-1,35
 1812 370 1812 370 1812 426 c 0,36,37
 1812 454 1812 454 1835 454 c 2,38,-1
 2821 454 l 2,39,40
 2854 454 2854 454 2864 473.5 c 128,-1,41
 2874 493 2874 493 2874 533 c 0,42,43
 2872 644 2872 644 2824.5 734 c 128,-1,44
 2777 824 2777 824 2700.5 882.5 c 128,-1,45
 2624 941 2624 941 2522 980.5 c 0,46,47
 2334.78481013 1053 2334.78481013 1053 2091 1053 c 0,48,49
 1945 1053 1945 1053 1792.5 1014.5 c 128,-1,50
 1640 976 1640 976 1520 906 c 1,51,52
 1335 1053 1335 1053 967.5 1053 c 128,-1,53
 600 1053 600 1053 410.5 1003 c 128,-1,54
 221 953 221 953 177 846 c 0,55,56
 166 817 166 817 166 803.5 c 0,57,58
 166 770.666666667 166 770.666666667 194 766 c 1,59,-1
 578 731 l 2,60,61
 596 729 596 729 611.5 729 c 128,-1,62
 627 729 627 729 669 767 c 128,-1,63
 711 805 711 805 797.5 827 c 128,-1,64
 884 849 884 849 961 849 c 0,65,66
 1117 849 1117 849 1183 800 c 128,-1,67
 1249 751 1249 751 1249 661 c 1,0,-1
1136.5 248.5 m 128,-1,69
 1012 174 1012 174 846.5 174 c 128,-1,70
 681 174 681 174 681 271 c 0,71,72
 681 340 681 340 811 380.5 c 128,-1,73
 941 421 941 421 1205 454 c 0,74,75
 1215 456 1215 456 1233 456 c 0,76,77
 1261 456 1261 456 1261 424 c 0,78,68
 1261 323 1261 323 1136.5 248.5 c 128,-1,69
1824 611 m 2,79,80
 1813 611 1813 611 1813 641 c 1,81,82
 1820 723 1820 723 1903.5 779 c 128,-1,83
 1987 835 1987 835 2103.5 835 c 128,-1,84
 2220 835 2220 835 2293 778 c 128,-1,85
 2366 721 2366 721 2378 636 c 1,86,87
 2378 611 2378 611 2367 611 c 2,88,-1
 1824 611 l 2,79,80
EndSplineSet
EndChar

StartChar: eth
Encoding: 240 240 176
Width: 2057
GlyphClass: 2
Flags: W
LayerCount: 2
Fore
SplineSet
1011 -40 m 0,0,1
 1921 -40 1921 -40 1921 613 c 0,2,3
 1921 846 1921 846 1745 1035.5 c 128,-1,4
 1569 1225 1569 1225 1263 1358 c 1,5,6
 1312.5 1412 l 2,7,8
 1351 1454 1351 1454 1366 1469 c 128,-1,9
 1381 1484 1381 1484 1381 1505.5 c 128,-1,10
 1381 1527 1381 1527 1373.5 1534 c 128,-1,11
 1366 1541 1366 1541 1307 1598 c 0,12,13
 1292 1613 1292 1613 1270.5 1613 c 128,-1,14
 1249 1613 1249 1613 1226.5 1589.5 c 128,-1,15
 1204 1566 1204 1566 1077 1429 c 1,16,17
 835.217391304 1512 835.217391304 1512 790.608695652 1512 c 128,-1,18
 746 1512 746 1512 729 1477 c 2,19,-1
 665 1337 l 2,20,21
 659 1324 659 1324 659 1305 c 128,-1,22
 659 1286 659 1286 681 1277 c 1,23,24
 788 1240 788 1240 872 1205 c 1,25,26
 788 1115 788 1115 773 1100 c 128,-1,27
 758 1085 758 1085 758 1065 c 128,-1,28
 758 1045 758 1045 771 1030 c 1,29,-1
 832 973 l 2,30,31
 847 958 847 958 868.5 958 c 128,-1,32
 890 958 890 958 905.5 974.5 c 128,-1,33
 921 991 921 991 975 1047 c 128,-1,34
 1029 1103 1029 1103 1048 1123 c 1,35,36
 1186 1050 1186 1050 1260 975 c 128,-1,37
 1334 900 1334 900 1367 811 c 1,38,39
 1300 855 1300 855 1163.5 879 c 128,-1,40
 1027 903 1027 903 893 903 c 0,41,42
 524 903 524 903 327.5 779.5 c 128,-1,43
 131 656 131 656 131 444 c 0,44,45
 131 196 131 196 350 78 c 128,-1,46
 569 -40 569 -40 1011 -40 c 0,0,1
1163 259.5 m 128,-1,48
 1103 249 1103 249 1022.5 249 c 128,-1,49
 942 249 942 249 882.5 258.5 c 128,-1,50
 823 268 823 268 774 291 c 0,51,52
 675 337.469387755 675 337.469387755 675 456.734693878 c 128,-1,53
 675 576 675 576 750 629.5 c 128,-1,54
 825 683 825 683 1001 683 c 0,55,56
 1217.02105263 683 1217.02105263 683 1318 592.5 c 0,57,58
 1371 545 1371 545 1371 478.5 c 128,-1,59
 1371 412 1371 412 1346 366 c 128,-1,60
 1321 320 1321 320 1272 295 c 128,-1,47
 1223 270 1223 270 1163 259.5 c 128,-1,48
EndSplineSet
EndChar

StartChar: divide
Encoding: 247 247 183
Width: 1291
GlyphClass: 2
Flags: W
LayerCount: 2
Fore
SplineSet
584 1 m 2,0,-1
 720 1 l 2,1,2
 752 1 752 1 774.5 23.5 c 128,-1,3
 797 46 797 46 797 78 c 2,4,-1
 797 222 l 2,5,6
 797 254 797 254 774.5 276.5 c 128,-1,7
 752 299 752 299 720 299 c 2,8,-1
 584 299 l 2,9,10
 552 299 552 299 529.5 276.5 c 128,-1,11
 507 254 507 254 507 222 c 2,12,-1
 507 78 l 2,13,14
 507 46 507 46 529.5 23.5 c 128,-1,15
 552 1 552 1 584 1 c 2,0,-1
194 428 m 2,16,-1
 1098 428 l 2,17,18
 1165 428 1165 428 1165 495 c 2,19,-1
 1165 587 l 2,20,21
 1165 654 1165 654 1098 654 c 2,22,-1
 194 654 l 2,23,24
 127 654 127 654 127 587 c 2,25,-1
 127 495 l 2,26,27
 127 428 127 428 194 428 c 2,16,-1
584 757 m 2,28,-1
 720 757 l 2,29,30
 752 757 752 757 774.5 779.5 c 128,-1,31
 797 802 797 802 797 834 c 2,32,-1
 797 978 l 2,33,34
 797 1010 797 1010 774.5 1032.5 c 128,-1,35
 752 1055 752 1055 720 1055 c 2,36,-1
 584 1055 l 2,37,38
 552 1055 552 1055 529.5 1032.5 c 128,-1,39
 507 1010 507 1010 507 978 c 2,40,-1
 507 834 l 2,41,42
 507 802 507 802 529.5 779.5 c 128,-1,43
 552 757 552 757 584 757 c 2,28,-1
EndSplineSet
EndChar

StartChar: oslash
Encoding: 248 248 184
Width: 2002
GlyphClass: 2
Flags: W
LayerCount: 2
Fore
SplineSet
747 -202 m 2,0,1
 778.8 -202 778.8 -202 792 -169 c 2,2,-1
 847 -37 l 1,3,4
 918 -41 918 -41 1004.5 -41 c 128,-1,5
 1091 -41 1091 -41 1167 -36.5 c 128,-1,6
 1243 -32 1243 -32 1335 -18 c 128,-1,7
 1427 -4 1427 -4 1500 20 c 128,-1,8
 1573 44 1573 44 1644.5 85.5 c 128,-1,9
 1716 127 1716 127 1763.5 183.5 c 0,10,11
 1870 310.178947368 1870 310.178947368 1870 507 c 0,12,13
 1870 953 1870 953 1290 1035 c 1,14,-1
 1343 1164 l 2,15,16
 1348 1175 1348 1175 1342 1186 c 128,-1,17
 1336 1197 1336 1197 1326 1197 c 2,18,-1
 1249 1197 l 2,19,20
 1218 1197 1218 1197 1205 1164 c 2,21,-1
 1157 1048 l 1,22,23
 1090 1053 1090 1053 1001 1053 c 0,24,25
 132 1053 132 1053 132 507 c 0,26,27
 132 206.051948052 132 206.051948052 380 74 c 0,28,29
 513.248040886 3.04974446337 513.248040886 3.04974446337 713 -24 c 1,30,-1
 653 -167 l 2,31,32
 648 -178 648 -178 653.5 -189 c 128,-1,33
 659 -200 659 -200 670 -200 c 2,34,-1
 747 -202 l 2,0,1
825 248 m 1,35,36
 678 316 678 316 679 507 c 1,37,38
 678 639 678 639 764 718.5 c 128,-1,39
 850 798 850 798 1001 798 c 0,40,41
 1028 798 1028 798 1052 795 c 1,42,-1
 825 248 l 1,35,36
1177 760 m 1,43,44
 1324 687.535211268 1324 687.535211268 1324 507 c 0,45,46
 1324 361 1324 361 1239.5 288 c 128,-1,47
 1155 215 1155 215 1001 215 c 0,48,49
 982 215 982 215 952 217 c 1,50,-1
 1177 760 l 1,43,44
EndSplineSet
EndChar

StartChar: thorn
Encoding: 254 254 190
Width: 2044
GlyphClass: 2
Flags: W
LayerCount: 2
Fore
SplineSet
711 62 m 2,0,1
 711 81 711 81 728 81 c 0,2,3
 733 81 733 81 739 77 c 0,4,5
 905.827586207 -41 905.827586207 -41 1204 -41 c 0,6,7
 1425.10465116 -41 1425.10465116 -41 1601.5 41 c 0,8,9
 1796.67926515 131.731982718 1796.67926515 131.731982718 1872 303.5 c 0,10,11
 1913 397 1913 397 1913 508 c 128,-1,12
 1913 619 1913 619 1871 709.5 c 128,-1,13
 1829 800 1829 800 1757.5 862.5 c 128,-1,14
 1686 925 1686 925 1590.5 969 c 0,15,16
 1408.18181818 1053 1408.18181818 1053 1168.09090909 1053 c 128,-1,17
 928 1053 928 1053 734 931 c 0,18,19
 726 926 726 926 721 926 c 0,20,21
 708 926 708 926 708 975 c 2,22,-1
 708 1356 l 2,23,24
 708 1393 708 1393 686.5 1415.5 c 128,-1,25
 665 1438 665 1438 632 1438 c 2,26,-1
 234 1438 l 2,27,28
 202 1438 202 1438 181 1416.5 c 128,-1,29
 160 1395 160 1395 160 1363 c 2,30,-1
 160 -246 l 2,31,32
 160 -278 160 -278 179.5 -298 c 128,-1,33
 199 -318 199 -318 231 -318 c 2,34,-1
 638 -318 l 2,35,36
 670 -318 670 -318 690.5 -298 c 128,-1,37
 711 -278 711 -278 711 -246 c 2,38,-1
 711 62 l 2,0,1
1255 294.5 m 128,-1,40
 1171 213 1171 213 1027 213 c 128,-1,41
 883 213 883 213 796.5 296 c 128,-1,42
 710 379 710 379 710 498.5 c 128,-1,43
 710 618 710 618 795 699.5 c 128,-1,44
 880 781 880 781 1025.5 781 c 128,-1,45
 1171 781 1171 781 1255 698.5 c 128,-1,46
 1339 616 1339 616 1339 496 c 128,-1,39
 1339 376 1339 376 1255 294.5 c 128,-1,40
EndSplineSet
EndChar

StartChar: dcroat
Encoding: 273 273 209
Width: 2038
GlyphClass: 2
Flags: W
LayerCount: 2
Fore
SplineSet
1239.5 22 m 128,-1,1
 1413 85 1413 85 1511 201 c 1,2,3
 1520 210 1520 210 1531.5 210.5 c 128,-1,4
 1543 211 1543 211 1548 203 c 0,5,6
 1628 75 1628 75 1639.5 55.5 c 128,-1,7
 1651 36 1651 36 1681 18 c 128,-1,8
 1711 0 1711 0 1744 0 c 2,9,-1
 1805 0 l 2,10,11
 1837 0 1837 0 1857.5 21.5 c 128,-1,12
 1878 43 1878 43 1878 76 c 2,13,-1
 1878 1130 l 1,14,-1
 1989 1130 l 2,15,16
 2046 1130 2046 1130 2046 1199 c 2,17,-1
 2046 1241 l 2,18,19
 2046 1310 2046 1310 1989 1310 c 2,20,-1
 1878 1310 l 1,21,-1
 1878 1360 l 2,22,23
 1878 1392 1878 1392 1856.5 1414 c 128,-1,24
 1835 1436 1835 1436 1803 1436 c 2,25,-1
 1408 1436 l 2,26,27
 1376 1436 1376 1436 1354 1414 c 128,-1,28
 1332 1392 1332 1392 1332 1360 c 2,29,-1
 1332 1310 l 1,30,-1
 1035 1310 l 2,31,32
 978 1310 978 1310 978 1241 c 2,33,-1
 978 1199 l 2,34,35
 978 1130 978 1130 1035 1130 c 2,36,-1
 1332 1130 l 1,37,-1
 1332 930 l 2,38,39
 1332 911 1332 911 1317 911 c 1,40,41
 1309 914 1309 914 1306 916 c 0,42,43
 1223 982 1223 982 1100 1017.5 c 128,-1,44
 977 1053 977 1053 855.5 1053 c 128,-1,45
 734 1053 734 1053 634.5 1033.5 c 128,-1,46
 535 1014 535 1014 443 970 c 128,-1,47
 351 926 351 926 282.5 863 c 128,-1,48
 214 800 214 800 173 706 c 128,-1,49
 132 612 132 612 132 501.5 c 128,-1,50
 132 391 132 391 174 301 c 128,-1,51
 216 211 216 211 287.5 148.5 c 128,-1,52
 359 86 359 86 454 42.5 c 0,53,54
 636.356321839 -41 636.356321839 -41 851.17816092 -41 c 128,-1,0
 1066 -41 1066 -41 1239.5 22 c 128,-1,1
1246.5 312.5 m 128,-1,56
 1161 231 1161 231 1016 231 c 128,-1,57
 871 231 871 231 787.5 312.5 c 128,-1,58
 704 394 704 394 704 513.5 c 128,-1,59
 704 633 704 633 787.5 713.5 c 128,-1,60
 871 794 871 794 1015.5 794 c 128,-1,61
 1160 794 1160 794 1246 713 c 128,-1,62
 1332 632 1332 632 1332 513 c 128,-1,55
 1332 394 1332 394 1246.5 312.5 c 128,-1,56
EndSplineSet
EndChar

StartChar: Hbar
Encoding: 294 294 230
Width: 2391
GlyphClass: 2
Flags: W
LayerCount: 2
Fore
SplineSet
235 0 m 2,0,-1
 736 0 l 2,1,2
 768 0 768 0 789.5 22 c 128,-1,3
 811 44 811 44 811 76 c 2,4,-1
 811 538 l 2,5,6
 811 551 811 551 821.5 561 c 128,-1,7
 832 571 832 571 845 571 c 2,8,-1
 1534 571 l 2,9,10
 1547 571 1547 571 1557.5 560.5 c 128,-1,11
 1568 550 1568 550 1568 537 c 2,12,-1
 1568 76 l 2,13,14
 1568 44 1568 44 1589.5 22 c 128,-1,15
 1611 0 1611 0 1643 0 c 2,16,-1
 2155 0 l 2,17,18
 2187 0 2187 0 2209 22 c 128,-1,19
 2231 44 2231 44 2231 76 c 2,20,-1
 2231 1089 l 1,21,-1
 2330 1089 l 2,22,23
 2382 1089 2382 1089 2382 1164 c 2,24,-1
 2382 1200 l 2,25,26
 2382 1275 2382 1275 2330 1275 c 2,27,-1
 2231 1275 l 1,28,-1
 2231 1363 l 2,29,30
 2231 1395 2231 1395 2209 1416.5 c 128,-1,31
 2187 1438 2187 1438 2155 1438 c 2,32,-1
 1645 1438 l 2,33,34
 1613 1438 1613 1438 1591 1416.5 c 128,-1,35
 1569 1395 1569 1395 1569 1363 c 2,36,-1
 1569 1275 l 1,37,-1
 806 1275 l 1,38,-1
 806 1363 l 2,39,40
 806 1395 806 1395 784.5 1416.5 c 128,-1,41
 763 1438 763 1438 731 1438 c 2,42,-1
 235 1438 l 2,43,44
 203 1438 203 1438 181 1416.5 c 128,-1,45
 159 1395 159 1395 159 1363 c 2,46,-1
 159 1275 l 1,47,-1
 55 1275 l 2,48,49
 4 1275 4 1275 4 1200 c 2,50,-1
 4 1164 l 2,51,52
 4 1089 4 1089 55 1089 c 2,53,-1
 159 1089 l 1,54,-1
 159 76 l 2,55,56
 159 44 159 44 181 22 c 128,-1,57
 203 0 203 0 235 0 c 2,0,-1
840 906 m 2,58,59
 827 906 827 906 816.5 916 c 128,-1,60
 806 926 806 926 806 939 c 2,61,-1
 806 1089 l 1,62,-1
 1569 1089 l 1,63,-1
 1569 940 l 2,64,65
 1569 928 1569 928 1559.5 918 c 128,-1,66
 1550 908 1550 908 1538 906 c 1,67,-1
 840 906 l 2,58,59
EndSplineSet
EndChar

StartChar: hbar
Encoding: 295 295 231
Width: 2022
GlyphClass: 2
Flags: W
LayerCount: 2
Fore
SplineSet
235 0 m 2,0,-1
 633 0 l 2,1,2
 665 0 665 0 687 22 c 128,-1,3
 709 44 709 44 709 76 c 2,4,-1
 709 513 l 2,5,6
 709 619 709 619 797 700 c 128,-1,7
 885 781 885 781 1023 781 c 128,-1,8
 1161 781 1161 781 1238.5 704 c 128,-1,9
 1316 627 1316 627 1316 513 c 2,10,-1
 1316 76 l 2,11,12
 1316 44 1316 44 1337.5 22 c 128,-1,13
 1359 0 1359 0 1391 0 c 2,14,-1
 1804 0 l 2,15,16
 1836 0 1836 0 1857.5 22 c 128,-1,17
 1879 44 1879 44 1879 76 c 2,18,-1
 1879 518 l 2,19,20
 1879 645 1879 645 1824 748.5 c 128,-1,21
 1769 852 1769 852 1676 917.5 c 0,22,23
 1483.61068702 1053 1483.61068702 1053 1207.80534351 1053 c 128,-1,24
 932 1053 932 1053 736 909 c 0,25,26
 727 903 727 903 718 907.5 c 128,-1,27
 709 912 709 912 709 923 c 2,28,-1
 709 1128 l 1,29,-1
 1010 1128 l 2,30,31
 1068 1128 1068 1128 1068 1196 c 2,32,-1
 1068 1242 l 2,33,34
 1068 1311 1068 1311 1010 1311 c 2,35,-1
 709 1311 l 1,36,-1
 709 1362 l 2,37,38
 709 1394 709 1394 687 1416 c 128,-1,39
 665 1438 665 1438 633 1438 c 2,40,-1
 235 1438 l 2,41,42
 203 1438 203 1438 181 1416 c 128,-1,43
 159 1394 159 1394 159 1362 c 2,44,-1
 159 1311 l 1,45,-1
 59 1311 l 2,46,47
 1 1311 1 1311 1 1242 c 2,48,-1
 1 1196 l 2,49,50
 1 1128 1 1128 59 1128 c 2,51,-1
 159 1128 l 1,52,-1
 159 76 l 2,53,54
 159 44 159 44 181 22 c 128,-1,55
 203 0 203 0 235 0 c 2,0,-1
EndSplineSet
EndChar

StartChar: dotlessi
Encoding: 305 305 241
Width: 856
GlyphClass: 2
Flags: W
LayerCount: 2
Fore
SplineSet
229 0 m 2,0,-1
 627 0 l 2,1,2
 659 0 659 0 680.5 22 c 128,-1,3
 702 44 702 44 702 76 c 2,4,-1
 702 931 l 2,5,6
 702 963 702 963 680.5 984.5 c 128,-1,7
 659 1006 659 1006 627 1006 c 2,8,-1
 229 1006 l 2,9,10
 197 1006 197 1006 175 984.5 c 128,-1,11
 153 963 153 963 153 931 c 2,12,-1
 153 76 l 2,13,14
 153 44 153 44 175 22 c 128,-1,15
 197 0 197 0 229 0 c 2,0,-1
EndSplineSet
EndChar

StartChar: kgreenlandic
Encoding: 312 312 248
Width: 2006
GlyphClass: 2
Flags: W
LayerCount: 2
Fore
SplineSet
1828 982 m 0,0,1
 1828 1006 1828 1006 1801 1006 c 2,2,-1
 1236 1006 l 2,3,4
 1165 1006 1165 1006 1097 957 c 2,5,-1
 737 703 l 1,6,7
 729 699 729 699 727 699 c 0,8,9
 709 699 709 699 709 717 c 2,10,-1
 709 931 l 2,11,12
 709 963 709 963 687.5 984.5 c 128,-1,13
 666 1006 666 1006 634 1006 c 2,14,-1
 236 1006 l 2,15,16
 204 1006 204 1006 182 984.5 c 128,-1,17
 160 963 160 963 160 931 c 2,18,-1
 160 76 l 2,19,20
 160 44 160 44 182 22 c 128,-1,21
 204 0 204 0 236 0 c 2,22,-1
 634 0 l 2,23,24
 666 0 666 0 687.5 22 c 128,-1,25
 709 44 709 44 709 76 c 2,26,-1
 709 219 l 2,27,28
 709 253 709 253 735 274 c 1,29,30
 748 287 748 287 868 377 c 1,31,32
 878 386 878 386 891 386 c 128,-1,33
 904 386 904 386 918 374 c 1,34,-1
 1231 59 l 2,35,36
 1270.57142857 19.4285714286 1270.57142857 19.4285714286 1292.28571429 9.71428571429 c 128,-1,37
 1314 0 1314 0 1336 0 c 2,38,-1
 1843 0 l 2,39,40
 1857 0 1857 0 1866 9 c 128,-1,41
 1875 18 1875 18 1875 31 c 128,-1,42
 1875 44 1875 44 1863 56 c 2,43,-1
 1324 570 l 2,44,45
 1315 579 1315 579 1315 592.5 c 128,-1,46
 1315 606 1315 606 1327 613 c 1,47,-1
 1811 958 l 2,48,49
 1828 969 1828 969 1828 982 c 0,0,1
EndSplineSet
EndChar

StartChar: Lslash
Encoding: 321 321 257
Width: 1997
GlyphClass: 2
Flags: W
LayerCount: 2
Fore
SplineSet
235 0 m 2,0,-1
 1798 0 l 2,1,2
 1830 0 1830 0 1852 22 c 128,-1,3
 1874 44 1874 44 1874 76 c 2,4,-1
 1874 274 l 2,5,6
 1874 306 1874 306 1852 328 c 128,-1,7
 1830 350 1830 350 1798 350 c 2,8,-1
 902 350 l 2,9,10
 887 350 887 350 876 361 c 128,-1,11
 865 372 865 372 865 387 c 2,12,-1
 865 775 l 1,13,-1
 1075 816 l 2,14,15
 1104 822 1104 822 1122.5 840 c 128,-1,16
 1141 858 1141 858 1141 885 c 2,17,-1
 1141 1028 l 2,18,19
 1141 1067 1141 1067 1119.5 1082 c 0,20,21
 1091.93251534 1101.23312883 1091.93251534 1101.23312883 1075 1097 c 2,22,-1
 865 1056 l 1,23,-1
 865 1363 l 2,24,25
 865 1395 865 1395 843.5 1416.5 c 128,-1,26
 822 1438 822 1438 790 1438 c 2,27,-1
 235 1438 l 2,28,29
 203 1438 203 1438 181 1416.5 c 128,-1,30
 159 1395 159 1395 159 1363 c 2,31,-1
 159 921 l 1,32,-1
 66 903 l 2,33,34
 1 889.551724138 1 889.551724138 1 832 c 2,35,-1
 1 693 l 2,36,37
 1 665 1 665 17.5 643 c 128,-1,38
 34 621 34 621 48 621 c 128,-1,39
 62 621 62 621 66 622 c 2,40,-1
 159 640 l 1,41,-1
 159 76 l 2,42,43
 159 44 159 44 181 22 c 128,-1,44
 203 0 203 0 235 0 c 2,0,-1
EndSplineSet
EndChar

StartChar: lslash
Encoding: 322 322 258
Width: 931
GlyphClass: 2
Flags: W
LayerCount: 2
Fore
SplineSet
286 0 m 2,0,-1
 684 0 l 2,1,2
 716 0 716 0 737.5 22 c 128,-1,3
 759 44 759 44 759 76 c 2,4,-1
 759 808 l 1,5,-1
 900 844 l 1,6,7
 917 844 917 844 928.5 859 c 128,-1,8
 940 874 940 874 940 896 c 2,9,-1
 940 1056 l 2,10,11
 940 1076 940 1076 928.5 1090 c 128,-1,12
 917 1104 917 1104 900 1104 c 1,13,-1
 759 1068 l 1,14,-1
 759 1369 l 2,15,16
 759 1401 759 1401 737.5 1422.5 c 128,-1,17
 716 1444 716 1444 684 1444 c 2,18,-1
 286 1444 l 2,19,20
 254 1444 254 1444 232 1422.5 c 128,-1,21
 210 1401 210 1401 210 1369 c 2,22,-1
 210 931 l 1,23,-1
 82 898 l 1,24,25
 66 895 66 895 55 880 c 128,-1,26
 44 865 44 865 44 843 c 2,27,-1
 44 695 l 2,28,29
 44 663 44 663 56.5 650.5 c 128,-1,30
 69 638 69 638 74.5 638 c 2,31,-1
 82 638 l 1,32,-1
 210 671 l 1,33,-1
 210 76 l 2,34,35
 210 44 210 44 232 22 c 128,-1,36
 254 0 254 0 286 0 c 2,0,-1
EndSplineSet
EndChar

StartChar: Eng
Encoding: 330 330 266
Width: 2542
GlyphClass: 2
Flags: W
LayerCount: 2
Fore
SplineSet
1414 -725 m 0,0,1
 1788.42979582 -721.715528107 1788.42979582 -721.715528107 2003 -626.5 c 0,2,3
 2183.59782609 -546.359714674 2183.59782609 -546.359714674 2277 -397.5 c 0,4,5
 2382 -230.15625 2382 -230.15625 2382 27 c 2,6,-1
 2382 1361 l 2,7,8
 2382 1393 2382 1393 2360.5 1414.5 c 128,-1,9
 2339 1436 2339 1436 2307 1436 c 2,10,-1
 1870 1436 l 2,11,12
 1838 1436 1838 1436 1816 1414.5 c 128,-1,13
 1794 1393 1794 1393 1794 1361 c 2,14,-1
 1794 787 l 2,15,16
 1794 777 1794 777 1785 772.5 c 128,-1,17
 1776 768 1776 768 1769 774 c 2,18,-1
 1054 1406 l 1,19,20
 999 1452 999 1452 931 1452 c 2,21,-1
 235 1452 l 2,22,23
 203 1452 203 1452 181 1430 c 128,-1,24
 159 1408 159 1408 159 1376 c 2,25,-1
 159 76 l 2,26,27
 159 44 159 44 181 22 c 128,-1,28
 203 0 203 0 235 0 c 2,29,-1
 681 0 l 2,30,31
 713 0 713 0 735 22 c 128,-1,32
 757 44 757 44 757 76 c 2,33,-1
 757 888 l 2,34,35
 757 898 757 898 766.5 902.5 c 128,-1,36
 776 907 776 907 783 901 c 0,37,38
 830 860 830 860 1072 653 c 0,39,40
 1698.01877934 117.521126761 1698.01877934 117.521126761 1795 28 c 1,41,-1
 1795 -7 l 1,42,43
 1793.01556731 -205.443269135 1793.01556731 -205.443269135 1694.5 -282.5 c 0,44,45
 1602.88641304 -354.158152174 1602.88641304 -354.158152174 1414 -360 c 0,46,47
 1399 -360 1399 -360 1388.5 -371.5 c 128,-1,48
 1378 -383 1378 -383 1378 -401 c 2,49,-1
 1378 -685 l 2,50,51
 1378 -701 1378 -701 1389 -713 c 128,-1,52
 1400 -725 1400 -725 1414 -725 c 0,0,1
EndSplineSet
EndChar

StartChar: eng
Encoding: 331 331 267
Width: 2027
GlyphClass: 2
Flags: W
LayerCount: 2
Fore
SplineSet
1111 -146 m 1,0,-1
 985 -139 l 1,1,2
 958 -139 958 -139 939.5 -158 c 128,-1,3
 921 -177 921 -177 921 -206 c 2,4,-1
 921 -344 l 2,5,6
 921 -377 921 -377 942 -401 c 128,-1,7
 963 -425 963 -425 995 -429 c 0,8,9
 1122 -446 1122 -446 1188 -446 c 0,10,11
 1734.49324324 -446 1734.49324324 -446 1850.5 -155 c 0,12,13
 1880 -81 1880 -81 1881 4 c 128,-1,14
 1882 89 1882 89 1882 518 c 0,15,16
 1882 786.214659686 1882 786.214659686 1682.5 922 c 0,17,18
 1490.03076923 1053 1490.03076923 1053 1161 1053 c 0,19,20
 976 1053 976 1053 813.5 991 c 128,-1,21
 651 929 651 929 557 812 c 0,22,23
 548 801 548 801 536 801 c 128,-1,24
 524 801 524 801 516 814 c 2,25,-1
 438 942 l 1,26,27
 401 1006 401 1006 324 1006 c 2,28,-1
 227 1006 l 2,29,30
 195 1006 195 1006 174 984 c 128,-1,31
 153 962 153 962 153 929 c 2,32,-1
 153 76 l 2,33,34
 153 44 153 44 175 22 c 128,-1,35
 197 0 197 0 229 0 c 2,36,-1
 627 0 l 2,37,38
 659 0 659 0 680.5 22 c 128,-1,39
 702 44 702 44 702 76 c 2,40,-1
 702 513 l 2,41,42
 702 618 702 618 794.5 699.5 c 128,-1,43
 887 781 887 781 1026 781 c 128,-1,44
 1165 781 1165 781 1248 703 c 128,-1,45
 1331 625 1331 625 1331 513 c 2,46,-1
 1331 14 l 2,47,48
 1331 -146 1331 -146 1111 -146 c 1,0,-1
EndSplineSet
EndChar

StartChar: OE
Encoding: 338 338 274
Width: 3527
GlyphClass: 2
Flags: W
LayerCount: 2
Fore
SplineSet
1563 -1 m 1,0,-1
 2257 0 l 1,1,-1
 3309 0 l 2,2,3
 3341 0 3341 0 3363 22.5 c 128,-1,4
 3385 45 3385 45 3385 77 c 2,5,-1
 3385 268 l 2,6,7
 3385 300 3385 300 3363 322.5 c 128,-1,8
 3341 345 3341 345 3309 345 c 2,9,-1
 2335 345 l 2,10,11
 2322 345 2322 345 2311.5 355.5 c 128,-1,12
 2301 366 2301 366 2301 379 c 2,13,-1
 2301 557 l 2,14,15
 2301 570 2301 570 2312 580.5 c 128,-1,16
 2323 591 2323 591 2336 591 c 2,17,-1
 3065 591 l 2,18,19
 3097 591 3097 591 3119 613.5 c 128,-1,20
 3141 636 3141 636 3141 668 c 2,21,-1
 3141 795 l 2,22,23
 3141 827 3141 827 3119 849.5 c 128,-1,24
 3097 872 3097 872 3065 872 c 2,25,-1
 2335 872 l 2,26,27
 2322 872 2322 872 2311.5 883.5 c 128,-1,28
 2301 895 2301 895 2301 908 c 2,29,-1
 2301 1053 l 2,30,31
 2301 1068 2301 1068 2311.5 1078.5 c 128,-1,32
 2322 1089 2322 1089 2337 1089 c 2,33,-1
 3244 1089 l 2,34,35
 3276 1089 3276 1089 3297.5 1111.5 c 128,-1,36
 3319 1134 3319 1134 3319 1166 c 2,37,-1
 3319 1361 l 2,38,39
 3319 1393 3319 1393 3297 1415.5 c 128,-1,40
 3275 1438 3275 1438 3244 1438 c 2,41,-1
 1350 1438 l 2,42,43
 775.631578947 1438 775.631578947 1438 445.5 1243 c 0,44,45
 132 1057.8238342 132 1057.8238342 132 722 c 0,46,47
 132 103.416267943 132 103.416267943 1045.5 16 c 0,48,49
 1223.15 -1 1223.15 -1 1356.075 -1 c 2,50,-1
 1563 -1 l 1,0,-1
1374 345 m 2,51,52
 1097.23809524 345 1097.23809524 345 984 461 c 0,53,54
 896 551.146341463 896 551.146341463 896 722 c 0,55,56
 896 932.353846154 896 932.353846154 1027 1017 c 0,57,58
 1149.26190476 1096 1149.26190476 1096 1375 1096 c 2,59,-1
 1561 1096 l 2,60,61
 1574 1096 1574 1096 1585 1085.5 c 128,-1,62
 1596 1075 1596 1075 1596 1062 c 2,63,-1
 1596 379 l 2,64,65
 1596 366 1596 366 1585.5 355.5 c 128,-1,66
 1575 345 1575 345 1562 345 c 2,67,-1
 1374 345 l 2,51,52
EndSplineSet
EndChar

StartChar: oe
Encoding: 339 339 275
Width: 3245
GlyphClass: 2
Flags: W
LayerCount: 2
Fore
SplineSet
1829 419 m 0,0,1
 1829 449 1829 449 1853 449 c 2,2,-1
 2824 449 l 2,3,4
 2866 449 2866 449 2879 469.5 c 128,-1,5
 2892 490 2892 490 2892 533 c 0,6,7
 2890 644 2890 644 2842.5 734 c 128,-1,8
 2795 824 2795 824 2718.5 882.5 c 128,-1,9
 2642 941 2642 941 2540 980.5 c 0,10,11
 2352.78481013 1053 2352.78481013 1053 2109 1053 c 1,12,13
 1781 1053 1781 1053 1591 933 c 1,14,15
 1387 1053 1387 1053 1009 1053 c 0,16,17
 140 1053 140 1053 140 507 c 0,18,19
 140 63.4130434783 140 63.4130434783 675 -18 c 0,20,21
 826.142857143 -41 826.142857143 -41 1009 -41 c 0,22,23
 1408 -41 1408 -41 1603 80 c 1,24,25
 1805 -41 1805 -41 2165 -41 c 0,26,27
 2276 -41 2276 -41 2467.5 -13 c 128,-1,28
 2659 15 2659 15 2768 50 c 0,29,30
 2815 65 2815 65 2815 114 c 0,31,32
 2815 143.571428571 2815 143.571428571 2800 184.285714286 c 128,-1,33
 2785 225 2785 225 2780 239.5 c 128,-1,34
 2775 254 2775 254 2758 266.5 c 128,-1,35
 2741 279 2741 279 2726 279 c 0,36,37
 2705 279 2705 279 2691 275 c 0,38,39
 2478 210 2478 210 2274 210 c 0,40,41
 2109.56521739 210 2109.56521739 210 2009.7826087 244 c 128,-1,42
 1910 278 1910 278 1869.5 320.5 c 128,-1,43
 1829 363 1829 363 1829 419 c 0,0,1
1842 615 m 2,44,45
 1831 615 1831 615 1831 644 c 1,46,47
 1838 725 1838 725 1921 780 c 128,-1,48
 2004 835 2004 835 2121 835 c 128,-1,49
 2238 835 2238 835 2311 779.5 c 128,-1,50
 2384 724 2384 724 2396 639 c 1,51,52
 2396 615 2396 615 2385 615 c 2,53,-1
 1842 615 l 2,44,45
1009 215 m 128,-1,55
 855 215 855 215 770.5 288 c 128,-1,56
 686 361 686 361 686 500 c 128,-1,57
 686 639 686 639 772 718.5 c 128,-1,58
 858 798 858 798 1008.5 798 c 128,-1,59
 1159 798 1159 798 1245 718.5 c 128,-1,60
 1331 639 1331 639 1331 500 c 128,-1,61
 1331 361 1331 361 1247 288 c 128,-1,54
 1163 215 1163 215 1009 215 c 128,-1,55
EndSplineSet
EndChar

StartChar: Tbar
Encoding: 358 358 292
Width: 2123
GlyphClass: 2
Flags: W
LayerCount: 2
Fore
SplineSet
810 0 m 2,0,-1
 1311 0 l 2,1,2
 1343 0 1343 0 1364.5 22 c 128,-1,3
 1386 44 1386 44 1386 76 c 2,4,-1
 1386 483 l 1,5,-1
 1729 483 l 2,6,7
 1761 483 1761 483 1782 505 c 128,-1,8
 1803 527 1803 527 1803 559 c 2,9,-1
 1803 684 l 2,10,11
 1803 716 1803 716 1782 738 c 128,-1,12
 1761 760 1761 760 1729 760 c 2,13,-1
 1386 760 l 1,14,-1
 1386 1069 l 2,15,16
 1386 1084 1386 1084 1396.5 1094 c 128,-1,17
 1407 1104 1407 1104 1422 1104 c 2,18,-1
 1939 1104 l 2,19,20
 1971 1104 1971 1104 1993 1126.5 c 128,-1,21
 2015 1149 2015 1149 2015 1181 c 2,22,-1
 2015 1361 l 2,23,24
 2015 1393 2015 1393 1993 1415.5 c 128,-1,25
 1971 1438 1971 1438 1939 1438 c 2,26,-1
 178 1438 l 2,27,28
 146 1438 146 1438 124.5 1415.5 c 128,-1,29
 103 1393 103 1393 103 1361 c 2,30,-1
 103 1181 l 2,31,32
 103 1149 103 1149 124.5 1126.5 c 128,-1,33
 146 1104 146 1104 178 1104 c 2,34,-1
 699 1104 l 2,35,36
 714 1104 714 1104 724 1094 c 128,-1,37
 734 1084 734 1084 734 1069 c 2,38,-1
 734 760 l 1,39,-1
 398 760 l 2,40,41
 366 760 366 760 345 738 c 128,-1,42
 324 716 324 716 324 684 c 2,43,-1
 324 559 l 2,44,45
 324 527 324 527 345 505 c 128,-1,46
 366 483 366 483 398 483 c 2,47,-1
 734 483 l 1,48,-1
 734 76 l 2,49,50
 734 44 734 44 756 22 c 128,-1,51
 778 0 778 0 810 0 c 2,0,-1
EndSplineSet
EndChar

